<?xml version="1.0" encoding="UTF-8" standalone="no"?>
<!-- Created with Inkscape (http://www.inkscape.org/) -->

<svg
   width="27.999826"
   height="27.999788"
   viewBox="0 0 7.4082874 7.4082773"
   version="1.1"
   id="svg1"
   inkscape:version="1.3 (0e150ed6c4, 2023-07-21)"
   sodipodi:docname="avv.svg"
   xml:space="preserve"
   xmlns:inkscape="http://www.inkscape.org/namespaces/inkscape"
   xmlns:sodipodi="http://sodipodi.sourceforge.net/DTD/sodipodi-0.dtd"
   xmlns="http://www.w3.org/2000/svg"
   xmlns:svg="http://www.w3.org/2000/svg"><sodipodi:namedview
     id="namedview1"
     pagecolor="#ffffff"
     bordercolor="#000000"
     borderopacity="0.25"
     inkscape:showpageshadow="2"
     inkscape:pageopacity="0.0"
     inkscape:pagecheckerboard="0"
     inkscape:deskcolor="#d1d1d1"
     inkscape:document-units="px"
     inkscape:zoom="7.9999999"
     inkscape:cx="25.125"
     inkscape:cy="20.875"
     inkscape:window-width="1920"
     inkscape:window-height="1011"
     inkscape:window-x="0"
     inkscape:window-y="0"
     inkscape:window-maximized="1"
     inkscape:current-layer="layer1"
     showgrid="false"><inkscape:grid
       id="grid6"
       units="px"
       originx="0"
       originy="0"
       spacingx="0.26458333"
       spacingy="0.26458333"
       empcolor="#0099e5"
       empopacity="0.30196078"
       color="#0099e5"
       opacity="0.14901961"
       empspacing="5"
       dotted="false"
       gridanglex="30"
       gridanglez="30"
       visible="false" /></sodipodi:namedview><defs
     id="defs1"><clipPath
       id="clipPath1">&#10;			<path
   d="m 253.07,259.95 v -53.3 h -19.93 c -6.98,0 -10.98,-4 -10.98,-10.98 V 101.08 C 222.16,44.29 197.3,-0.07 112.58,-0.07 86.19,-0.07 19.44,4.95 19.44,52.29 V 79.11 H 78.27 V 65.66 c 0,-13.88 22.39,-16.86 33.8,-16.86 32.44,0 46.83,13.45 46.83,49.81 v 1.96 h -7.92 c -41.38,0 -150.95,6.47 -150.95,86.16 0,50.75 41.37,79.18 86.67,79.18 57.3,0 76.71,-44.87 76.71,-44.87 h 1.02 c 0,0 -0.51,4.52 -0.51,10.99 0,14.98 8.94,27.92 32.36,27.92 z M 159.92,149.87 c 0,30.9 -23.92,66.75 -57.81,66.75 -25.88,0 -38.31,-15.93 -38.31,-32.87 0,-35.42 52.27,-39.84 85.14,-39.84 h 10.98 z"
   id="path1" />&#10;		</clipPath></defs><g
     inkscape:label="Layer 1"
     inkscape:groupmode="layer"
     id="layer1"
     transform="translate(-105.83333,-79.904152)"><rect
       style="fill:#ffffff;stroke-width:0.264581;stroke-linecap:round;stroke-linejoin:round"
       id="rect2"
       width="7.4082875"
       height="7.4082775"
       x="105.83333"
       y="79.904152"
       rx="1.5875" /><g
       style="fill-opacity:1;fill-rule:nonzero;stroke:none"
       id="g10"
       transform="matrix(0.0088448,0,0,0.0088448,106.0976,82.367446)">&#10;		<g
   id="g5">&#10;			&#10;			<path
   style="fill:#b5097f"
   d="m 777.8,5.98 h -38.15 c -21.28,0 -32.18,6.47 -38.91,23.83 L 639.36,199.08 580.27,29.81 C 573.54,12.45 563.15,5.98 541.36,5.98 H 528.67 L 507.56,59.7 h 2.21 c 7.32,0 11.92,2.47 14.56,9.02 l 75.78,191.23 h 77.73 L 777.8,5.98"
   id="path3" />&#10;			<path
   style="fill:#b5097f"
   d="m 476.57,5.98 c -21.29,0 -32.19,6.47 -38.91,23.83 l -61.48,169.27 -59,-169.27 C 310.37,12.45 299.98,5.98 278.27,5.98 H 240.98 V 59.7 h 5.7 c 7.24,0 11.92,2.47 14.56,9.02 l 75.69,191.23 h 78.42 L 490.44,68.72 c 0.09,-0.25 0.17,-0.34 0.26,-0.51 L 515.22,5.98"
   id="path4" />&#10;			<path
   style="fill:#ffffff"
   d="m 253.07,259.95 v -53.3 h -19.93 c -6.98,0 -10.98,-4 -10.98,-10.98 V 101.08 C 222.16,44.29 197.3,-0.07 112.58,-0.07 86.19,-0.07 19.44,4.95 19.44,52.29 V 79.11 H 78.27 V 65.66 c 0,-13.88 22.39,-16.86 33.8,-16.86 32.44,0 46.83,13.45 46.83,49.81 v 1.96 h -7.92 c -41.38,0 -150.95,6.47 -150.95,86.16 0,50.75 41.37,79.18 86.67,79.18 57.3,0 76.71,-44.87 76.71,-44.87 h 1.02 c 0,0 -0.51,4.52 -0.51,10.99 0,14.98 8.94,27.92 32.36,27.92 z M 159.92,149.87 c 0,30.9 -23.92,66.75 -57.81,66.75 -25.88,0 -38.31,-15.93 -38.31,-32.87 0,-35.42 52.27,-39.84 85.14,-39.84 h 10.98 v 5.96"
   id="path5" />&#10;		</g>&#10;		<g
   clip-path="url(#clipPath1)"
   id="g9">&#10;			<path
   style="fill:#fbc707"
   d="M 213.73,758.55 H 341.7 C 182.06,585.71 173.29,339.73 316.5,156 447.7,-13.52 667.03,-63.59 860.56,9.64 L 808.62,-110.41 C 600.87,-154.09 348.26,-77.97 210.5,131.99 75.97,336.41 92.4,538.71 213.73,758.55"
   id="path6" />&#10;			<path
   style="fill:#f68636"
   d="M 111.73,817.55 H 225.82 C 89.68,570.89 71.2,343.9 222.16,114.45 376.78,-121.06 660.22,-206.54 893.34,-157.5 l -45.39,-104.72 c -306.68,-34.4 -597.61,104.3 -744.82,382.88 -127.63,241.72 -104.3,476.03 8.6,696.89"
   id="path7" />&#10;			<path
   style="fill:#db1f26"
   d="m 17.22,763.74 h 90.51 C 6.16,564.93 -14.79,354.04 99.98,136.41 232.12,-113.56 495.3,-238.13 770.48,-208.16 l -34.74,-80.29 C 422.07,-296.19 149.7,-141.92 19.44,125.34 -91.08,349.52 -65.62,547.22 17.22,1342.3"
   id="path8" />&#10;			<path
   style="fill:#4f73c2"
   d="M -51.32,758.55 H 17.56 C -64.51,544.16 -89.63,348.42 19.69,126.54 148.77,-138.09 418.41,-290.92 728.93,-283.25 l -28.53,-65.9 c -302.85,-16.43 -618.38,159.64 -755.04,481.14 -96.21,225.2 -86.41,395.82 3.32,626.56"
   id="path9" />&#10;		</g>&#10;	</g></g></svg>
