<?xml version="1.0" encoding="UTF-8" standalone="no"?>
<!-- Created with Inkscape (http://www.inkscape.org/) -->

<svg
   width="27.999826"
   height="27.999788"
   viewBox="0 0 7.4082874 7.4082773"
   version="1.1"
   id="svg1"
   inkscape:version="1.3 (0e150ed6c4, 2023-07-21)"
   sodipodi:docname="bls.svg"
   xml:space="preserve"
   xmlns:inkscape="http://www.inkscape.org/namespaces/inkscape"
   xmlns:sodipodi="http://sodipodi.sourceforge.net/DTD/sodipodi-0.dtd"
   xmlns="http://www.w3.org/2000/svg"
   xmlns:svg="http://www.w3.org/2000/svg"><sodipodi:namedview
     id="namedview1"
     pagecolor="#ffffff"
     bordercolor="#000000"
     borderopacity="0.25"
     inkscape:showpageshadow="2"
     inkscape:pageopacity="0.0"
     inkscape:pagecheckerboard="0"
     inkscape:deskcolor="#d1d1d1"
     inkscape:document-units="px"
     inkscape:zoom="5.6568542"
     inkscape:cx="-2.8284271"
     inkscape:cy="6.0104076"
     inkscape:window-width="1920"
     inkscape:window-height="1011"
     inkscape:window-x="0"
     inkscape:window-y="0"
     inkscape:window-maximized="1"
     inkscape:current-layer="layer1"
     showgrid="false"><inkscape:grid
       id="grid6"
       units="px"
       originx="0"
       originy="0"
       spacingx="0.26458333"
       spacingy="0.26458333"
       empcolor="#0099e5"
       empopacity="0.30196078"
       color="#0099e5"
       opacity="0.14901961"
       empspacing="5"
       dotted="false"
       gridanglex="30"
       gridanglez="30"
       visible="false" /></sodipodi:namedview><defs
     id="defs1" /><g
     inkscape:label="Layer 1"
     inkscape:groupmode="layer"
     id="layer1"
     transform="translate(-105.83333,-79.904152)"><rect
       style="fill:#ffffff;stroke-width:0.264581;stroke-linecap:round;stroke-linejoin:round"
       id="rect2"
       width="7.4082875"
       height="7.4082775"
       x="105.83333"
       y="79.904152"
       rx="1.5875" /><path
       d="m 110.0732,82.020818 c -0.13769,0.0059 -0.2585,0.05877 -0.27978,0.189615 l -0.0857,0.6912 c 0.45794,0.08057 0.80533,0.481372 0.80533,0.961133 0,0.539331 -0.43647,0.977592 -0.97491,0.977592 -0.53827,0 -0.97527,-0.438261 -0.97527,-0.977592 0,-0.479761 0.34686,-0.880636 0.80425,-0.961133 l -0.0833,-0.6912 c -0.0239,-0.130857 -0.14374,-0.183712 -0.2821,-0.189615 h -2.5598 l 0.45614,0.820353 c 0.12856,0.215912 0.34525,0.226823 0.37691,0.226823 h 0.65471 c -0.15685,0.261705 -0.24526,0.541833 -0.24526,0.794772 0,1.028751 0.82967,1.862164 1.85324,1.862164 1.02195,0 1.85142,-0.832518 1.85142,-1.862164 0,-0.252939 -0.0881,-0.533067 -0.24596,-0.794772 h 0.65596 c 0.0318,0 0.24918,-0.01091 0.37672,-0.226823 l 0.45722,-0.820353 z m -1.15719,1.842486 c 0,-0.343454 0.27833,-0.62269 0.62214,-0.62269 0.34239,0 0.62216,0.279236 0.62216,0.62269 0,0.344347 -0.27977,0.622867 -0.62216,0.622867 -0.34362,0 -0.62214,-0.278698 -0.62214,-0.622867 z"
       fill="#002595"
       style="stroke-width:0.961899"
       id="path1"
       sodipodi:nodetypes="cccssscccccscssscscccsssss" /></g></svg>
