<?xml version="1.0" encoding="UTF-8" standalone="no"?>
<!-- Created with Inkscape (http://www.inkscape.org/) -->

<svg
   width="27.999826"
   height="27.999788"
   viewBox="0 0 7.4082874 7.4082773"
   version="1.1"
   id="svg1"
   inkscape:version="1.3 (0e150ed6c4, 2023-07-21)"
   sodipodi:docname="cmta.svg"
   xml:space="preserve"
   xmlns:inkscape="http://www.inkscape.org/namespaces/inkscape"
   xmlns:sodipodi="http://sodipodi.sourceforge.net/DTD/sodipodi-0.dtd"
   xmlns="http://www.w3.org/2000/svg"
   xmlns:svg="http://www.w3.org/2000/svg"><sodipodi:namedview
     id="namedview1"
     pagecolor="#ffffff"
     bordercolor="#000000"
     borderopacity="0.25"
     inkscape:showpageshadow="2"
     inkscape:pageopacity="0.0"
     inkscape:pagecheckerboard="0"
     inkscape:deskcolor="#d1d1d1"
     inkscape:document-units="px"
     inkscape:zoom="8"
     inkscape:cx="1.75"
     inkscape:cy="15.25"
     inkscape:window-width="1920"
     inkscape:window-height="1011"
     inkscape:window-x="0"
     inkscape:window-y="0"
     inkscape:window-maximized="1"
     inkscape:current-layer="layer1"
     showgrid="true"><inkscape:grid
       id="grid6"
       units="px"
       originx="0"
       originy="0"
       spacingx="0.26458333"
       spacingy="0.26458333"
       empcolor="#0099e5"
       empopacity="0.30196078"
       color="#0099e5"
       opacity="0.14902"
       empspacing="5"
       dotted="false"
       gridanglex="30"
       gridanglez="30"
       visible="true" /></sodipodi:namedview><defs
     id="defs1"><clipPath
       clipPathUnits="userSpaceOnUse"
       id="clipPath62542"><path
         d="m 36,36 1818,0 0,1818 -1818,0 0,-1818 z"
         id="path62544"
         inkscape:connector-curvature="0" /></clipPath></defs><g
     inkscape:label="Layer 1"
     inkscape:groupmode="layer"
     id="layer1"
     transform="translate(-105.83333,-79.904152)"><rect
       style="fill:#006aa6;fill-opacity:1;stroke-width:0.264581;stroke-linecap:round;stroke-linejoin:round"
       id="rect2"
       width="7.4082875"
       height="7.4082775"
       x="105.83333"
       y="79.904152"
       rx="1.5875" /><path
       style="fill:#ffffff;fill-opacity:1;stroke-width:0.0135495"
       d="m 107.94658,83.793182 v -0.55209 h 0.1195 0.1195 v 0.03861 0.03861 l 0.0251,-0.02212 c 0.0326,-0.02875 0.0923,-0.05811 0.13742,-0.06761 0.0493,-0.01037 0.13345,-0.0067 0.17925,0.0078 0.14184,0.04491 0.24309,0.169913 0.26496,0.327129 0.0308,0.22168 -0.0924,0.42262 -0.28727,0.468569 -0.0396,0.0093 -0.12644,0.0092 -0.16642,-1.61e-4 -0.0447,-0.01052 -0.0956,-0.03662 -0.12635,-0.06472 l -0.0267,-0.02439 v 0.20124 0.201238 h -0.1195 -0.1195 z m 0.50317,0.0292 c 0.12704,-0.06103 0.15204,-0.251014 0.046,-0.349231 -0.0384,-0.03555 -0.0703,-0.04766 -0.1261,-0.0478 -0.0384,-1.18e-4 -0.0464,0.0014 -0.0749,0.01495 -0.0605,0.02856 -0.0975,0.07678 -0.11209,0.146068 -0.0192,0.09117 0.023,0.192087 0.096,0.229376 0.039,0.01996 0.0518,0.02273 0.0982,0.02129 0.038,-0.0011 0.0499,-0.0035 0.073,-0.01465 z m 0.9025,-0.07827 c -0.0905,-0.167561 -0.16526,-0.305553 -0.16611,-0.306649 -7.1e-4,-0.0011 -0.003,-6.34e-4 -0.004,9.21e-4 -0.001,0.0016 -0.0403,0.133513 -0.0859,0.293026 -0.0456,0.159512 -0.0837,0.290844 -0.0847,0.291845 -7e-4,9.21e-4 -0.0567,0.0013 -0.12376,4.9e-4 l -0.12194,-0.0013 0.17015,-0.577367 c 0.12486,-0.423693 0.17144,-0.57555 0.175,-0.570537 0.003,0.0038 0.0952,0.172626 0.20562,0.375264 0.11041,0.202637 0.20186,0.368499 0.20322,0.368581 0.001,5.9e-5 0.0939,-0.168475 0.20554,-0.374572 0.11169,-0.206097 0.20411,-0.373734 0.20537,-0.372529 0.001,0.0013 0.0788,0.260709 0.17238,0.576677 l 0.17008,0.574483 -0.12186,0.0013 c -0.0713,7.79e-4 -0.12298,-6.34e-4 -0.12458,-0.0032 -10e-4,-0.0025 -0.0403,-0.134764 -0.0862,-0.294052 -0.0459,-0.159289 -0.0848,-0.289614 -0.0864,-0.289614 -10e-4,0 -0.0768,0.137664 -0.1671,0.305919 -0.0903,0.168256 -0.16539,0.30589 -0.1669,0.305853 -0.001,-4e-5 -0.0768,-0.137163 -0.16731,-0.304724 z m -2.77991,0.288201 c -0.18217,-0.03358 -0.3352,-0.149465 -0.41595,-0.315005 -0.16467,-0.337576 0.0333,-0.736233 0.40396,-0.813292 0.11309,-0.02351 0.25636,-0.0082 0.35641,0.03799 l 0.0356,0.01644 v 0.139444 0.139447 l -0.028,-0.02591 c -0.0339,-0.03141 -0.0924,-0.06271 -0.14272,-0.07632 -0.0497,-0.01346 -0.14251,-0.01453 -0.18779,-0.0022 -0.11898,0.03247 -0.2095,0.122884 -0.24241,0.242152 -0.0133,0.04821 -0.012,0.144247 0.003,0.190879 0.0388,0.123583 0.12271,0.204155 0.24478,0.235023 0.0339,0.0086 0.0492,0.0097 0.0999,0.0077 0.0904,-0.0037 0.15989,-0.0295 0.22247,-0.08258 l 0.0311,-0.02634 v 0.138103 0.138102 l -0.0323,0.01443 c -0.043,0.01924 -0.0901,0.03344 -0.13902,0.04198 -0.0492,0.0086 -0.16215,0.0086 -0.20872,-5e-6 z m 0.717,-0.0021 c -0.13239,-0.0361 -0.22525,-0.129983 -0.2685,-0.271477 -0.0118,-0.03874 -0.0129,-0.04862 -0.0129,-0.125697 -6e-5,-0.07171 10e-4,-0.08907 0.0105,-0.121632 0.032,-0.115448 0.10451,-0.205532 0.20404,-0.253594 0.06,-0.02895 0.10422,-0.03776 0.17395,-0.0346 0.0816,0.0037 0.14408,0.02785 0.19684,0.07607 0.011,0.01005 0.0208,0.01827 0.0218,0.01827 7.1e-4,0 10e-4,-0.01721 10e-4,-0.03824 v -0.03824 h 0.11951 0.1195 v 0.391959 0.391959 h -0.1195 -0.11951 v -0.04117 -0.04118 l -0.0194,0.01752 c -0.0306,0.02763 -0.0675,0.04926 -0.10811,0.06321 -0.051,0.01754 -0.14846,0.02089 -0.19993,0.0069 z m 0.21832,-0.206969 c 0.0719,-0.03309 0.11389,-0.104098 0.11389,-0.192518 0,-0.126319 -0.0923,-0.217289 -0.2093,-0.20636 -0.10004,0.0093 -0.17313,0.09652 -0.17293,0.206283 1.1e-4,0.05912 0.0173,0.10722 0.053,0.147653 0.0382,0.04334 0.0814,0.06084 0.14525,0.05881 0.0343,-0.0011 0.0485,-0.0039 0.0702,-0.01386 z m 3.05118,0.208436 c -0.13927,-0.03092 -0.25267,-0.132955 -0.29961,-0.269581 -0.0152,-0.04421 -0.0156,-0.04756 -0.0157,-0.126671 -1.6e-4,-0.09612 0.005,-0.119341 0.0406,-0.192145 0.0192,-0.03894 0.0318,-0.05701 0.0629,-0.0898 0.0889,-0.09394 0.19303,-0.135765 0.32394,-0.13015 0.11624,0.005 0.19567,0.0396 0.26881,0.117127 0.073,0.07743 0.10896,0.176514 0.10909,0.300946 l 6e-5,0.05856 h -0.29397 c -0.23199,0 -0.29397,0.0013 -0.29396,0.006 0,0.01348 0.0294,0.0667 0.0479,0.08679 0.0411,0.04452 0.0907,0.06262 0.16239,0.05917 0.036,-0.0017 0.0518,-0.0049 0.0727,-0.01448 0.0246,-0.01126 0.0659,-0.04685 0.0659,-0.05679 0,-0.0023 0.0506,-0.0042 0.11233,-0.0042 0.13072,0 0.12293,-0.0046 0.0939,0.05522 -0.0481,0.09886 -0.12873,0.164662 -0.23785,0.193968 -0.0508,0.01365 -0.17024,0.01694 -0.2193,0.006 z m 0.26239,-0.493045 c -0.006,-0.02369 -0.0317,-0.06815 -0.049,-0.08334 -0.009,-0.0082 -0.0289,-0.02048 -0.0435,-0.02731 -0.0235,-0.01103 -0.0324,-0.01243 -0.0791,-0.01243 -0.047,0 -0.0554,0.0013 -0.0799,0.01281 -0.0456,0.02136 -0.0882,0.06868 -0.10151,0.112664 l -0.004,0.01075 h 0.17965 0.17967 z m 0.49225,0.491245 c -0.10373,-0.02719 -0.17148,-0.0978 -0.19082,-0.198844 -0.006,-0.02983 -0.007,-0.102805 -0.007,-0.408737 v -0.372418 h 0.11701 0.11701 l 10e-4,0.0944 0.001,0.0944 0.0992,0.0013 0.0992,0.0013 v 0.09311 0.09311 h -0.10039 -0.10037 v 0.155113 c 0,0.09258 0.002,0.164775 0.005,0.179076 0.0113,0.05291 0.0411,0.0745 0.10272,0.0745 0.0346,0 0.0421,-0.0018 0.0729,-0.01705 l 0.0343,-0.01705 v 0.103637 0.103638 l -0.0203,0.0077 c -0.0637,0.02406 -0.16664,0.02979 -0.23125,0.01285 z m 1.14787,0.0018 c -0.20331,-0.04524 -0.33645,-0.21686 -0.32595,-0.420154 0.006,-0.103733 0.0374,-0.180892 0.10554,-0.254241 0.0549,-0.05908 0.11411,-0.09569 0.19263,-0.119095 0.06,-0.01787 0.14782,-0.02099 0.21271,-0.0076 0.16331,0.0338 0.28582,0.151762 0.32241,0.310446 0.0102,0.04442 0.0113,0.1334 0.002,0.175616 -0.027,0.123948 -0.10954,0.226755 -0.22678,0.282433 -0.0624,0.02966 -0.093,0.03634 -0.17521,0.03826 -0.0549,0.0013 -0.0828,-1.61e-4 -0.10748,-0.0057 z m 0.14936,-0.201938 c 0.068,-0.02116 0.11216,-0.0729 0.12859,-0.15063 0.0128,-0.06067 -2.9e-4,-0.128322 -0.0348,-0.178459 -0.02,-0.0292 -0.0396,-0.04511 -0.0772,-0.06262 -0.0369,-0.01718 -0.0992,-0.01788 -0.14072,-0.0016 -0.0722,0.02833 -0.11853,0.104021 -0.11853,0.193762 0,0.06152 0.0174,0.109962 0.0538,0.149435 0.0485,0.05264 0.11984,0.07157 0.1888,0.0501 z m -0.9692,-0.196705 V 83.24103 h 0.1195 0.1195 l 5e-5,0.05377 6e-5,0.05378 0.0129,-0.01673 c 0.0476,-0.06183 0.11613,-0.09905 0.19135,-0.103942 l 0.0394,-0.0025 v 0.117195 0.117192 l -0.0561,0.0024 c -0.0644,0.0028 -0.0884,0.0098 -0.12267,0.03587 -0.0278,0.02116 -0.0517,0.06152 -0.0595,0.10031 -0.004,0.0172 -0.006,0.0979 -0.006,0.226671 v 0.199962 h -0.1195 -0.1195 z"
       id="path2" /></g><style
     type="text/css"
     id="style1">&#10;	.st0{fill:#505050;}&#10;	.st1{fill:#99CC00;}&#10;</style></svg>
