<?xml version="1.0" encoding="UTF-8" standalone="no"?>
<!-- Created with Inkscape (http://www.inkscape.org/) -->

<svg
   width="27.999826"
   height="27.999788"
   viewBox="0 0 7.4082874 7.4082773"
   version="1.1"
   id="svg1"
   inkscape:version="1.3 (0e150ed6c4, 2023-07-21)"
   sodipodi:docname="dart.svg"
   xml:space="preserve"
   xmlns:inkscape="http://www.inkscape.org/namespaces/inkscape"
   xmlns:sodipodi="http://sodipodi.sourceforge.net/DTD/sodipodi-0.dtd"
   xmlns="http://www.w3.org/2000/svg"
   xmlns:svg="http://www.w3.org/2000/svg"><sodipodi:namedview
     id="namedview1"
     pagecolor="#ffffff"
     bordercolor="#000000"
     borderopacity="0.25"
     inkscape:showpageshadow="2"
     inkscape:pageopacity="0.0"
     inkscape:pagecheckerboard="0"
     inkscape:deskcolor="#d1d1d1"
     inkscape:document-units="px"
     inkscape:zoom="4"
     inkscape:cx="1.5"
     inkscape:cy="21.25"
     inkscape:window-width="1920"
     inkscape:window-height="1011"
     inkscape:window-x="0"
     inkscape:window-y="0"
     inkscape:window-maximized="1"
     inkscape:current-layer="layer1"
     showgrid="false"><inkscape:grid
       id="grid6"
       units="px"
       originx="0"
       originy="0"
       spacingx="0.26458333"
       spacingy="0.26458333"
       empcolor="#0099e5"
       empopacity="0.30196078"
       color="#0099e5"
       opacity="0.14901961"
       empspacing="5"
       dotted="false"
       gridanglex="30"
       gridanglez="30"
       visible="false" /></sodipodi:namedview><defs
     id="defs1"><clipPath
       clipPathUnits="userSpaceOnUse"
       id="clipPath62542"><path
         d="m 36,36 1818,0 0,1818 -1818,0 0,-1818 z"
         id="path62544"
         inkscape:connector-curvature="0" /></clipPath></defs><g
     inkscape:label="Layer 1"
     inkscape:groupmode="layer"
     id="layer1"
     transform="translate(-105.83333,-79.904152)"><rect
       style="fill:#ffffff;stroke-width:0.264581;stroke-linecap:round;stroke-linejoin:round"
       id="rect2"
       width="7.4082875"
       height="7.4082775"
       x="105.83333"
       y="79.904152" /><g
       id="g62540"
       clip-path="url(#clipPath62542)"
       transform="matrix(0.04632104,0,0,-0.04632104,103.05367,166.22251)"><g
         id="g62546"
         transform="translate(117.058,1779.6034)"><path
           d="m 0,0 c 0,-10.322 8.264,-18.721 18.421,-18.721 h 5.224 v 10.696 h -5.224 c -4.257,0 -7.719,3.601 -7.719,8.025 0,4.432 3.462,8.031 7.719,8.031 4.249,0 7.712,-3.599 7.712,-8.031 V -18.937 H 36.83 V 0 c 0,10.332 -8.26,18.735 -18.409,18.735 C 8.264,18.735 0,10.332 0,0"
           style="fill:#4d2587;fill-opacity:1;fill-rule:nonzero;stroke:none"
           id="path62548"
           inkscape:connector-curvature="0" /></g><g
         id="g62550"
         transform="translate(174.8042,1798.3386)"><path
           d="m 0,0 c -2.749,0 -5.363,-0.626 -7.712,-1.728 v 2.467 h -10.7 v -19.474 -0.44 -18.498 h 10.7 v 18.802 0.136 c 0,4.432 3.464,8.031 7.712,8.031 0.332,0 1.103,-0.005 1.927,-0.016 v 10.7 C 0.873,0 0.021,0 0,0"
           style="fill:#4d2587;fill-opacity:1;fill-rule:nonzero;stroke:none"
           id="path62552"
           inkscape:connector-curvature="0" /></g><g
         id="g62554"
         transform="translate(167.0521,1758.306)"><path
           d="M 0,0 -11.914,-13.834 -23.821,0 Z"
           style="fill:#f9a721;fill-opacity:1;fill-rule:nonzero;stroke:none"
           id="path62556"
           inkscape:connector-curvature="0" /></g><g
         id="g62558"
         transform="translate(95.9034,1771.7189)"><path
           d="m 0,0 c -4.372,0 -7.938,3.557 -7.938,7.934 0,4.37 3.566,7.933 7.938,7.933 4.37,0 7.932,-3.563 7.932,-7.933 C 7.932,3.557 4.37,0 0,0 m 18.744,8.343 h 0.014 l 0.254,44.18 H 7.982 V 24.909 c -2.42,1.139 -5.13,1.783 -7.982,1.783 -10.344,0 -18.759,-8.41 -18.759,-18.758 0,-10.343 8.415,-18.765 18.759,-18.765 10.341,0 18.758,8.422 18.758,18.765 0,0.138 -0.007,0.276 -0.014,0.409"
           style="fill:#4d2587;fill-opacity:1;fill-rule:nonzero;stroke:none"
           id="path62560"
           inkscape:connector-curvature="0" /></g><g
         id="g62562"
         transform="translate(199.126,1771.123)"><path
           d="m 0,0 c -5.195,0 -9.419,4.22 -9.419,9.415 v 6.692 h 6.693 V 26.956 H -9.419 V 35.89 H -20.244 V 9.415 c 0,-11.168 9.079,-20.252 20.244,-20.252"
           style="fill:#4d2587;fill-opacity:1;fill-rule:nonzero;stroke:none"
           id="path62564"
           inkscape:connector-curvature="0" /></g><g
         id="g62566"
         transform="translate(201.5102,1775.0416)"><path
           d="M 0,0 12.72,-9.272 0.007,-18.531 Z"
           style="fill:#f9a721;fill-opacity:1;fill-rule:nonzero;stroke:none"
           id="path62568"
           inkscape:connector-curvature="0" /></g></g></g></svg>
