<?xml version="1.0" encoding="UTF-8" standalone="no"?>
<!-- Created with Inkscape (http://www.inkscape.org/) -->

<svg
   width="27.999826"
   height="27.999788"
   viewBox="0 0 7.4082874 7.4082773"
   version="1.1"
   id="svg1"
   inkscape:version="1.3 (0e150ed6c4, 2023-07-21)"
   sodipodi:docname="busradar.svg"
   xml:space="preserve"
   xmlns:inkscape="http://www.inkscape.org/namespaces/inkscape"
   xmlns:sodipodi="http://sodipodi.sourceforge.net/DTD/sodipodi-0.dtd"
   xmlns="http://www.w3.org/2000/svg"
   xmlns:svg="http://www.w3.org/2000/svg"><sodipodi:namedview
     id="namedview1"
     pagecolor="#ffffff"
     bordercolor="#000000"
     borderopacity="0.25"
     inkscape:showpageshadow="2"
     inkscape:pageopacity="0.0"
     inkscape:pagecheckerboard="0"
     inkscape:deskcolor="#d1d1d1"
     inkscape:document-units="px"
     inkscape:zoom="22.627417"
     inkscape:cx="38.493126"
     inkscape:cy="0.79549514"
     inkscape:window-width="1920"
     inkscape:window-height="1011"
     inkscape:window-x="0"
     inkscape:window-y="0"
     inkscape:window-maximized="1"
     inkscape:current-layer="layer1"
     showgrid="false"><inkscape:grid
       id="grid6"
       units="px"
       originx="0"
       originy="0"
       spacingx="0.26458333"
       spacingy="0.26458333"
       empcolor="#0099e5"
       empopacity="0.30196078"
       color="#0099e5"
       opacity="0.14902"
       empspacing="5"
       dotted="false"
       gridanglex="30"
       gridanglez="30"
       visible="false" /></sodipodi:namedview><defs
     id="defs1" /><g
     inkscape:label="Layer 1"
     inkscape:groupmode="layer"
     id="layer1"
     transform="translate(-105.83333,-79.904152)"><rect
       style="fill:#f80000;fill-opacity:1;stroke-width:0.264581;stroke-linecap:round;stroke-linejoin:round"
       id="rect2"
       width="7.4082875"
       height="7.4082775"
       x="105.83333"
       y="79.904152"
       rx="1.5875" /><path
       style="fill:#ffffff;stroke-width:0.0497694"
       d="m 110.33911,86.694404 c 0.98835,-0.25596 1.83704,-1.019647 2.1845,-1.965716 0.15199,-0.413814 0.17916,-0.581325 0.17894,-1.102911 -3e-4,-0.69215 -0.0996,-1.069163 -0.43402,-1.648023 -0.21004,-0.363528 -0.73776,-0.888872 -1.11355,-1.108526 -1.39873,-0.817566 -3.18083,-0.456605 -4.16648,0.843913 -0.19188,0.253163 -0.44682,0.781948 -0.53804,1.115932 -0.10228,0.374486 -0.10441,1.156047 -0.004,1.534431 0.32138,1.213282 1.24018,2.098221 2.45693,2.366403 0.37852,0.08343 1.03979,0.06708 1.43589,-0.0355 z m -1.31074,-0.247946 c -0.76401,-0.138238 -1.4491,-0.589293 -1.88537,-1.241267 -0.25643,-0.38324 -0.39871,-0.781355 -0.47409,-1.326499 l -0.0215,-0.155012 h 0.29571 0.29569 v -0.130538 -0.130538 h -0.29308 -0.29308 l 0.0183,-0.155012 c 0.0821,-0.691794 0.38006,-1.290447 0.88309,-1.774508 0.46745,-0.449801 1.02031,-0.7097 1.68352,-0.791401 0.17683,-0.02178 0.16575,-0.04534 0.15562,0.330471 l -0.007,0.236598 h 0.14973 0.14973 V 81.013921 80.71909 l 0.17134,0.02182 c 0.46641,0.05939 0.94121,0.237984 1.31976,0.496415 0.21101,0.144064 0.57228,0.50069 0.73065,0.721267 0.23686,0.329915 0.44185,0.876318 0.49995,1.332687 l 0.0219,0.171328 h -0.2948 -0.29483 v 0.130538 0.130538 h 0.2969 0.29692 l -0.0233,0.203963 c -0.0945,0.826114 -0.57071,1.610455 -1.26059,2.076049 -0.34991,0.236143 -0.86497,0.427213 -1.27612,0.473386 l -0.18764,0.02107 v -0.293993 -0.293992 h -0.14687 -0.14684 v 0.293708 c 0,0.336389 0.033,0.314473 -0.36438,0.242584 z m -0.32762,-1.229767 0.01,-0.22028 h 0.86332 0.86331 v 0.228439 0.228438 h 0.22843 0.22844 V 85.22485 84.996411 h 0.14721 0.14721 l -0.009,-1.378792 -0.009,-1.378791 -0.17949,-0.08823 c -0.0987,-0.04853 -0.31165,-0.121404 -0.4732,-0.161942 -0.25525,-0.06405 -0.37914,-0.07383 -0.94638,-0.0746 -0.69639,-9.28e-4 -0.99512,0.0451 -1.38745,0.213881 -0.26528,0.114117 -0.2392,-0.211048 -0.22802,2.842123 4e-5,0.01236 0.0625,0.02712 0.13879,0.03263 l 0.13865,0.01009 0.006,0.163171 c 0.003,0.08974 0.007,0.189541 0.009,0.221771 0.001,0.05136 0.0296,0.05741 0.22265,0.04895 l 0.22027,-0.0097 z m 1.84424,-0.547239 c -0.10484,-0.04181 -0.18008,-0.17283 -0.15547,-0.270915 0.072,-0.287064 0.47175,-0.250551 0.47175,0.0431 0,0.17741 -0.15771,0.291016 -0.31628,0.22782 z m -2.2268,-0.08536 c -0.0774,-0.09846 -0.0824,-0.139616 -0.0305,-0.253512 0.0459,-0.100635 0.19653,-0.158815 0.30475,-0.117668 0.14412,0.05479 0.19269,0.247754 0.0969,0.38464 -0.0761,0.108661 -0.28085,0.101245 -0.37107,-0.0135 z m -0.0676,-1.169305 c 0,-0.533655 6.5e-4,-0.538508 0.0793,-0.589987 0.0696,-0.04556 0.22491,-0.05065 1.27113,-0.04155 0.83712,0.0072 1.203,0.02145 1.22914,0.04762 0.025,0.02499 0.0366,0.212963 0.0356,0.571097 l -10e-4,0.533841 -1.30678,0.0085 -1.30678,0.0085 z m 0.58741,-1.078049 v -0.146854 l 0.72611,1.5e-4 0.72611,1.5e-4 0.009,0.146692 0.009,0.146692 h -0.73457 -0.73457 z"
       id="path4"
       sodipodi:nodetypes="ccssccscscccccccccccccccccccccssccccccccccsccccccscccccccccccccccccsccscccccccscsssccsccccccccccccccccccccc" /></g><style
     type="text/css"
     id="style1">&#10;	.st0{clip-path:url(#SVGID_2_);fill:#005091;}&#10;	.st1{clip-path:url(#SVGID_4_);fill:#005091;}&#10;	.st2{clip-path:url(#SVGID_4_);fill:#E2001A;}&#10;	.st3{clip-path:url(#SVGID_6_);fill:#E2001A;}&#10;	.st4{clip-path:url(#SVGID_6_);fill:#005091;}&#10;</style></svg>
