<?xml version="1.0" encoding="UTF-8" standalone="no"?>
<!-- Created with Inkscape (http://www.inkscape.org/) -->

<svg
   width="27.999826"
   height="27.999788"
   viewBox="0 0 7.4082874 7.4082773"
   version="1.1"
   id="svg1"
   inkscape:version="1.3 (0e150ed6c4, 2023-07-21)"
   sodipodi:docname="insa.svg"
   xml:space="preserve"
   xmlns:inkscape="http://www.inkscape.org/namespaces/inkscape"
   xmlns:sodipodi="http://sodipodi.sourceforge.net/DTD/sodipodi-0.dtd"
   xmlns="http://www.w3.org/2000/svg"
   xmlns:svg="http://www.w3.org/2000/svg"><sodipodi:namedview
     id="namedview1"
     pagecolor="#ffffff"
     bordercolor="#000000"
     borderopacity="0.25"
     inkscape:showpageshadow="2"
     inkscape:pageopacity="0.0"
     inkscape:pagecheckerboard="0"
     inkscape:deskcolor="#d1d1d1"
     inkscape:document-units="px"
     inkscape:zoom="16"
     inkscape:cx="17"
     inkscape:cy="4.625"
     inkscape:window-width="1920"
     inkscape:window-height="1011"
     inkscape:window-x="0"
     inkscape:window-y="0"
     inkscape:window-maximized="1"
     inkscape:current-layer="layer1"
     showgrid="true"><inkscape:grid
       id="grid6"
       units="px"
       originx="0"
       originy="0"
       spacingx="0.26458333"
       spacingy="0.26458333"
       empcolor="#0099e5"
       empopacity="0.30196078"
       color="#0099e5"
       opacity="0.14902"
       empspacing="5"
       dotted="false"
       gridanglex="30"
       gridanglez="30"
       visible="true" /></sodipodi:namedview><defs
     id="defs1">&#10;&#10;	&#10;&#10;	&#10;&#10;	&#10;&#10;	&#10;&#10;	&#10;&#10;	&#10;&#10;	&#10;&#10;	&#10;&#10;	&#10;&#10;	&#10;&#10;	&#10;&#10;	&#10;&#10;	&#10;&#10;	&#10;&#10;	&#10;&#10;	&#10;&#10;	&#10;&#10;	&#10;&#10;	&#10;&#10;	&#10;&#10;	&#10;&#10;	&#10;&#10;	&#10;&#10;	&#10;&#10;	&#10;&#10;	&#10;&#10;	&#10;&#10;	&#10;&#10;	&#10;&#10;	&#10;&#10;	&#10;&#10;&#10;&#10;	&#10;&#10;	&#10;&#10;	&#10;&#10;	&#10;&#10;	&#10;&#10;	&#10;&#10;	&#10;&#10;	&#10;&#10;</defs><g
     inkscape:label="Layer 1"
     inkscape:groupmode="layer"
     id="layer1"
     transform="translate(-105.83333,-79.904152)"><rect
       style="fill:#ffffff;fill-opacity:1;stroke-width:0.264581;stroke-linecap:round;stroke-linejoin:round"
       id="rect2"
       width="7.4082875"
       height="7.4082775"
       x="105.83333"
       y="79.904152"
       rx="1.5875" /><g
       id="g11"
       transform="matrix(0.46274821,0,0,0.46274821,59.033457,44.755852)"><path
         class="c"
         d="m 106.79377,83.711506 a 2.4421041,2.4421041 0 0 1 0.19843,-0.806979 l -1.35995,-0.809625 a 3.9502291,3.9502291 0 0 0 -0.42069,1.616604 z m 2.9501,2.450041 -0.0503,-0.03175 a 2.3045208,2.3045208 0 0 1 -2.30187,-0.6985 h -1.85209 a 3.8999583,3.8999583 0 0 0 5.12763,2.032 4.1010416,4.1010416 0 0 0 0.67468,-0.375708 z"
         id="path4"
         style="fill:#f39200;stroke-width:0.264583" /><path
         d="m 112.83156,82.626714 h -1.88119 c -0.0397,0 -0.84402,-0.07144 -1.29117,-0.164042 a 4.6593124,4.6593124 0 0 1 -1.21972,-0.595312 l -0.24871,-0.142875 -1.51871,-0.875771 -3.96346,-2.267479 -0.93133,1.008062 5.40808,3.2385 a 9.950979,9.950979 0 0 0 1.94998,0.957792 9.458854,9.458854 0 0 0 2.24896,0.238125 h 9.70491 l 1.41023,-1.397 z"
         fill="#de007e"
         id="path5"
         style="stroke-width:0.264583" /><path
         class="c"
         d="m 108.38127,81.647756 a 2.3495,2.3495 0 0 1 0.74083,-0.121709 2.3230416,2.3230416 0 0 1 1.87325,0.944563 h 1.778 a 3.8999583,3.8999583 0 0 0 -5.02708,-2.259542 3.9952083,3.9952083 0 0 0 -0.95515,0.529167 z"
         id="path6"
         style="fill:#f39200;stroke-width:0.264583" /><path
         d="m 112.47702,85.889027 -0.96573,-0.579438 -0.42069,-0.248708 a 10.414,10.414 0 0 0 -1.94998,-0.957792 9.7154999,9.7154999 0 0 0 -2.22779,-0.232833 h -9.718146 l -1.415521,1.415521 h 11.541127 c 0.0423,0 0.84402,0.07408 1.29646,0.166687 a 4.6249166,4.6249166 0 0 1 1.21443,0.595313 l 5.73088,3.291416 0.93133,-1.016 z"
         fill="#005ca9"
         id="path7"
         style="stroke-width:0.264583" /><path
         class="c"
         d="m 112.54581,85.748797 a 3.9422916,3.9422916 0 0 0 0.46037,-1.568979 h -1.5875 a 2.3389166,2.3389166 0 0 1 -0.24606,0.762 z"
         id="path8"
         style="fill:#f39200;stroke-width:0.264583" /></g></g><style
     type="text/css"
     id="style1">&#10;	.st0{clip-path:url(#SVGID_2_);fill:#005091;}&#10;	.st1{clip-path:url(#SVGID_4_);fill:#005091;}&#10;	.st2{clip-path:url(#SVGID_4_);fill:#E2001A;}&#10;	.st3{clip-path:url(#SVGID_6_);fill:#E2001A;}&#10;	.st4{clip-path:url(#SVGID_6_);fill:#005091;}&#10;</style><style
     type="text/css"
     id="style1-2">&#10;&#10;	.st0{fill:#004E92;}&#10;&#10;	.st1{fill:#00943D;}&#10;&#10;	.st2{fill:#666666;}&#10;&#10;</style></svg>
