<?xml version="1.0" encoding="UTF-8" standalone="no"?>
<!-- Created with Inkscape (http://www.inkscape.org/) -->

<svg
   width="27.999826"
   height="27.999788"
   viewBox="0 0 7.4082874 7.4082773"
   version="1.1"
   id="svg1"
   xml:space="preserve"
   xmlns="http://www.w3.org/2000/svg"
   xmlns:svg="http://www.w3.org/2000/svg"><defs
     id="defs1" /><g
     id="layer1"
     transform="translate(-105.83333,-79.904152)"><rect
       style="fill:#ffffff;fill-opacity:1;stroke-width:0.264581;stroke-linecap:round;stroke-linejoin:round"
       id="rect2"
       width="7.4082875"
       height="7.4082775"
       x="105.83333"
       y="79.904152"
       rx="1.5875" /><rect
       style="fill:none;fill-opacity:1;stroke:#575756;stroke-width:0.529166;stroke-linecap:round;stroke-linejoin:round;stroke-opacity:1"
       id="rect1"
       width="6.879118"
       height="6.8791108"
       x="106.09791"
       y="80.168732"
       rx="1.3228649"
       ry="1.3228649" /><g
       id="g30"
       transform="translate(-0.00733465)"><g
         id="g23"
         transform="matrix(0.08555946,0,0,0.08555946,105.3695,79.668026)"
         style="stroke-width:3.09239">
		<g
   id="g2"
   style="stroke-width:3.09239">
			<g
   id="g1"
   style="stroke-width:3.09239">
				<path
   class="st0"
   d="m 67.5,35.2 c -0.1,0 -0.1,0 0,0 -0.2,0 -0.2,-0.1 -0.2,-0.2 0,-0.3 0,-0.6 -0.1,-0.9 C 66.8,33 65.7,32.5 65.6,32.5 L 36.7,19.9 c -0.1,0 -0.2,-0.2 -0.1,-0.3 0,-0.1 0.2,-0.2 0.3,-0.1 L 68.7,28 c 0.6,0.1 1.4,0.6 1.7,1.4 0.3,0.9 0.1,2 -0.8,3.1 -0.8,1.1 -1.5,1.9 -2,2.6 0,0.1 -0.1,0.1 -0.1,0.1 z"
   id="path1"
   style="stroke-width:3.09239" />
			</g>
		</g>
		<g
   id="g20"
   style="stroke-width:3.09239">
			<g
   id="g3"
   style="stroke-width:3.09239">
				<path
   class="st0"
   d="m 63.1,40.9 c 0,0 0,0 0,0 -0.2,-0.1 -0.2,-0.1 -0.2,-0.2 0,-0.4 0,-0.9 -0.2,-1.3 -0.4,-1.1 -1.4,-1.5 -1.5,-1.6 L 38.4,27.5 c -0.1,0 -0.2,-0.2 -0.1,-0.3 0,-0.1 0.1,-0.2 0.3,-0.1 l 25.9,6.5 c 0.6,0.2 1.4,0.6 1.7,1.5 0.3,0.9 0,1.9 -0.8,3 -0.9,1.1 -1.5,2 -2,2.6 -0.1,0.1 -0.2,0.2 -0.3,0.2 z"
   id="path2"
   style="stroke-width:3.09239" />
			</g>
		</g>
		<g
   id="g22"
   style="stroke-width:3.09239">
			<g
   id="g21"
   style="stroke-width:3.09239">
				<path
   class="st0"
   d="m 59.3,45.9 c -0.1,0 -0.1,0 0,0 -0.2,0 -0.2,-0.1 -0.2,-0.2 0,-0.4 0,-0.7 -0.2,-1 C 58.4,43.5 57.2,43 57.1,43 L 40.3,35 c -0.1,0 -0.2,-0.2 -0.1,-0.3 0,-0.1 0.1,-0.2 0.3,-0.1 l 19.6,4.6 c 0.6,0.1 1.4,0.6 1.7,1.5 0.3,0.9 0.1,2 -0.8,3.1 -0.7,0.9 -1.2,1.5 -1.5,2 -0.1,0.1 -0.2,0.1 -0.2,0.1 z"
   id="path20"
   style="stroke-width:3.09239" />
			</g>
		</g>
	</g><g
         id="g25"
         transform="matrix(0.08555946,0,0,0.08555946,105.3695,79.668026)"
         style="stroke-width:3.09239">
		<g
   id="g24"
   style="stroke-width:3.09239">
			<path
   class="st0"
   d="m 26.6,67.7 h -6.4 c -0.1,0 -0.2,0 -0.2,-0.1 -0.1,-0.1 -0.1,-0.2 -0.1,-0.3 l 5.3,-19.5 c 0,-0.1 0.2,-0.2 0.3,-0.2 h 6.4 c 0.1,0 0.2,0 0.2,0.1 0.1,0.1 0.1,0.2 0.1,0.3 l -5.3,19.5 c 0,0.1 -0.2,0.2 -0.3,0.2 z"
   id="path23"
   style="stroke-width:3.09239" />
		</g>
	</g><g
         id="g27"
         transform="matrix(0.08555946,0,0,0.08555946,105.3695,79.668026)"
         style="stroke-width:3.09239">
		<g
   id="g26"
   style="stroke-width:3.09239">
			<path
   class="st0"
   d="m 44.3,67.7 h -8.2 c -0.1,0 -0.3,-0.1 -0.3,-0.3 L 32.5,47.9 c 0,-0.1 0,-0.2 0.1,-0.2 0.1,-0.1 0.1,-0.1 0.2,-0.1 h 6.4 c 0.2,0 0.3,0.1 0.3,0.3 l 1.7,14.9 h 0.1 l 10,-15 c 0.1,-0.1 0.2,-0.1 0.3,-0.1 h 6.8 c 0.1,0 0.2,0.1 0.3,0.2 0.1,0.1 0,0.2 0,0.3 L 44.6,67.5 c -0.1,0.1 -0.2,0.2 -0.3,0.2 z"
   id="path25"
   style="stroke-width:3.09239" />
		</g>
	</g><g
         id="g29"
         transform="matrix(0.08555946,0,0,0.08555946,105.3695,79.668026)"
         style="stroke-width:3.09239">
		<g
   id="g28"
   style="stroke-width:3.09239">
			<path
   class="st0"
   d="m 54,67.7 c -0.1,0 -0.2,0 -0.2,-0.1 -0.1,-0.1 -0.1,-0.2 -0.1,-0.3 L 59,47.8 c 0,-0.1 0.2,-0.2 0.3,-0.2 h 11.4 c 1.6,0 7,0.3 7,4.6 0,2.8 -2.4,4.7 -6.3,5.1 v 0 0.1 h 0.1 c 3.1,0.4 4.8,1.8 4.8,3.9 0,4.6 -5.6,6.3 -10.8,6.4 z m 7.7,-3.8 h 0.1 1.7 c 3.9,0 5.9,-0.9 5.9,-2.7 0,-1.7 -1.5,-2 -4.8,-2 H 63 c -0.1,0 -0.2,0.1 -0.2,0.1 l -1.2,4.4 c 0,0 0,0.1 0.1,0.2 z m 3.5,-12.5 c -0.2,0 -0.3,0.1 -0.3,0.2 l -1,3.7 c 0,0 0,0.1 0,0.1 0,0 0,0 0.1,0 h 2.5 c 2.9,0 4.6,-0.9 4.6,-2.3 0,-1.6 -1.6,-1.9 -4.3,-1.9 h -1.6 z"
   id="path27"
   style="stroke-width:3.09239" />
		</g>
	</g></g></g><style
     type="text/css"
     id="style1">
	.st0{fill:#575756;}
	.st1{fill-rule:evenodd;clip-rule:evenodd;fill:#575756;}
</style></svg>
