<?xml version="1.0" encoding="UTF-8" standalone="no"?>
<!-- Created with Inkscape (http://www.inkscape.org/) -->

<svg
   width="27.999826"
   height="27.999788"
   viewBox="0 0 7.4082874 7.4082773"
   version="1.1"
   id="svg1"
   xml:space="preserve"
   xmlns="http://www.w3.org/2000/svg"
   xmlns:svg="http://www.w3.org/2000/svg"><defs
     id="defs1" /><g
     id="layer1"
     transform="translate(-105.83333,-79.904152)"><rect
       style="fill:#e20023;fill-opacity:1;stroke-width:0.264581;stroke-linecap:round;stroke-linejoin:round"
       id="rect2"
       width="7.4082875"
       height="7.4082775"
       x="105.83333"
       y="79.904152"
       rx="1.5875" /><g
       id="g30"
       transform="translate(-0.00733465)" /><path
       style="fill:#ffffff;stroke-width:1"
       d="m 109.07365,86.224527 c -1.03258,-0.195749 -1.83378,-0.938805 -2.10605,-1.953239 -0.057,-0.21236 -0.0653,-0.293672 -0.066,-0.646913 -7.7e-4,-0.331334 0.009,-0.443166 0.0535,-0.621618 0.26533,-1.061553 1.10319,-1.828952 2.18921,-2.005096 0.28912,-0.0469 0.49658,-0.0469 0.7857,0 1.08757,0.176395 1.92092,0.939493 2.18971,2.005096 0.0455,0.180175 0.0546,0.287084 0.0535,0.621618 -0.001,0.351579 -0.0104,0.435551 -0.0665,0.646913 -0.25779,0.962643 -0.98466,1.677474 -1.95086,1.918543 -0.27443,0.06848 -0.81299,0.08574 -1.08227,0.0347 z m 1.0949,-0.614008 c 0.92501,-0.302574 1.50141,-1.132103 1.45801,-2.098297 -0.0417,-0.929285 -0.65576,-1.679589 -1.58432,-1.936014 -0.22906,-0.06326 -0.78088,-0.06326 -1.00994,0 -0.71291,0.196874 -1.25177,0.690773 -1.47739,1.354139 -0.0346,0.101878 -0.063,0.200277 -0.063,0.218676 0,0.02734 0.2356,0.03345 1.28782,0.03345 0.88117,0 1.28782,-0.0083 1.28782,-0.02646 0,-0.01456 -0.10796,-0.212572 -0.2399,-0.440033 -0.13193,-0.227462 -0.23988,-0.422928 -0.23989,-0.43437 0,-0.01143 0.20068,-0.01851 0.44595,-0.01571 l 0.44594,0.0051 0.38674,0.671426 0.38673,0.671428 -0.60957,0.731233 -0.60956,0.731237 h -0.50087 c -0.27548,0 -0.50088,-0.0053 -0.50088,-0.01174 0,-0.0064 0.18181,-0.228789 0.40402,-0.494061 0.22221,-0.265272 0.40402,-0.487249 0.40402,-0.493278 0,-0.006 -0.52928,-0.01097 -1.17619,-0.01097 h -1.17619 l 0.0174,0.08207 c 0.0653,0.309223 0.32314,0.736296 0.59855,0.991295 0.43726,0.404833 0.89199,0.574423 1.49664,0.55817 0.28448,-0.0076 0.36026,-0.01928 0.56815,-0.08729 z"
       id="path30" /></g><style
     type="text/css"
     id="style1">
	.st0{fill:#575756;}
	.st1{fill-rule:evenodd;clip-rule:evenodd;fill:#575756;}
</style></svg>
