<?xml version="1.0" encoding="UTF-8" standalone="no"?>
<!-- Created with Inkscape (http://www.inkscape.org/) -->

<svg
   width="27.999826"
   height="27.999788"
   viewBox="0 0 7.4082874 7.4082773"
   version="1.1"
   id="svg1"
   inkscape:version="1.3 (0e150ed6c4, 2023-07-21)"
   sodipodi:docname="nah.svg"
   xml:space="preserve"
   xmlns:inkscape="http://www.inkscape.org/namespaces/inkscape"
   xmlns:sodipodi="http://sodipodi.sourceforge.net/DTD/sodipodi-0.dtd"
   xmlns="http://www.w3.org/2000/svg"
   xmlns:svg="http://www.w3.org/2000/svg"><sodipodi:namedview
     id="namedview1"
     pagecolor="#ffffff"
     bordercolor="#000000"
     borderopacity="0.25"
     inkscape:showpageshadow="2"
     inkscape:pageopacity="0.0"
     inkscape:pagecheckerboard="0"
     inkscape:deskcolor="#d1d1d1"
     inkscape:document-units="px"
     inkscape:zoom="16"
     inkscape:cx="-4.5"
     inkscape:cy="15.5"
     inkscape:window-width="1920"
     inkscape:window-height="1011"
     inkscape:window-x="0"
     inkscape:window-y="0"
     inkscape:window-maximized="1"
     inkscape:current-layer="layer1"
     showgrid="true"><inkscape:grid
       id="grid6"
       units="px"
       originx="0"
       originy="0"
       spacingx="0.26458333"
       spacingy="0.26458333"
       empcolor="#0099e5"
       empopacity="0.30196078"
       color="#0099e5"
       opacity="0.14902"
       empspacing="5"
       dotted="false"
       gridanglex="30"
       gridanglez="30"
       visible="true" /></sodipodi:namedview><defs
     id="defs1"><clipPath
       clipPathUnits="userSpaceOnUse"
       id="clipPath62542"><path
         d="m 36,36 1818,0 0,1818 -1818,0 0,-1818 z"
         id="path62544"
         inkscape:connector-curvature="0" /></clipPath><inkscape:perspective
       sodipodi:type="inkscape:persp3d"
       inkscape:vp_x="0 : 526.18109 : 1"
       inkscape:vp_y="0 : 1000 : 0"
       inkscape:vp_z="744.09448 : 526.18109 : 1"
       inkscape:persp3d-origin="372.04724 : 350.78739 : 1"
       id="perspective10" /><clipPath
       id="clipPath3238"
       clipPathUnits="userSpaceOnUse"><path
         id="path3240"
         d="M 0,0 L 850.392,0 L 850.392,1190.547 L 0,1190.547 L 0,0 z" /></clipPath><clipPath
       id="clipPath3224"
       clipPathUnits="userSpaceOnUse"><path
         id="path3226"
         d="M 645.489,1112.151 L 638.505,1086.084 L 711.297,1066.581 L 716.838,1087.26 L 735.489,1156.869 L 686.75,1169.933 L 662.698,1176.378 L 645.489,1112.151 z" /></clipPath><clipPath
       id="clipPath3210"
       clipPathUnits="userSpaceOnUse"><path
         id="path3212"
         d="M 636.363,1055.925 L 743.877,1055.925 L 743.877,1175.931 L 636.363,1175.931 L 636.363,1055.925 z" /></clipPath><clipPath
       id="clipPath3198"
       clipPathUnits="userSpaceOnUse"><path
         id="path3200"
         d="M 0,0 L 850.392,0 L 850.392,1190.547 L 0,1190.547 L 0,0 z" /></clipPath><clipPath
       id="clipPath3184"
       clipPathUnits="userSpaceOnUse"><path
         id="path3186"
         d="M 335.314,708.096 L 311.814,620.38 L 325.804,616.631 L 363.186,606.618 L 379.305,666.762 L 387.996,699.198 L 360.362,706.603 L 336.618,712.962 L 335.314,708.096 z" /></clipPath><clipPath
       id="clipPath3170"
       clipPathUnits="userSpaceOnUse"><path
         id="path3172"
         d="M 309.672,595.872 L 396.072,595.872 L 396.072,712.512 L 309.672,712.512 L 309.672,595.872 z" /></clipPath><clipPath
       id="clipPath3156"
       clipPathUnits="userSpaceOnUse"><path
         id="path3158"
         d="M 116.64,647.64 L 178.037,647.64 L 178.037,668.736 L 116.64,668.736 L 116.64,647.64 z" /></clipPath><clipPath
       id="clipPath3142"
       clipPathUnits="userSpaceOnUse"><path
         id="path3144"
         d="M 52.56,647.523 L 110.129,647.523 L 110.129,669.447 L 52.56,669.447 L 52.56,647.523 z" /></clipPath><clipPath
       id="clipPath2742"
       clipPathUnits="userSpaceOnUse"><path
         id="path2744"
         d="M 0,0 L 850.392,0 L 850.392,1190.547 L 0,1190.547 L 0,0 z" /></clipPath><clipPath
       id="clipPath2730"
       clipPathUnits="userSpaceOnUse"><path
         id="path2732"
         d="M 0,594.909 L 283.464,594.909 L 283.464,1190.547 L 0,1190.547 L 0,594.909 z" /></clipPath><clipPath
       id="clipPath2716"
       clipPathUnits="userSpaceOnUse"><path
         id="path2718"
         d="M 0,595.278 L 283.464,595.278 L 283.464,1190.547 L 0,1190.547 L 0,595.278 z" /></clipPath><clipPath
       id="clipPath2702"
       clipPathUnits="userSpaceOnUse"><path
         id="path2704"
         d="M 296.217,388.323 L 837.063,388.323 L 837.063,1176.381 L 296.217,1176.381 L 296.217,388.323 z M 636.363,1175.931 L 743.877,1175.931 L 743.877,1055.925 L 636.363,1055.925 L 636.363,1175.931 z M 309.672,712.512 L 396.072,712.512 L 396.072,595.872 L 309.672,595.872 L 309.672,712.512 z" /></clipPath><clipPath
       id="clipPath2666"
       clipPathUnits="userSpaceOnUse"><path
         id="path2668"
         d="M 0,0 L 850.392,0 L 850.392,1190.547 L 0,1190.547 L 0,0 z" /></clipPath><clipPath
       id="clipPath2652"
       clipPathUnits="userSpaceOnUse"><path
         id="path2654"
         d="M 297.639,13.464 L 835.478,13.464 L 835.478,366.984 L 297.639,366.984 L 297.639,13.464 z" /></clipPath><clipPath
       id="clipPath2418"
       clipPathUnits="userSpaceOnUse"><path
         id="path2420"
         d="M 0,0 L 850.392,0 L 850.392,1190.547 L 0,1190.547 L 0,0 z" /></clipPath><inkscape:perspective
       id="perspective2410"
       inkscape:persp3d-origin="372.04724 : 350.78739 : 1"
       inkscape:vp_z="744.09448 : 526.18109 : 1"
       inkscape:vp_y="0 : 1000 : 0"
       inkscape:vp_x="0 : 526.18109 : 1"
       sodipodi:type="inkscape:persp3d" /><style
       id="style1-3">.cls-1{fill:#ec008c;}</style><style
       id="style1-7">.cls-1{fill:#ec008c;}</style></defs><g
     inkscape:label="Layer 1"
     inkscape:groupmode="layer"
     id="layer1"
     transform="translate(-105.83333,-79.904152)"><rect
       style="fill:#003064;stroke-width:0.264581;stroke-linecap:round;stroke-linejoin:round;fill-opacity:1"
       id="rect2"
       width="7.4082875"
       height="7.4082775"
       x="105.83333"
       y="79.904152" /><path
       id="path26"
       d="m 106.83666,80.962457 c -0.11931,0 -0.21549,0.09445 -0.21549,0.214104 0,0.120185 0.0962,0.214658 0.21549,0.214658 0.11877,0 0.21522,-0.09447 0.21522,-0.214658 0,-0.119656 -0.0964,-0.214104 -0.21522,-0.214104 z m 0,0.538443 c -0.11931,0 -0.21549,0.09713 -0.21549,0.216599 0,0.117882 0.0962,0.214381 0.21549,0.214381 0.11877,0 0.21522,-0.0965 0.21522,-0.214381 0,-0.119477 -0.0964,-0.216599 -0.21522,-0.216599 z m 0.54066,0 c -0.11983,0 -0.21716,0.09713 -0.21716,0.216599 10e-4,0.117882 0.0973,0.214381 0.21716,0.214381 0.11752,0 0.21494,-0.0965 0.21494,-0.214381 0,-0.119477 -0.0975,-0.216599 -0.21494,-0.216599 z m 0.53899,0 c -0.1177,0 -0.2141,0.09713 -0.2141,0.216599 0,0.117882 0.0964,0.214381 0.2141,0.214381 0.11948,0 0.21526,-0.0965 0.21633,-0.214381 0,-0.119477 -0.0969,-0.216599 -0.21633,-0.216599 z m 0.54012,0 c -0.11842,0 -0.21445,0.09713 -0.21605,0.216599 0.001,0.117882 0.0977,0.214381 0.21605,0.214381 0.11965,0 0.21497,-0.0965 0.21604,-0.214381 0,-0.119477 -0.0963,-0.216599 -0.21604,-0.216599 z m 0.53982,0 c -0.11716,0 -0.21387,0.09713 -0.21493,0.216599 0.001,0.117882 0.0978,0.214381 0.21493,0.214381 0.11895,0 0.21688,-0.0965 0.21688,-0.214381 0,-0.119477 -0.0979,-0.216599 -0.21688,-0.216599 z m 0.54177,0 c -0.11983,0 -0.21715,0.09713 -0.21715,0.216599 0,0.117882 0.0973,0.214381 0.21715,0.214381 0.11771,0 0.21438,-0.0965 0.21438,-0.214381 0,-0.119477 -0.0967,-0.216599 -0.21438,-0.216599 z m -2.70136,0.539554 c -0.11931,0 -0.21549,0.0972 -0.21549,0.21632 0,0.119299 0.0962,0.216598 0.21549,0.216598 0.11877,0 0.21522,-0.09731 0.21522,-0.216598 0,-0.119123 -0.0964,-0.21632 -0.21522,-0.21632 z m 1.07965,0 c -0.1177,0 -0.2141,0.0972 -0.2141,0.21632 0,0.119299 0.0964,0.216598 0.2141,0.216598 0.11948,0 0.21633,-0.09731 0.21633,-0.216598 0,-0.119123 -0.0969,-0.21632 -0.21633,-0.21632 z m 0.54012,0 c -0.11842,0 -0.21605,0.0972 -0.21605,0.21632 0.001,0.119299 0.0977,0.216598 0.21605,0.216598 0.11965,0 0.21604,-0.09731 0.21604,-0.216598 0,-0.119123 -0.0963,-0.21632 -0.21604,-0.21632 z m 0.53982,0 c -0.11716,0 -0.21493,0.0972 -0.21493,0.21632 0,0.119299 0.0978,0.216598 0.21493,0.216598 0.11895,0 0.21688,-0.09731 0.21688,-0.216598 0,-0.119123 -0.0979,-0.21632 -0.21688,-0.21632 z m 0.54177,0 c -0.11983,0 -0.21715,0.0972 -0.21715,0.21632 0,0.119299 0.0973,0.216598 0.21715,0.216598 0.11771,0 0.21438,-0.09731 0.21438,-0.216598 0,-0.119123 -0.0967,-0.21632 -0.21438,-0.21632 z m 0.539,0 c -0.11842,0 -0.21494,0.0972 -0.21494,0.21632 0,0.119299 0.0966,0.216598 0.21494,0.216598 0.1193,0 0.21576,-0.09731 0.21576,-0.216598 0,-0.119123 -0.0964,-0.21632 -0.21576,-0.21632 z m -2.16071,0.541213 c -0.1177,0 -0.2141,0.09674 -0.2141,0.216043 0,0.118768 0.0964,0.213827 0.2141,0.213827 0.11948,0 0.21633,-0.09506 0.21633,-0.213827 0,-0.1193 -0.0969,-0.216043 -0.21633,-0.216043 z m 0.54012,0 c -0.11842,0 -0.21605,0.09674 -0.21605,0.216043 0,0.118768 0.0977,0.213827 0.21605,0.213827 0.11965,0 0.21604,-0.09506 0.21604,-0.213827 0,-0.1193 -0.0963,-0.216043 -0.21604,-0.216043 z m 0.53982,0 c -0.11716,0 -0.21493,0.09674 -0.21493,0.216043 0,0.118768 0.0978,0.213827 0.21493,0.213827 0.11895,0 0.21688,-0.09506 0.21688,-0.213827 0,-0.1193 -0.0979,-0.216043 -0.21688,-0.216043 z m 0.54177,0 c -0.11983,0 -0.21715,0.09674 -0.21715,0.216043 0,0.118768 0.0973,0.213827 0.21715,0.213827 0.11771,0 0.21438,-0.09506 0.21438,-0.213827 0,-0.1193 -0.0967,-0.216043 -0.21438,-0.216043 z m 2.6997,0 c -0.1193,0 -0.21466,0.09674 -0.21466,0.216043 0,0.118768 0.0954,0.213827 0.21466,0.213827 0.12037,0 0.21605,-0.09506 0.21605,-0.213827 0,-0.1193 -0.0957,-0.216043 -0.21605,-0.216043 z m -4.8604,0.539553 c -0.11983,0.0016 -0.21716,0.09901 -0.21716,0.217427 0,0.118768 0.0973,0.215213 0.21716,0.215213 0.11859,0 0.21494,-0.09644 0.21494,-0.215213 0,-0.118413 -0.0963,-0.215831 -0.21494,-0.217427 z m 0.53899,0 c -0.1177,0.0016 -0.2141,0.09901 -0.2141,0.217427 0,0.118768 0.0964,0.215213 0.2141,0.215213 0.11948,0 0.21522,-0.09644 0.21522,-0.215213 0,-0.118413 -0.0958,-0.215831 -0.21522,-0.217427 z m 0.54012,0 c -0.11842,0.0016 -0.21445,0.09901 -0.21605,0.217427 0.001,0.118768 0.0977,0.215213 0.21605,0.215213 0.11965,0 0.21497,-0.09644 0.21604,-0.215213 0,-0.118413 -0.0963,-0.215831 -0.21604,-0.217427 z m 0.53982,0 c -0.11716,0.0016 -0.21493,0.09901 -0.21493,0.217427 0,0.118768 0.0978,0.215213 0.21493,0.215213 0.11895,0 0.21688,-0.09644 0.21688,-0.215213 0,-0.118413 -0.0979,-0.215831 -0.21688,-0.217427 z m 0.54177,0 c -0.11983,0.0016 -0.21715,0.09901 -0.21715,0.217427 0,0.118768 0.0973,0.215213 0.21715,0.215213 0.11771,0 0.21438,-0.09644 0.21438,-0.215213 0,-0.118413 -0.0967,-0.215831 -0.21438,-0.217427 z m 0.539,0 c -0.11842,0.0016 -0.2144,0.09901 -0.21494,0.217427 5.1e-4,0.118768 0.0966,0.215213 0.21494,0.215213 0.1193,0 0.21576,-0.09644 0.21576,-0.215213 0,-0.118413 -0.0964,-0.215831 -0.21576,-0.217427 z m 0.54011,0 c -0.11824,0.0016 -0.21495,0.09901 -0.21495,0.217427 0,0.118768 0.0967,0.215213 0.21495,0.215213 0.11983,0 0.21508,-0.09644 0.21632,-0.215213 -0.001,-0.118413 -0.0964,-0.215831 -0.21632,-0.217427 z m 0.54038,0 c -0.11966,0.0016 -0.21603,0.09901 -0.21603,0.217427 0,0.118768 0.0963,0.215213 0.21603,0.215213 0.11965,0 0.21525,-0.09644 0.21633,-0.215213 -0.001,-0.118413 -0.0967,-0.215831 -0.21633,-0.217427 z m 0.54039,0 c -0.11983,0.0016 -0.21518,0.09901 -0.2166,0.217427 10e-4,0.118768 0.0968,0.215213 0.2166,0.215213 0.11912,0 0.21604,-0.09644 0.21604,-0.215213 0,-0.118413 -0.0969,-0.215831 -0.21604,-0.217427 z m -3.78159,0.542321 c -0.1177,0 -0.2141,0.09418 -0.2141,0.213828 0,0.119124 0.0964,0.216596 0.2141,0.216596 0.11948,0 0.21633,-0.09712 0.21633,-0.216596 0,-0.119655 -0.0969,-0.213828 -0.21633,-0.213828 z m 0.54039,0 c -0.11859,0 -0.21493,0.09418 -0.21493,0.213828 0,0.119124 0.0963,0.216596 0.21493,0.216596 0.11966,0 0.21577,-0.09712 0.21577,-0.216596 -5.1e-4,-0.119655 -0.0961,-0.213828 -0.21577,-0.213828 z m 0.53955,0 c -0.11716,0 -0.21493,0.09418 -0.21493,0.213828 0,0.119124 0.0978,0.216596 0.21493,0.216596 0.11895,0 0.21688,-0.09747 0.21688,-0.216596 0,-0.119655 -0.0979,-0.213828 -0.21688,-0.213828 z m 0.54177,0 c -0.11983,0 -0.21715,0.09418 -0.21715,0.213828 0,0.119124 0.0973,0.216596 0.21715,0.216596 0.11771,0 0.21438,-0.09747 0.21438,-0.216596 0,-0.119655 -0.0967,-0.213828 -0.21438,-0.213828 z m 0.539,0 c -0.11842,0 -0.21494,0.09418 -0.21494,0.213828 0,0.119124 0.0966,0.216596 0.21494,0.216596 0.1193,0 0.21605,-0.09747 0.21605,-0.216596 0,-0.119655 -0.0968,-0.213828 -0.21605,-0.213828 z m 0.54011,0 c -0.1193,0 -0.21495,0.09418 -0.21495,0.213828 0,0.119477 0.0957,0.216596 0.21495,0.216596 0.11983,0 0.21508,-0.09747 0.21632,-0.216596 -0.001,-0.119655 -0.0964,-0.213828 -0.21632,-0.213828 z m 0.54038,0 c -0.11966,0 -0.21603,0.09418 -0.21603,0.213828 0,0.119124 0.0963,0.216596 0.21603,0.216596 0.11965,0 0.21633,-0.09747 0.21633,-0.216596 0,-0.119655 -0.0967,-0.213828 -0.21633,-0.213828 z m 0.54039,0 c -0.11913,0 -0.2166,0.09418 -0.2166,0.213828 0,0.119124 0.0975,0.216596 0.2166,0.216596 0.11912,0 0.21604,-0.09747 0.21604,-0.216596 0,-0.119655 -0.0969,-0.213828 -0.21604,-0.213828 z m -3.78159,0.539554 c -0.1177,0 -0.2141,0.09581 -0.2141,0.214935 0,0.1193 0.0964,0.216597 0.2141,0.216597 0.11948,0 0.21633,-0.09731 0.21633,-0.216597 0,-0.119123 -0.0969,-0.214935 -0.21633,-0.214935 z m 0.54039,0 c -0.11859,0 -0.21493,0.09581 -0.21493,0.214935 0,0.1193 0.0963,0.216597 0.21493,0.216597 0.11966,0 0.21577,-0.09731 0.21577,-0.216597 0,-0.119123 -0.0961,-0.214935 -0.21577,-0.214935 z m 0.53955,0 c -0.11716,0 -0.21493,0.09581 -0.21493,0.214935 0,0.1193 0.0978,0.216597 0.21493,0.216597 0.11895,0 0.21688,-0.09731 0.21688,-0.216597 0,-0.119123 -0.0979,-0.214935 -0.21688,-0.214935 z m 0.54177,0 c -0.11983,0 -0.21715,0.09581 -0.21715,0.214935 0,0.1193 0.0973,0.216597 0.21715,0.216597 0.11771,0 0.21438,-0.09731 0.21438,-0.216597 0,-0.119123 -0.0967,-0.214935 -0.21438,-0.214935 z m 0.539,0 c -0.11842,0 -0.21494,0.09581 -0.21494,0.214935 0,0.1193 0.0966,0.216597 0.21494,0.216597 0.1193,0 0.21576,-0.09731 0.21576,-0.216597 0,-0.119123 -0.0964,-0.214935 -0.21576,-0.214935 z m 0.54011,0 c -0.11824,0 -0.21495,0.09581 -0.21495,0.214935 0,0.1193 0.0967,0.216597 0.21495,0.216597 0.11983,0 0.21508,-0.09731 0.21632,-0.216597 -0.001,-0.119123 -0.0964,-0.214935 -0.21632,-0.214935 z m 0.54038,0 c -0.11966,0 -0.21603,0.09581 -0.21603,0.214935 0,0.1193 0.0963,0.216597 0.21603,0.216597 0.11965,0 0.21633,-0.09731 0.21633,-0.216597 0,-0.119123 -0.0967,-0.214935 -0.21633,-0.214935 z m -2.16126,0.540108 c -0.11716,0 -0.21493,0.09721 -0.21493,0.214378 0,0.119832 0.0978,0.216322 0.21493,0.216322 0.11895,0 0.21688,-0.09649 0.21688,-0.216322 0,-0.117172 -0.0979,-0.214378 -0.21688,-0.214378 z m 0.54177,0 c -0.11983,0 -0.21715,0.09721 -0.21715,0.214378 0,0.119832 0.0973,0.216322 0.21715,0.216322 0.11771,0 0.21438,-0.09649 0.21438,-0.216322 0,-0.117172 -0.0967,-0.214378 -0.21438,-0.214378 z m 0.539,0 c -0.11842,0 -0.2144,0.09721 -0.21494,0.214378 0,0.119832 0.0966,0.216322 0.21494,0.216322 0.1193,0 0.21605,-0.09649 0.21605,-0.216322 -2.8e-4,-0.117172 -0.0968,-0.214378 -0.21605,-0.214378 z m 0.54011,0 c -0.1193,0 -0.21405,0.09721 -0.21495,0.214378 0,0.119832 0.0957,0.216322 0.21495,0.216322 0.11983,0 0.21632,-0.09649 0.21632,-0.216322 -0.001,-0.117172 -0.0964,-0.214378 -0.21632,-0.214378 z m 0.54038,0 c -0.11966,0 -0.21603,0.09721 -0.21603,0.214378 0,0.119832 0.0963,0.216322 0.21603,0.216322 0.11965,0 0.21633,-0.09649 0.21633,-0.216322 0,-0.117172 -0.0967,-0.214378 -0.21633,-0.214378 z m -1.61949,0.540935 c -0.11983,0 -0.21715,0.09421 -0.21715,0.214935 0,0.119123 0.0973,0.213829 0.21715,0.213829 0.11771,0 0.21438,-0.0947 0.21438,-0.213829 0,-0.120717 -0.0967,-0.214935 -0.21438,-0.214935 z m 1.07911,0 c -0.1193,0 -0.21495,0.09421 -0.21495,0.214935 0,0.119123 0.0957,0.213829 0.21495,0.213829 0.11983,0 0.21632,-0.0947 0.21632,-0.213829 0,-0.120717 -0.0964,-0.214935 -0.21632,-0.214935 z m 0.54038,0 c -0.11966,0 -0.21603,0.09421 -0.21603,0.214935 0,0.119123 0.0963,0.213829 0.21603,0.213829 0.11965,0 0.21633,-0.0947 0.21633,-0.213829 0,-0.120717 -0.0967,-0.214935 -0.21633,-0.214935 z m 0.54039,0 c -0.11983,0 -0.21523,0.09421 -0.21523,0.214935 0,0.119123 0.0955,0.213829 0.21523,0.213829 0.11912,0 0.21604,-0.0947 0.21604,-0.213829 0,-0.120717 -0.0969,-0.214935 -0.21604,-0.214935 z m -1.08077,0.538167 c -0.1193,0 -0.21495,0.09728 -0.21495,0.216051 0,0.11823 0.0957,0.215768 0.21495,0.215768 0.11983,0 0.21508,-0.09754 0.21632,-0.215768 -0.001,-0.118767 -0.0964,-0.216051 -0.21632,-0.216051 z m 0.54038,0 c -0.11966,0 -0.21603,0.09728 -0.21603,0.216051 5.1e-4,0.11823 0.0963,0.215768 0.21603,0.215768 0.11965,0 0.21633,-0.09754 0.21633,-0.215768 0,-0.118767 -0.0967,-0.216051 -0.21633,-0.216051 z"
       style="fill:#ffffff;fill-opacity:1;fill-rule:nonzero;stroke:none;stroke-width:0.0347105"
       sodipodi:nodetypes="ssssssssssscsssssscsscscsscssssssssssssssssssscssssssssssssssssssssssssssssssssssssssssssscsssccssscccscccsssccssscccssccsscccssccccsscsssssssscssssssssssssssssssscssssssssssssssssssssssssssssssssssssssscssssssssssssssssscscsscscsssssssssssssscsssssssssssssscsscsss" /></g><style
     type="text/css"
     id="style1">&#10;	.st0{fill:#505050;}&#10;	.st1{fill:#99CC00;}&#10;</style></svg>
