<?xml version="1.0" encoding="UTF-8" standalone="no"?>
<!-- Created with Inkscape (http://www.inkscape.org/) -->

<svg
   width="27.999826"
   height="27.999788"
   viewBox="0 0 7.4082874 7.4082773"
   version="1.1"
   id="svg1"
   inkscape:version="1.3 (0e150ed6c4, 2023-07-21)"
   sodipodi:docname="oebb.svg"
   xml:space="preserve"
   xmlns:inkscape="http://www.inkscape.org/namespaces/inkscape"
   xmlns:sodipodi="http://sodipodi.sourceforge.net/DTD/sodipodi-0.dtd"
   xmlns="http://www.w3.org/2000/svg"
   xmlns:svg="http://www.w3.org/2000/svg"><sodipodi:namedview
     id="namedview1"
     pagecolor="#ffffff"
     bordercolor="#000000"
     borderopacity="0.25"
     inkscape:showpageshadow="2"
     inkscape:pageopacity="0.0"
     inkscape:pagecheckerboard="0"
     inkscape:deskcolor="#d1d1d1"
     inkscape:document-units="px"
     inkscape:zoom="11.313709"
     inkscape:cx="7.7781742"
     inkscape:cy="24.837125"
     inkscape:window-width="1920"
     inkscape:window-height="1011"
     inkscape:window-x="0"
     inkscape:window-y="0"
     inkscape:window-maximized="1"
     inkscape:current-layer="layer1"
     showgrid="false"><inkscape:grid
       id="grid6"
       units="px"
       originx="0"
       originy="0"
       spacingx="0.26458333"
       spacingy="0.26458333"
       empcolor="#0099e5"
       empopacity="0.30196078"
       color="#0099e5"
       opacity="0.14901961"
       empspacing="5"
       dotted="false"
       gridanglex="30"
       gridanglez="30"
       visible="false" /></sodipodi:namedview><defs
     id="defs1" /><g
     inkscape:label="Layer 1"
     inkscape:groupmode="layer"
     id="layer1"
     transform="translate(-105.83333,-79.904152)"><rect
       style="fill:#ffffff;fill-opacity:1;stroke-width:0.264581;stroke-linecap:round;stroke-linejoin:round"
       id="rect2"
       width="7.4082875"
       height="7.4082775"
       x="105.83333"
       y="79.904152"
       rx="1.5875" /><path
       d="m 108.31323,82.895048 -0.29741,0.324253 c 0.0807,0.112926 0.12483,0.247386 0.12483,0.388997 0,0.179619 -0.0699,0.348515 -0.19704,0.475614 -0.127,0.127 -0.2959,0.197045 -0.47551,0.197045 -0.17971,0 -0.34862,-0.07005 -0.47561,-0.197045 -0.12711,-0.12711 -0.19705,-0.296006 -0.19705,-0.475614 0,-0.366806 0.29536,-0.665835 0.66076,-0.672231 l 0.34949,-0.381209 c -0.10784,-0.03454 -0.22119,-0.05359 -0.33757,-0.05359 -0.6104,0 -1.10703,0.496622 -1.10703,1.107023 0,0.295677 0.11509,0.573709 0.32416,0.782769 0.20917,0.209061 0.48709,0.324254 0.78288,0.324254 0.29567,0 0.5737,-0.115193 0.78266,-0.324254 0.20916,-0.20906 0.32425,-0.487092 0.32425,-0.782769 0,-0.264275 -0.0929,-0.513829 -0.26179,-0.713261 m -0.36854,-0.323936 v -0.0014 l -0.76945,0.837765 h 0.51578 l 0.76707,-0.836363 m 0.91323,1.195305 h 0.60608 c 0.0833,0 0.25259,0.01147 0.25259,0.247384 8e-5,0.287562 -0.20203,0.29329 -0.33573,0.29329 h -0.52294 z m 0,-0.837009 h 0.52888 c 0.1545,0 0.2763,0.05749 0.2763,0.238732 0,0.166836 -0.10988,0.238732 -0.30011,0.238732 h -0.50507 z m -0.44573,1.73726 h 0.97765 c 0.13663,0 0.37731,-0.02014 0.52595,-0.143781 0.19304,-0.161097 0.22573,-0.333574 0.22573,-0.442918 0,-0.250201 -0.13079,-0.434364 -0.25853,-0.529317 0.15752,-0.126452 0.20495,-0.304877 0.20495,-0.431439 0,-0.08629 -0.0416,-0.549349 -0.78136,-0.549349 h -0.89439 m 2.50463,1.196509 h 0.60618 c 0.0832,0 0.2526,0.01147 0.2526,0.247384 0,0.287562 -0.20214,0.29329 -0.33585,0.29329 h -0.52293 z m 0,-0.837009 h 0.52888 c 0.15449,0 0.2763,0.05749 0.2763,0.238732 0,0.166837 -0.10989,0.238732 -0.30011,0.238732 h -0.50507 z m -0.44562,1.73726 h 0.97742 c 0.13674,0 0.37742,-0.02014 0.52608,-0.143781 0.19304,-0.161097 0.22573,-0.333574 0.22573,-0.442918 0,-0.250201 -0.13079,-0.434364 -0.25853,-0.529316 0.15752,-0.126453 0.20495,-0.304878 0.20495,-0.43144 0,-0.08629 -0.0416,-0.549349 -0.78136,-0.549349 h -0.89439"
       fill="#e33c3e"
       id="path1"
       style="stroke-width:0.010953" /></g></svg>
