<?xml version="1.0" encoding="UTF-8" standalone="no"?>
<!-- Created with Inkscape (http://www.inkscape.org/) -->

<svg
   width="27.999826"
   height="27.999788"
   viewBox="0 0 7.4082874 7.4082773"
   version="1.1"
   id="svg1"
   inkscape:version="1.3 (0e150ed6c4, 2023-07-21)"
   sodipodi:docname="oövv.svg"
   xml:space="preserve"
   xmlns:inkscape="http://www.inkscape.org/namespaces/inkscape"
   xmlns:sodipodi="http://sodipodi.sourceforge.net/DTD/sodipodi-0.dtd"
   xmlns="http://www.w3.org/2000/svg"
   xmlns:svg="http://www.w3.org/2000/svg"><sodipodi:namedview
     id="namedview1"
     pagecolor="#ffffff"
     bordercolor="#000000"
     borderopacity="0.25"
     inkscape:showpageshadow="2"
     inkscape:pageopacity="0.0"
     inkscape:pagecheckerboard="0"
     inkscape:deskcolor="#d1d1d1"
     inkscape:document-units="px"
     inkscape:zoom="2"
     inkscape:cx="-6.75"
     inkscape:cy="17"
     inkscape:window-width="1920"
     inkscape:window-height="1011"
     inkscape:window-x="0"
     inkscape:window-y="0"
     inkscape:window-maximized="1"
     inkscape:current-layer="layer1"
     showgrid="true"><inkscape:grid
       id="grid6"
       units="px"
       originx="0"
       originy="0"
       spacingx="0.26458333"
       spacingy="0.26458333"
       empcolor="#0099e5"
       empopacity="0.30196078"
       color="#0099e5"
       opacity="0.14902"
       empspacing="5"
       dotted="false"
       gridanglex="30"
       gridanglez="30"
       visible="true" /></sodipodi:namedview><defs
     id="defs1"><clipPath
       clipPathUnits="userSpaceOnUse"
       id="clipPath62542"><path
         d="m 36,36 1818,0 0,1818 -1818,0 0,-1818 z"
         id="path62544"
         inkscape:connector-curvature="0" /></clipPath></defs><g
     inkscape:label="Layer 1"
     inkscape:groupmode="layer"
     id="layer1"
     transform="translate(-105.83333,-79.904152)"><rect
       style="fill:#ffffff;stroke-width:0.264581;stroke-linecap:round;stroke-linejoin:round;fill-opacity:1"
       id="rect2"
       width="7.4082875"
       height="7.4082775"
       x="105.83333"
       y="79.904152" /><g
       id="g2"
       transform="matrix(0.06674746,0,0,0.06674746,106.58103,82.63695)"><path
         d="M 10.1875,6.09375 C 4.5775,6.09375 0,10.63125 0,16.21875 c 0,5.58875 4.5775,10.125 10.1875,10.125 5.61125,0 10.15625,-4.53625 10.15625,-10.125 0,-5.5875 -4.545,-10.125 -10.15625,-10.125 z m 23.4375,0 c -5.61,0 -10.15625,4.5375 -10.15625,10.125 0,5.58875 4.54625,10.125 10.15625,10.125 5.61,0 10.15625,-4.53625 10.15625,-10.125 0,-5.5875 -4.54625,-10.125 -10.15625,-10.125 z m -23.4375,5.125 c 2.76375,0 5,2.2475 5,5 0,2.7525 -2.23625,4.96875 -5,4.96875 -2.7625,0 -5.03125,-2.21625 -5.03125,-4.96875 0,-2.7525 2.26875,-5 5.03125,-5 z m 23.4375,0 c 2.76375,0 5,2.2475 5,5 0,2.7525 -2.23625,4.96875 -5,4.96875 -2.76375,0 -5,-2.21625 -5,-4.96875 0,-2.7525 2.23625,-5 5,-5 z"
         id="path6457"
         style="fill:#1a1613;fill-opacity:1;fill-rule:evenodd;stroke:none" /><path
         d="m 30.25,0 c -1.195,0 -2.15625,0.96625 -2.15625,2.15625 0,1.19125 0.96125,2.15625 2.15625,2.15625 1.195,0 2.15625,-0.965 2.15625,-2.15625 C 32.40625,0.96625 31.445,0 30.25,0 Z m 6.71875,0 c -1.195,0 -2.15625,0.96625 -2.15625,2.15625 0,1.19125 0.96125,2.15625 2.15625,2.15625 1.195,0 2.1875,-0.965 2.1875,-2.15625 C 39.15625,0.96625 38.16375,0 36.96875,0 Z"
         id="path6465"
         style="fill:#1a1613;fill-opacity:1;fill-rule:nonzero;stroke:none" /><path
         d="M 47.46875,6.6250002 V 22.34375 c 0.0337,1.91875 0.49375,3.75 3.4375,3.75 2.9425,0 4.64375,-1.83125 5.96875,-3.75 L 66.71875,6.6250002 h -6.4375 L 53.21875,18.9375 c -0.0913,0.13875 -0.1875,0.125 -0.1875,0.125 V 6.6250002 Z m 21.375,0 V 22.34375 c 0.0337,1.91875 0.495,3.75 3.4375,3.75 2.94375,0 4.645,-1.83125 5.96875,-3.75 L 88.09375,6.6250002 h -6.4375 L 74.59375,18.9375 c -0.09,0.13875 -0.1875,0.125 -0.1875,0.125 V 6.6250002 Z"
         id="path6461"
         style="fill:#e74f4a;fill-opacity:1;stroke:#ffffff;stroke-width:0.545;stroke-linecap:butt;stroke-linejoin:miter;stroke-miterlimit:3.864;stroke-dasharray:none;stroke-opacity:0" /></g></g><style
     type="text/css"
     id="style1">&#10;	.st0{fill:#505050;}&#10;	.st1{fill:#99CC00;}&#10;</style></svg>
