<?xml version="1.0" encoding="UTF-8" standalone="no"?>
<!-- Created with Inkscape (http://www.inkscape.org/) -->

<svg
   width="27.999826"
   height="27.999788"
   viewBox="0 0 7.4082874 7.4082773"
   version="1.1"
   id="svg1"
   inkscape:version="1.3.2 (091e20ef0f, 2023-11-25)"
   sodipodi:docname="pkp.svg"
   xml:space="preserve"
   xmlns:inkscape="http://www.inkscape.org/namespaces/inkscape"
   xmlns:sodipodi="http://sodipodi.sourceforge.net/DTD/sodipodi-0.dtd"
   xmlns="http://www.w3.org/2000/svg"
   xmlns:svg="http://www.w3.org/2000/svg"><sodipodi:namedview
     id="namedview1"
     pagecolor="#ffffff"
     bordercolor="#000000"
     borderopacity="0.25"
     inkscape:showpageshadow="2"
     inkscape:pageopacity="0.0"
     inkscape:pagecheckerboard="0"
     inkscape:deskcolor="#d1d1d1"
     inkscape:document-units="px"
     inkscape:zoom="5.6568542"
     inkscape:cx="0.1767767"
     inkscape:cy="21.566757"
     inkscape:window-width="1920"
     inkscape:window-height="1011"
     inkscape:window-x="0"
     inkscape:window-y="0"
     inkscape:window-maximized="1"
     inkscape:current-layer="layer1" /><defs
     id="defs1" /><g
     inkscape:label="Layer 1"
     inkscape:groupmode="layer"
     id="layer1"
     transform="translate(-105.83333,-79.904152)"><rect
       style="fill:#ffffff;stroke-width:0.264581;stroke-linecap:round;stroke-linejoin:round"
       id="rect2"
       width="7.4082875"
       height="7.4082775"
       x="105.83333"
       y="79.904152"
       rx="1.5875" /><g
       style="overflow:visible;fill-rule:evenodd;stroke-width:0.501;stroke-linejoin:bevel"
       id="g1"
       transform="matrix(0.00771823,0,0,0.00771819,107.22215,81.871726)"><path
         d="M 600.02084,449.99996 711.3806,230.47599 597.3646,0.07897433 97.732146,0.0131303 40.693365,108.42312 l 551.222425,0.0702 59.72581,119.26109 -111.35976,222.23674 59.739,0.009 M 94.996747,165.34747 l -0.0088,51.49442 24.438283,0.004 c 13.58024,-2.70839 16.29365,-10.83793 16.29365,-13.5507 2.71781,-8.12955 2.71781,-13.5507 2.7222,-18.97186 -2.71781,-8.12954 -5.43122,-13.5507 -16.29365,-18.97625 H 94.996747 m -76.028254,-32.53573 116.764587,0.0132 c 38.01413,0.009 59.7346,27.11457 59.7302,54.21597 -0.009,46.07765 -32.5917,56.91557 -54.31657,56.91118 l -46.163156,-0.004 -0.0044,40.65648 c 0,2.70839 2.717808,5.41677 8.144626,5.42116 h 21.72488 l -0.004,27.10579 -105.897757,-0.0176 0.0044,-27.1014 16.289256,0.004 c 2.717808,0 8.149026,-2.70838 8.149026,-5.42115 l 0.01319,-121.96508 -24.438281,-0.004 0.0044,-29.81418 m 480.620996,29.87563 -0.009,51.49881 27.15609,0.004 c 13.57585,0 13.57585,-8.12955 16.29366,-13.5507 2.7178,-8.12955 2.7178,-10.84232 0,-18.97186 -2.71341,-8.13393 -2.71341,-13.55509 -16.28926,-18.97625 l -27.15169,-0.004 m -76.02825,-29.82295 116.76018,0.0176 c 38.01853,0.004 59.739,27.11018 59.7346,51.50319 -0.009,48.78603 -32.5961,56.91119 -51.60316,56.91119 l -48.87656,-0.009 -0.004,40.65649 c 2.71781,2.70838 5.43122,5.42115 10.86243,5.42115 l 19.00707,0.004 -0.004,27.1014 -105.89775,-0.0132 v -27.1014 h 19.00706 c 2.71781,0 5.43562,0 8.14903,-5.41676 l 0.0176,-119.2567 -27.15609,-0.004 0.004,-29.81417 m -228.08916,-0.0307 100.46653,0.0132 -0.004,27.10579 -13.57584,-0.004 c -5.43122,0 -10.86244,2.70839 -10.86244,5.42116 l -0.009,54.20719 51.60316,-54.19841 c 2.71341,-2.71278 0,-5.42116 -2.7178,-5.42116 l -10.86244,-0.004 0.004,-27.1014 89.60849,0.009 -0.004,27.10579 -27.15169,-0.004 -40.73634,40.6521 54.29899,78.60459 c 2.71341,2.71278 5.42682,8.13393 13.57145,8.13393 h 10.86243 l -0.004,27.10579 -100.46653,-0.0132 0.004,-27.10579 10.86243,0.004 c 5.42682,0 5.43122,-5.42116 2.71341,-5.42116 l -27.14729,-43.36926 -24.44268,24.38862 -0.004,18.97186 c 0,0 0,5.42116 10.86244,5.42116 l 13.57584,0.004 -0.004,27.1014 -95.03532,-0.0132 0.004,-27.1014 h 10.86243 c 2.71341,0 10.85804,0.004 10.85804,-5.41677 l 0.0176,-116.54831 c -2.71781,-2.70838 -2.71341,-5.42116 -10.86243,-5.42116 h -16.28926 c 0,0 0.004,-27.10579 0.004,-27.10579 M -0.02097893,-3.84995e-5 -111.38073,222.23671 2.6352604,449.92095 504.98113,449.98679 559.3021,341.58119 8.0796714,341.50657 -51.641736,224.95387 59.718019,0.0087407 -0.02097893,-3.84995e-5"
         id="path88"
         style="font-size:16px;font-family:'Times New Roman';fill:#013765;fill-opacity:1;stroke:none;stroke-width:2.20123" /></g></g></svg>
