<?xml version="1.0" encoding="UTF-8" standalone="no"?>
<!-- Created with Inkscape (http://www.inkscape.org/) -->

<svg
   width="27.999826"
   height="27.999788"
   viewBox="0 0 7.4082874 7.4082773"
   version="1.1"
   id="svg1"
   inkscape:version="1.3 (0e150ed6c4, 2023-07-21)"
   sodipodi:docname="rejseplanen.svg"
   xmlns:inkscape="http://www.inkscape.org/namespaces/inkscape"
   xmlns:sodipodi="http://sodipodi.sourceforge.net/DTD/sodipodi-0.dtd"
   xmlns="http://www.w3.org/2000/svg"
   xmlns:svg="http://www.w3.org/2000/svg">
  <sodipodi:namedview
     id="namedview1"
     pagecolor="#ffffff"
     bordercolor="#000000"
     borderopacity="0.25"
     inkscape:showpageshadow="2"
     inkscape:pageopacity="0.0"
     inkscape:pagecheckerboard="0"
     inkscape:deskcolor="#d1d1d1"
     inkscape:document-units="px"
     inkscape:zoom="12.144108"
     inkscape:cx="9.5519574"
     inkscape:cy="5.9288011"
     inkscape:window-width="1920"
     inkscape:window-height="1011"
     inkscape:window-x="0"
     inkscape:window-y="0"
     inkscape:window-maximized="1"
     inkscape:current-layer="layer1" />
  <defs
     id="defs1">
    <clipPath
       clipPathUnits="userSpaceOnUse"
       id="clipPath4">
      <path
         d="M 0,512 H 512 V 0 H 0 Z"
         transform="matrix(1.3333333,0,0,-1.3333333,0,682.66667)"
         id="path4" />
    </clipPath>
    <clipPath
       clipPathUnits="userSpaceOnUse"
       id="clipPath2">
      <path
         d="M 0,512 H 512 V 0 H 0 Z"
         transform="translate(-512.00002,-397.00001)"
         id="path2" />
    </clipPath>
    <clipPath
       clipPathUnits="userSpaceOnUse"
       id="clipPath6">
      <path
         d="M 0,0 H 512 V 512 H 0 Z"
         transform="translate(0.23730001,-210.1104)"
         id="path6" />
    </clipPath>
    <clipPath
       clipPathUnits="userSpaceOnUse"
       id="clipPath8">
      <path
         d="M 0,0 H 512 V 512 H 0 Z"
         transform="translate(-255.67971,-144.24611)"
         id="path8" />
    </clipPath>
    <clipPath
       clipPathUnits="userSpaceOnUse"
       id="clipPath10">
      <path
         d="M 0,0 H 512 V 512 H 0 Z"
         transform="translate(-255.67971,-198.63281)"
         id="path10" />
    </clipPath>
  </defs>
  <g
     inkscape:label="Layer 1"
     inkscape:groupmode="layer"
     id="layer1"
     transform="translate(-105.83333,-79.904152)">
    <rect
       style="fill:#ffffff;stroke-width:0.264581;stroke-linecap:round;stroke-linejoin:round"
       id="rect2"
       width="7.4082875"
       height="7.4082775"
       x="105.83333"
       y="79.904152" />
    <g
       id="group-MC0"
       transform="matrix(0.01085197,0,0,0.01085197,105.83333,79.904152)">
      <g
         id="g3"
         clip-path="url(#clipPath4)" />
      <path
         id="path5"
         d="M 0,0 C 0.164,0 0.327,0.029 0.475,0.029 V 0 h 122.05 V 96.56 H 0.475 V 96.537 C 0.327,96.537 0.164,96.56 0,96.56 Z"
         style="fill:#e7b809;fill-opacity:1;fill-rule:nonzero;stroke:none"
         transform="matrix(1.3333333,0,0,-1.3333333,-0.3164,402.51947)"
         clip-path="url(#clipPath6)" />
      <path
         id="path7"
         d="m 0,0 c -61.618,0 -111.753,50.122 -111.753,111.738 0,61.616 50.135,111.752 111.753,111.752 61.611,0 111.732,-50.136 111.732,-111.752 C 111.732,50.122 61.611,0 0,0 M 256.32,162.424 H 158.476 C 136.985,229.458 74.069,278.118 0,278.118 c -91.759,0 -166.399,-74.635 -166.399,-166.38 0,-91.742 74.64,-166.381 166.399,-166.381 75.831,0 139.979,51.003 159.944,120.507 h 96.376"
         style="fill:#002844;fill-opacity:1;fill-rule:nonzero;stroke:none"
         transform="matrix(1.3333333,0,0,-1.3333333,340.90627,490.33853)"
         clip-path="url(#clipPath8)" />
      <path
         id="path9"
         d="M 0,0 C 31.651,0 57.33,25.68 57.33,57.352 57.33,89.02 31.651,114.701 0,114.701 -31.688,114.701 -57.351,89.02 -57.351,57.352 -57.351,25.68 -31.688,0 0,0"
         style="fill:#ec1c24;fill-opacity:1;fill-rule:nonzero;stroke:none"
         transform="matrix(1.3333333,0,0,-1.3333333,340.90627,417.82293)"
         clip-path="url(#clipPath10)" />
    </g>
  </g>
</svg>
