<?xml version="1.0" encoding="UTF-8" standalone="no"?>
<!-- Created with Inkscape (http://www.inkscape.org/) -->

<svg
   width="27.999826"
   height="27.999788"
   viewBox="0 0 7.4082874 7.4082773"
   version="1.1"
   id="svg1"
   inkscape:version="1.3 (0e150ed6c4, 2023-07-21)"
   sodipodi:docname="rmv.svg"
   xml:space="preserve"
   xmlns:inkscape="http://www.inkscape.org/namespaces/inkscape"
   xmlns:sodipodi="http://sodipodi.sourceforge.net/DTD/sodipodi-0.dtd"
   xmlns="http://www.w3.org/2000/svg"
   xmlns:svg="http://www.w3.org/2000/svg"><sodipodi:namedview
     id="namedview1"
     pagecolor="#ffffff"
     bordercolor="#000000"
     borderopacity="0.25"
     inkscape:showpageshadow="2"
     inkscape:pageopacity="0.0"
     inkscape:pagecheckerboard="0"
     inkscape:deskcolor="#d1d1d1"
     inkscape:document-units="px"
     inkscape:zoom="17.174362"
     inkscape:cx="6.8707065"
     inkscape:cy="5.2985957"
     inkscape:window-width="1920"
     inkscape:window-height="1011"
     inkscape:window-x="0"
     inkscape:window-y="0"
     inkscape:window-maximized="1"
     inkscape:current-layer="layer1"
     showgrid="true"><inkscape:grid
       id="grid1"
       units="px"
       originx="0"
       originy="0"
       spacingx="0.26458333"
       spacingy="0.26458333"
       empcolor="#0099e5"
       empopacity="0.30196078"
       color="#0099e5"
       opacity="0.14901961"
       empspacing="5"
       dotted="false"
       gridanglex="30"
       gridanglez="30"
       visible="true" /></sodipodi:namedview><defs
     id="defs1" /><g
     inkscape:label="Layer 1"
     inkscape:groupmode="layer"
     id="layer1"
     transform="translate(-105.83333,-79.904152)"><rect
       style="fill:#ffffff;stroke-width:0.264581;stroke-linecap:round;stroke-linejoin:round"
       id="rect2"
       width="7.4082875"
       height="7.4082775"
       x="105.83333"
       y="79.904152" /><g
       transform="matrix(0.01470725,0,0,-0.01470725,105.69751,92.789012)"
       id="g10"
       style="stroke-width:22.4875">&#10;        <g
   transform="matrix(8,0,0,8,509.001,598.323)"
   id="g50518"
   style="stroke-width:22.4875">&#10;            <path
   d="m 0,0 c 0,1.929 -3.771,7.928 -5.169,9.221 -0.158,0.159 -0.37,0.284 -0.566,0.39 L -15.094,-3.133 H -4.885 C -2.708,-3.133 0,-2.124 0,0 m -11.538,9.611 h -5.917 l -3.556,-12.744 h 0.886 l 3.565,12.744 -0.077,-7.983 z m -12.677,0 h -3.859 l 0.195,-7.046 z m 0.919,-3.718 -4.97,-9.026 h 2.299 z m -7.538,-9.026 -0.141,8.94 -2.636,-8.94 z m -10.137,2.637 c 0.213,0.941 0.054,1.576 -0.867,1.576 h -3.309 l -1.238,-4.213 h 4.9 c -0.07,0.371 0.196,1.187 0.514,2.637 z m -6.425,10.107 h -0.725 L -51.82,-3.133 h 0.727 z m -1.185,0 h -0.671 l -3.7,-12.744 h 0.673 z m -1.186,0 h -0.603 l -3.714,-12.744 h 0.621 z m -1.186,0 h -0.548 l -3.697,-12.744 h 0.549 z m -1.184,0 h -0.496 l -3.698,-12.744 h 0.496 z m -1.186,0 h -0.441 l -3.7,-12.744 h 0.443 z m -1.185,0 h -0.39 l -3.7,-12.744 h 0.391 z m -1.187,0 h -0.319 l -3.698,-12.744 h 0.319 z m -1.185,0 h -0.265 l -3.698,-12.744 h 0.246 z m -1.186,0 h -0.212 l -3.699,-12.744 h 0.195 z M -43.59,6.479 -44.262,4.175 h 3.362 c 0.971,0 1.486,0.322 1.715,1.117 0.267,0.957 -0.282,1.187 -1.132,1.187 h -3.273"
   id="path50520"
   style="fill:#082b6d;fill-opacity:1;fill-rule:nonzero;stroke:none;stroke-width:22.4875" />&#10;        </g><g
   transform="matrix(8,0,0,8,327.881,675.203)"
   id="g50522"
   style="stroke-width:22.4875">&#10;            <path
   d="M 0,0 H -1.576 L -5.239,-7.045 -5.433,0 h -8.259 c 2.756,0 2.387,-2.303 2.387,-2.815 0,-1.716 -0.891,-3.044 -2.66,-3.506 0.125,-0.159 0.675,-0.689 0.746,-0.865 0.264,-0.39 0.073,-0.952 0.073,-1.415 0,-1.046 -0.549,-2.07 -0.549,-3.096 0,-0.353 0.123,-0.732 0.284,-1.047 h 2.439 l 2.636,8.941 0.143,-8.941 h 2.568 l 4.97,9.028 -2.673,-9.028 H 1.629 L 5.184,0 H 0"
   id="path50524"
   style="fill:#aee3d2;fill-opacity:1;fill-rule:nonzero;stroke:none;stroke-width:22.4875" />&#10;        </g><g
   transform="matrix(8,0,0,8,416.697,675.203)"
   id="g50526"
   style="stroke-width:22.4875">&#10;            <path
   d="M 0,0 -5.1,-7.983 -5.022,0 -8.587,-12.744 h 5.031 L 5.803,0 H 0"
   id="path50528"
   style="fill:#ffffff;fill-opacity:1;fill-rule:nonzero;stroke:none;stroke-width:22.4875" />&#10;        </g><g
   transform="matrix(8,0,0,8,243.305,655.787)"
   id="g50530"
   style="stroke-width:22.4875">&#10;            <path
   d="m 0,0 c 0,2.365 -2.743,2.427 -2.743,2.427 -0.13,0 -0.25,0 -0.377,0 0,0 2.308,-0.179 2.308,-2.427 0,-1.893 -0.867,-3.468 -2.833,-3.871 0.888,-0.569 0.958,-1.525 0.958,-1.789 0,-1.205 -0.692,-2.354 -0.692,-3.557 0,-0.372 0.071,-0.762 0.25,-1.1 h 0.811 c -0.18,0.338 -0.249,0.728 -0.249,1.1 0,1.203 0.691,2.352 0.691,3.557 0,0.264 -0.069,1.22 -0.958,1.789 C -0.868,-3.468 0,-1.893 0,0"
   id="path50532"
   style="fill:#082b6d;fill-opacity:1;fill-rule:nonzero;stroke:none;stroke-width:22.4875" />&#10;        </g><g
   transform="matrix(8,0,0,8,218.345,675.203)"
   id="g50534"
   style="stroke-width:22.4875">&#10;            <path
   d="m 0,0 c -10.691,0 -11.065,0 -11.065,0 l -3.696,-12.744 h 4.707 l 1.238,4.213 h 3.31 c 0.92,0 1.08,-0.635 0.867,-1.575 -0.318,-1.45 -0.585,-2.266 -0.514,-2.638 h 5.143 c -0.179,0.338 -0.248,0.728 -0.248,1.1 0,1.203 0.69,2.352 0.69,3.557 0,0.264 -0.071,1.22 -0.957,1.789 1.965,0.403 2.833,1.978 2.833,3.871 C 2.308,-0.179 0,0 0,0 Z m -4.569,-5.436 h -3.362 l 0.673,2.305 h 3.272 c 0.85,0 1.399,-0.231 1.133,-1.188 -0.229,-0.795 -0.744,-1.117 -1.716,-1.117"
   id="path50536"
   style="fill:#ffffff;fill-opacity:1;fill-rule:nonzero;stroke:none;stroke-width:22.4875" />&#10;        </g>&#10;    </g></g></svg>
