<?xml version="1.0" encoding="UTF-8" standalone="no"?>
<!-- Created with Inkscape (http://www.inkscape.org/) -->

<svg
   width="27.999826"
   height="27.999788"
   viewBox="0 0 7.4082874 7.4082773"
   version="1.1"
   id="svg1"
   inkscape:version="1.3 (0e150ed6c4, 2023-07-21)"
   sodipodi:docname="rsag.svg"
   xml:space="preserve"
   xmlns:inkscape="http://www.inkscape.org/namespaces/inkscape"
   xmlns:sodipodi="http://sodipodi.sourceforge.net/DTD/sodipodi-0.dtd"
   xmlns:xlink="http://www.w3.org/1999/xlink"
   xmlns="http://www.w3.org/2000/svg"
   xmlns:svg="http://www.w3.org/2000/svg"><sodipodi:namedview
     id="namedview1"
     pagecolor="#ffffff"
     bordercolor="#000000"
     borderopacity="0.25"
     inkscape:showpageshadow="2"
     inkscape:pageopacity="0.0"
     inkscape:pagecheckerboard="0"
     inkscape:deskcolor="#d1d1d1"
     inkscape:document-units="px"
     inkscape:zoom="22.627417"
     inkscape:cx="14.18633"
     inkscape:cy="15.954097"
     inkscape:window-width="1920"
     inkscape:window-height="1011"
     inkscape:window-x="0"
     inkscape:window-y="0"
     inkscape:window-maximized="1"
     inkscape:current-layer="layer1"
     showgrid="true"><inkscape:grid
       id="grid6"
       units="px"
       originx="0"
       originy="0"
       spacingx="0.26458333"
       spacingy="0.26458333"
       empcolor="#0099e5"
       empopacity="0.30196078"
       color="#0099e5"
       opacity="0.14902"
       empspacing="5"
       dotted="false"
       gridanglex="30"
       gridanglez="30"
       visible="true" /></sodipodi:namedview><defs
     id="defs1"><rect
   id="SVGID_1_"
   x="0.3"
   y="0.6"
   width="191.4"
   height="74.3" /><rect
   id="SVGID_3_"
   x="0.3"
   y="0.6"
   width="191.4"
   height="66.4" /><rect
   id="SVGID_5_"
   x="0.3"
   y="0.6"
   width="191.4"
   height="74.3" />&#10;	&#10;	&#10;	&#10;&#10;		<defs
   id="defs6">&#10;			<rect
   id="rect4"
   x="0.30000001"
   y="0.60000002"
   width="191.39999"
   height="74.300003" />&#10;		</defs>&#10;		<clipPath
   id="SVGID_6_">&#10;			<use
   xlink:href="#SVGID_5_"
   style="overflow:visible"
   id="use6" />&#10;		</clipPath>&#10;		&#10;		&#10;		&#10;		&#10;		&#10;		&#10;		&#10;		&#10;		&#10;		&#10;		&#10;		&#10;		&#10;		&#10;		&#10;		&#10;		&#10;		&#10;		&#10;	</defs><g
     inkscape:label="Layer 1"
     inkscape:groupmode="layer"
     id="layer1"
     transform="translate(-105.83333,-79.904152)"><rect
       style="fill:#ffffff;fill-opacity:1;stroke-width:0.264581;stroke-linecap:round;stroke-linejoin:round"
       id="rect2"
       width="7.4082875"
       height="7.4082775"
       x="105.83333"
       y="79.904152"
       rx="1.5875" /><g
       id="g4"
       transform="matrix(0.34865632,0,0,0.34865632,78.562389,53.596384)"><g
         id="g6"
         transform="matrix(0.26458333,0,0,0.26458333,82.491306,77.545954)">&#10;		<defs
   id="defs4">&#10;			<rect
   id="rect3"
   x="0.30000001"
   y="0.60000002"
   width="191.39999"
   height="66.400002" />&#10;		</defs>&#10;		<clipPath
   id="SVGID_4_">&#10;			<use
   xlink:href="#SVGID_3_"
   style="overflow:visible"
   id="use4" />&#10;		</clipPath>&#10;		<path
   class="st1"
   d="m 23.2,13.1 c -7.9,0.5 -10.4,6.8 -10.8,10.9 -0.2,2.1 -0.1,4.1 0,5 1,-0.5 1.9,-0.9 2.5,-1.1 2,-0.8 3.9,-1.1 5.5,-1.3 -0.1,-0.8 -0.2,-2.6 0.8,-3.8 1.3,-1.6 4.5,-2.1 5.6,0.1 0.9,1.7 -0.1,4 -2.3,4.8 -1.9,0.7 -5.2,0.4 -9,1.8 -4.1,1.6 -9.4,5 -12.3,10.9 -2.9,5.9 -2.8,9.9 -2.9,14.8 v 8.7 H 8.7 V 51.3 c 0,-5.4 2.8,-11.8 10.6,-14.3 3.6,-1.1 11.6,-0.5 14.8,-7.5 3.6,-7.8 -1.9,-17 -10.9,-16.4"
   clip-path="url(#SVGID_4_)"
   id="path5" />&#10;		<path
   class="st2"
   d="M 45.7,16.1 C 40.4,1.2 23,-2.4 13.5,2.7 5.3,7.1 0.8,13.9 0.8,24.6 v 16.9 c 0.3,-0.6 0.5,-1.2 0.9,-1.9 1.9,-3.8 4.5,-6.4 7,-8.3 V 24.2 C 8.6,22.7 9.2,18.8 10.6,16.6 12,14.4 14.8,10.3 20.7,9.3 25.9,8.4 33.8,9.8 37.1,17.1 40.5,24.3 38,31 34.2,35 c -3.8,4 -10,4.3 -14.2,5 -4.2,0.7 -8.2,5.4 -8.2,11.1 V 63.8 H 20 V 53 c -0.1,-2.3 0.5,-4.7 2.7,-5.2 2.2,-0.5 5.9,-0.2 12.6,-3.4 8.2,-3.8 15,-15.2 10.4,-28.3"
   clip-path="url(#SVGID_4_)"
   id="path6" />&#10;	</g><path
         class="st3"
         d="m 44.2,55.7 c -1,-0.2 -3.7,-0.8 -6.1,-2.4 -2.1,-1.3 -5.6,-4.6 -6.6,-5.5 -2.8,0.9 -4.9,1.1 -6.5,1.3 -0.7,0.1 -1.3,0.2 -1.8,0.3 -0.3,0.1 -0.5,0.2 -0.7,0.4 0.9,1.1 6.9,7.8 12.7,11 5,2.7 10,3 10.8,3 0,0 0,0 0.1,0 0.6,0 1.6,0 1.6,0 v -8 h -1.5 c -0.1,0.1 -1,0.1 -2,-0.1"
         clip-path="url(#SVGID_6_)"
         id="path7"
         transform="matrix(0.26458333,0,0,0.26458333,82.491306,77.545954)" /><path
         class="st4"
         d="m 41.5,42.2 c -1.6,1.6 -3.4,2.8 -5.3,3.8 -0.5,0.2 -1,0.5 -1.5,0.7 6.1,6.4 11.4,6.3 11.4,6.3 0,0 1,0 1.2,0 0.3,0 0.4,0 0.4,0 v -8 c -0.1,0 -0.2,0 -0.2,0 0,0 -2.7,-0.2 -6,-2.8"
         clip-path="url(#SVGID_6_)"
         id="path8"
         transform="matrix(0.26458333,0,0,0.26458333,82.491306,77.545954)" /></g></g><style
     type="text/css"
     id="style1">&#10;	.st0{clip-path:url(#SVGID_2_);fill:#005091;}&#10;	.st1{clip-path:url(#SVGID_4_);fill:#005091;}&#10;	.st2{clip-path:url(#SVGID_4_);fill:#E2001A;}&#10;	.st3{clip-path:url(#SVGID_6_);fill:#E2001A;}&#10;	.st4{clip-path:url(#SVGID_6_);fill:#005091;}&#10;</style></svg>
