<?xml version="1.0" encoding="UTF-8" standalone="no"?>
<!-- Created with Inkscape (http://www.inkscape.org/) -->

<svg
   width="27.999826"
   height="27.999788"
   viewBox="0 0 7.4082874 7.4082773"
   version="1.1"
   id="svg1"
   inkscape:version="1.3 (0e150ed6c4, 2023-07-21)"
   sodipodi:docname="saarfahrplan.svg"
   xml:space="preserve"
   xmlns:inkscape="http://www.inkscape.org/namespaces/inkscape"
   xmlns:sodipodi="http://sodipodi.sourceforge.net/DTD/sodipodi-0.dtd"
   xmlns="http://www.w3.org/2000/svg"
   xmlns:svg="http://www.w3.org/2000/svg"><sodipodi:namedview
     id="namedview1"
     pagecolor="#ffffff"
     bordercolor="#000000"
     borderopacity="0.25"
     inkscape:showpageshadow="2"
     inkscape:pageopacity="0.0"
     inkscape:pagecheckerboard="0"
     inkscape:deskcolor="#d1d1d1"
     inkscape:document-units="px"
     inkscape:zoom="16"
     inkscape:cx="17"
     inkscape:cy="4.625"
     inkscape:window-width="1920"
     inkscape:window-height="1011"
     inkscape:window-x="0"
     inkscape:window-y="0"
     inkscape:window-maximized="1"
     inkscape:current-layer="layer1"
     showgrid="true"><inkscape:grid
       id="grid6"
       units="px"
       originx="0"
       originy="0"
       spacingx="0.26458333"
       spacingy="0.26458333"
       empcolor="#0099e5"
       empopacity="0.30196078"
       color="#0099e5"
       opacity="0.14902"
       empspacing="5"
       dotted="false"
       gridanglex="30"
       gridanglez="30"
       visible="true" /></sodipodi:namedview><defs
     id="defs1">&#10;&#10;	&#10;&#10;	&#10;&#10;	&#10;&#10;	&#10;&#10;	&#10;&#10;	&#10;&#10;	&#10;&#10;	&#10;&#10;	&#10;&#10;	&#10;&#10;	&#10;&#10;	&#10;&#10;	&#10;&#10;	&#10;&#10;	&#10;&#10;	&#10;&#10;	&#10;&#10;	&#10;&#10;	&#10;&#10;	&#10;&#10;	&#10;&#10;	&#10;&#10;	&#10;&#10;	&#10;&#10;	&#10;&#10;	&#10;&#10;	&#10;&#10;	&#10;&#10;	&#10;&#10;	&#10;&#10;	&#10;&#10;&#10;&#10;	&#10;&#10;	&#10;&#10;	&#10;&#10;	&#10;&#10;	&#10;&#10;	&#10;&#10;	&#10;&#10;	&#10;&#10;</defs><g
     inkscape:label="Layer 1"
     inkscape:groupmode="layer"
     id="layer1"
     transform="translate(-105.83333,-79.904152)"><rect
       style="fill:#ffffff;fill-opacity:1;stroke-width:0.264581;stroke-linecap:round;stroke-linejoin:round"
       id="rect2"
       width="7.4082875"
       height="7.4082775"
       x="105.83333"
       y="79.904152"
       rx="1.5875" /><g
       id="g11"
       transform="matrix(0.34094453,0,0,0.34094453,80.327123,57.274371)"><g
         id="g7"
         transform="matrix(0.24887034,0,0,0.24887034,192.22862,-122.00746)">&#10;&#10;		<path
   class="st0"
   d="m -459.1,827.4 c 0,0 6,-1.5 3.5,-5.6 -0.3,-0.4 -0.7,-0.8 -1,-1.3 l -0.1,-0.1 c -0.1,-0.1 -0.2,-0.3 -0.3,-0.5 -3.8,-5.5 -6.1,-12.2 -6.1,-19.4 0.2,-18.8 15.8,-34.2 35,-34.2 2,0 3.7,0.2 5.6,0.5 l -0.1,0.3 c -4.3,0.6 -10.4,2.2 -14.9,5.5 -8.3,6.1 -9.3,14.3 4.3,21.1 13.5,6.8 12.3,14.4 3.4,21 -8.2,6.1 -15.3,9.4 -21.8,11.9 -3.2,1.2 -5.9,2.1 -8,2.6 z"
   id="path6"
   clip-path="url(#SVGID_2_)" />&#10;&#10;	</g><g
         id="g8"
         transform="matrix(0.24887034,0,0,0.24887034,192.22862,-122.00746)">&#10;&#10;		<path
   class="st1"
   d="m -413.4,769.5 v 0 c 0.3,-0.1 0.7,-0.2 1,-0.2 1.3,-0.2 2.1,-0.3 2.1,-0.3 h -0.1 c 2.8,-0.5 4.2,-0.6 4.9,-0.7 l -0.4,1.3 c 0,0 -5.2,0.5 -1.5,3.5 8.6,6.2 14.2,16.2 14.2,27.5 0,18.9 -15.6,34.3 -34.9,34.3 -0.9,0 -1.8,0 -2.7,-0.1 l 0.1,-0.5 c 8.8,-2.6 27.4,-16.8 24.4,-31.6 -2.5,-12.4 -23.5,-15.9 -26.2,-22.4 -2.5,-6 12.3,-9.6 19.1,-10.8"
   id="path7"
   clip-path="url(#SVGID_4_)" />&#10;&#10;	</g></g></g><style
     type="text/css"
     id="style1">&#10;	.st0{clip-path:url(#SVGID_2_);fill:#005091;}&#10;	.st1{clip-path:url(#SVGID_4_);fill:#005091;}&#10;	.st2{clip-path:url(#SVGID_4_);fill:#E2001A;}&#10;	.st3{clip-path:url(#SVGID_6_);fill:#E2001A;}&#10;	.st4{clip-path:url(#SVGID_6_);fill:#005091;}&#10;</style><style
     type="text/css"
     id="style1-2">&#10;&#10;	.st0{fill:#004E92;}&#10;&#10;	.st1{fill:#00943D;}&#10;&#10;	.st2{fill:#666666;}&#10;&#10;</style></svg>
