<?xml version="1.0" encoding="UTF-8" standalone="no"?>
<!-- Created with Inkscape (http://www.inkscape.org/) -->

<svg
   version="1.1"
   id="svg1"
   width="27.999826"
   height="27.999788"
   viewBox="0 0 27.999826 27.999788"
   sodipodi:docname="salzburg.svg"
   inkscape:version="1.3 (0e150ed6c4, 2023-07-21)"
   xmlns:inkscape="http://www.inkscape.org/namespaces/inkscape"
   xmlns:sodipodi="http://sodipodi.sourceforge.net/DTD/sodipodi-0.dtd"
   xmlns="http://www.w3.org/2000/svg"
   xmlns:svg="http://www.w3.org/2000/svg">
  <defs
     id="defs1" />
  <sodipodi:namedview
     id="namedview1"
     pagecolor="#ffffff"
     bordercolor="#000000"
     borderopacity="0.25"
     inkscape:showpageshadow="2"
     inkscape:pageopacity="0.0"
     inkscape:pagecheckerboard="0"
     inkscape:deskcolor="#d1d1d1"
     inkscape:zoom="30.428801"
     inkscape:cx="13.999894"
     inkscape:cy="13.999894"
     inkscape:window-width="1920"
     inkscape:window-height="1011"
     inkscape:window-x="0"
     inkscape:window-y="0"
     inkscape:window-maximized="1"
     inkscape:current-layer="g1">
    <inkscape:page
       x="0"
       y="0"
       inkscape:label="1"
       id="page1"
       width="27.999826"
       height="27.999788"
       margin="0"
       bleed="0" />
  </sodipodi:namedview>
  <g
     id="g1"
     inkscape:groupmode="layer"
     inkscape:label="1">
    <path
       id="path1"
       d="m 4.5,0 h 12 C 18.992,0 21,2.008 21,4.5 v 12 C 21,18.992 18.992,21 16.5,21 H 4.5 C 2.008,21 0,18.992 0,16.5 V 4.5 C 0,2.008 2.008,0 4.5,0 Z"
       style="fill:#ffffff;fill-opacity:1;fill-rule:nonzero;stroke:none"
       transform="scale(1.3333333)" />
    <path
       id="path2"
       d="m 5.367,8.203 c 0,0 -0.012,6.063 0.008,7.34 0.02,1.277 1.016,2.453 1.016,2.453 0,0 0.859,1.004 2.043,1.461 1,0.383 1.738,0.379 1.945,0.367 V 8.203"
       style="fill:#ffc20e;fill-opacity:1;fill-rule:nonzero;stroke:none"
       transform="scale(1.3333333)" />
    <path
       id="path3"
       d="m 6.23,8.91 c -0.027,0 -0.046,0.004 -0.066,0.012 0,0 0.078,0.094 0.074,0.215 C 6.234,9.258 6.215,9.277 6.207,9.289 6.199,9.305 6.16,9.32 6.16,9.367 6.156,9.414 6.18,9.434 6.188,9.438 6.191,9.445 6.25,9.465 6.262,9.52 6.273,9.578 6.234,9.617 6.215,9.621 6.195,9.625 6.074,9.602 6.062,9.48 6.059,9.461 6.055,9.426 6.066,9.383 6.082,9.332 6.09,9.285 6.047,9.262 c -0.039,-0.028 -0.051,0 -0.051,0 0,0 -0.066,-0.129 -0.246,-0.133 -0.18,0 -0.273,0.156 -0.273,0.156 0,0 0.156,0.031 0.234,0.133 0.047,0.066 0.019,0.074 0.019,0.074 0,0 -0.031,0.012 -0.007,0.043 C 5.75,9.562 5.852,9.637 5.871,9.648 5.891,9.664 6.02,9.773 5.973,9.852 5.938,9.91 5.629,9.938 5.594,9.812 c 0,0 -0.086,0.161 0.043,0.278 0.129,0.121 0.23,0.094 0.242,0.094 0.059,-0.012 0.141,-0.075 0.152,-0.129 0,0 0.031,0.109 0.004,0.226 -0.015,0.074 -0.031,0.094 -0.078,0.106 -0.047,0.008 -0.117,0 -0.137,-0.035 0,0 -0.035,0.136 0.086,0.214 0.059,0.039 0.071,0.051 0.145,0.063 0.039,0.004 0.133,-0.039 0.152,-0.137 0.02,-0.101 0.027,-0.133 0.09,-0.133 0.109,0.004 0.168,0.133 0.152,0.231 C 6.43,10.68 6.359,10.727 6.305,10.793 6.234,10.887 6.168,11 6.203,11.121 6.219,11.188 6.262,11.242 6.32,11.273 6.301,11.262 6.312,11.176 6.312,11.156 6.32,11.129 6.332,11.102 6.363,11.09 c 0.063,-0.02 0.094,0.047 0.102,0.098 0.015,0.078 -0.02,0.148 -0.024,0.222 -0.003,0.047 0.012,0.09 0.039,0.125 0.012,0.016 0.024,0.031 0.036,0.047 0.007,0.012 0.039,0.035 0.043,0.051 0,0 -0.028,-0.153 0.113,-0.153 0.14,0 0.101,0.079 0.101,0.079 0,0 -0.007,0.105 -0.191,0.171 -0.195,0.071 -0.27,-0.062 -0.27,-0.062 0,0 -0.097,-0.137 -0.042,-0.289 -0.004,0.016 -0.043,0.043 -0.059,0.055 -0.031,0.035 -0.063,0.078 -0.086,0.121 -0.047,0.086 -0.063,0.203 -0.004,0.293 0.063,0.09 0.168,0.152 0.281,0.156 0.09,0.004 0.172,-0.039 0.239,-0.094 0.078,-0.062 0.148,-0.144 0.238,-0.191 -0.016,0.008 -0.012,0.047 -0.012,0.058 -0.004,0.028 -0.008,0.043 -0.019,0.071 -0.024,0.047 -0.055,0.09 -0.094,0.129 -0.09,0.085 -0.203,0.125 -0.324,0.14 -0.211,0.02 -0.473,0.074 -0.485,0.332 -0.007,0.176 0.117,0.352 0.282,0.406 0.066,0.024 0.136,0.016 0.199,0 -0.008,0 -0.043,-0.023 -0.051,-0.031 -0.02,-0.012 -0.035,-0.023 -0.051,-0.039 -0.07,-0.066 -0.121,-0.172 -0.043,-0.25 0.043,-0.043 0.106,-0.07 0.164,-0.086 0.063,-0.019 0.149,-0.043 0.219,-0.031 0,0 -0.18,0.16 -0.172,0.324 0.012,0.16 0.141,0.203 0.199,0.203 0.051,0 0.098,-0.015 0.145,-0.039 0.039,-0.023 0.094,-0.062 0.098,-0.109 0,0 -0.258,0.113 -0.266,-0.031 0,-0.078 0.102,-0.141 0.156,-0.172 0.078,-0.047 0.235,-0.141 0.289,-0.016 0.02,0.051 -0.008,0.121 -0.023,0.172 -0.047,0.113 -0.125,0.203 -0.203,0.297 -0.09,0.109 -0.16,0.234 -0.215,0.363 -0.039,0.09 -0.059,0.188 -0.11,0.27 -0.019,0.035 -0.148,0.246 -0.167,0.265 -0.016,0.02 -0.079,0.071 -0.129,0.071 -0.028,0 -0.055,-0.008 -0.075,-0.028 C 6.168,13.969 6.164,13.941 6.152,13.914 6.141,13.879 6.121,13.852 6.094,13.828 6.062,13.805 6.027,13.793 5.996,13.789 c -0.023,-0.004 -0.051,-0.004 -0.074,0 -0.02,0.004 -0.047,0.008 -0.063,0.023 -0.015,0.016 -0.023,0.036 -0.031,0.059 0,0 -0.312,0.18 -0.191,0.422 0,0 0.172,-0.184 0.328,-0.133 0,0 0.004,0.012 0.004,0.012 0.004,0.008 0.008,0.012 0.015,0.016 0.016,0.011 0.036,0.019 0.055,0.015 0.016,0 0.031,0 0.043,-0.004 0.023,-0.011 0.043,-0.031 0.07,-0.027 0.028,0.004 0.032,0.023 0.028,0.043 -0.008,0.019 -0.075,0.144 -0.118,0.168 -0.042,0.023 -0.187,0.062 -0.171,0.16 0,0 -0.067,0.187 -0.051,0.285 0.015,0.098 0.133,0.289 0.351,0.289 0,0 -0.136,-0.25 -0.011,-0.351 0,0 0.093,-0.016 0.09,-0.141 -0.004,-0.074 0.015,-0.152 0.054,-0.215 0.016,-0.031 0.039,-0.058 0.067,-0.074 0.015,-0.008 0.027,-0.012 0.043,-0.016 0.035,-0.004 0.058,0.035 0.054,0.067 0,0.027 -0.027,0.035 -0.047,0.051 -0.054,0.042 -0.093,0.132 -0.039,0.191 0.004,0.004 0.032,0.016 0.028,0.023 -0.004,0.051 -0.016,0.067 -0.043,0.11 -0.039,0.062 -0.094,0.109 -0.16,0.14 0,0 0.41,0.137 0.425,-0.168 0,-0.004 0.016,-0.011 0.016,-0.015 0.012,-0.008 0.02,-0.02 0.027,-0.028 C 6.73,14.637 6.719,14.574 6.684,14.523 6.664,14.5 6.641,14.477 6.645,14.441 c 0.007,-0.035 0.019,-0.043 0.054,-0.043 0.02,0 0.051,0 0.047,0.028 0,0.019 -0.008,0.039 -0.004,0.058 0.004,0.039 0.024,0.094 0.067,0.102 0.039,0.008 0.07,0.019 0.105,0.039 0.035,0.016 0.066,0.035 0.09,0.066 0.019,0.02 0.031,0.047 0.031,0.075 0,0 0.137,-0.426 -0.094,-0.508 0,0 -0.003,-0.008 -0.003,-0.012 C 6.93,14.223 6.91,14.207 6.883,14.203 6.859,14.199 6.816,14.207 6.801,14.184 6.793,14.172 6.793,14.152 6.797,14.137 c 0.008,-0.024 0.031,-0.032 0.055,-0.035 0.039,-0.016 0.16,-0.098 0.191,-0.192 0.031,-0.09 0.043,-0.168 0.09,-0.168 0.047,0 0.043,0.004 0.035,0.039 -0.008,0.035 -0.035,0.157 0.074,0.199 0,0 -0.125,-0.179 0.09,-0.183 -0.012,0 -0.023,0.051 -0.023,0.058 -0.008,0.028 -0.008,0.055 -0.008,0.083 0.004,0.113 0.043,0.23 0.156,0.257 0.063,0.016 0.168,-0.007 0.188,-0.074 -0.004,0.016 -0.04,0.024 -0.051,0.027 -0.067,0.016 -0.121,-0.031 -0.141,-0.089 -0.015,-0.055 -0.008,-0.121 0.016,-0.172 0.008,-0.02 0.023,-0.059 0.047,-0.067 0,0 0.07,0.106 0.156,0.102 0.09,-0.004 0.14,-0.063 0.16,-0.137 0,-0.004 -0.129,0.039 -0.129,-0.07 0,-0.113 0.078,-0.137 0.078,-0.137 0.031,0.086 0.09,0.152 0.16,0.211 0.106,0.086 0.266,0.133 0.313,0.266 0.078,0.207 -0.172,0.343 -0.332,0.394 -0.211,0.067 -0.418,0.137 -0.625,0.215 -0.102,0.043 -0.207,0.086 -0.305,0.141 -0.164,0.086 -0.336,0.172 -0.394,0.367 -0.016,0.058 -0.059,0.144 -0.137,0.113 -0.113,-0.043 -0.02,-0.183 0.043,-0.176 0,0 -0.305,-0.047 -0.106,0.403 0,0 -0.425,0.402 0.11,0.55 0,0 -0.141,-0.175 -0.082,-0.269 0.035,-0.063 0.277,-0.047 0.324,-0.109 0.004,-0.004 0.008,-0.008 0.012,-0.012 0.011,-0.004 0,0.074 0,0.078 -0.016,0.043 -0.047,0.07 -0.071,0.105 -0.031,0.043 -0.066,0.09 -0.086,0.137 0.02,-0.039 0.157,-0.039 0.192,-0.043 0.078,-0.011 0.152,-0.019 0.23,-0.027 0.082,-0.008 0.157,0.062 0.223,0.101 0.051,0.028 0.098,0.075 0.047,0.125 -0.031,0.028 -0.07,0.043 -0.102,0.067 C 7.16,16.238 7.129,16.266 7.098,16.293 7.043,16.355 6.992,16.426 6.957,16.5 6.898,16.613 6.836,16.637 6.82,16.641 6.805,16.645 6.723,16.648 6.691,16.566 6.676,16.523 6.66,16.48 6.629,16.445 6.602,16.41 6.562,16.395 6.52,16.398 6.504,16.402 6.492,16.402 6.48,16.41 c -0.003,0.004 -0.011,0.012 -0.015,0.016 0,0 -0.012,0.015 -0.012,0.015 0,0 -0.223,-0.035 -0.254,0.2 0,0 -0.023,0.289 0.113,0.3 0,0 -0.046,-0.242 0.133,-0.199 0.184,0.043 0.27,0.184 0.27,0.184 0,0 -0.297,-0.059 -0.25,0.094 0,0 -0.258,0.296 0.055,0.601 0,0 0.05,-0.215 0.199,-0.312 0.004,-0.004 0.027,-0.008 0.027,-0.067 0.004,-0.054 -0.023,-0.133 0.008,-0.172 0.023,-0.027 0.058,-0.039 0.094,-0.035 0.015,0 0.031,0.004 0.043,0.016 0.027,0.019 0.027,0.062 0.027,0.094 -0.004,0.023 -0.012,0.046 -0.023,0.062 -0.02,0.031 -0.051,0.051 -0.071,0.082 -0.012,0.016 -0.019,0.035 -0.015,0.051 0,0.019 0.015,0.035 0.023,0.051 0.004,0.007 0.008,0.019 0.012,0.031 0.008,0.035 0.008,0.074 0,0.109 0,0.024 -0.012,0.047 -0.024,0.071 -0.004,0.015 -0.011,0.027 -0.019,0.039 0,0.007 -0.024,0.039 -0.024,0.039 0,0 0.391,0.019 0.371,-0.278 0,0 -0.011,-0.179 -0.031,-0.226 0,0 0.262,0.043 0.117,0.246 0,0 0.317,0.016 0.219,-0.352 0,0 0.031,-0.027 0.004,-0.043 -0.023,-0.015 -0.105,-0.14 -0.078,-0.152 0.023,-0.012 0.062,-0.102 0.098,-0.078 0,0 0.05,0.172 0.093,0.262 0.004,0.003 -0.05,-0.325 0.133,-0.368 0,0 -0.043,0.239 -0.008,0.395 0.035,0.156 0.133,0.324 0.321,0.352 0.187,0.031 0.347,-0.172 0.218,-0.368 0,0 0.012,0.094 -0.089,0.094 -0.098,0 -0.153,-0.141 -0.09,-0.223 0.066,-0.086 0.265,0.008 0.207,-0.238 0,0 -0.051,0.078 -0.121,0.051 C 8.07,16.723 8.043,16.613 8.086,16.547 8.133,16.484 8.215,16.418 8.199,16.254 8.188,16.125 8.035,16.098 8.035,16.098 c 0.098,0.015 0.184,-0.2 0.16,-0.274 0,-0.008 -0.121,0.063 -0.246,0.059 -0.129,0 -0.187,-0.133 -0.187,-0.25 0,-0.074 0.011,-0.156 0.05,-0.223 0.055,-0.086 0.145,-0.094 0.235,-0.113 0.105,-0.024 0.211,-0.047 0.305,-0.106 0.054,-0.035 0.105,-0.074 0.144,-0.125 0.078,-0.101 0.149,-0.211 0.215,-0.32 0.004,0 0.004,-0.004 0.012,-0.004 0.047,-0.008 0.004,0.059 -0.004,0.074 -0.051,0.098 -0.102,0.196 -0.141,0.301 -0.039,0.11 -0.074,0.223 -0.101,0.336 -0.012,0.047 -0.024,0.094 -0.032,0.137 -0.023,0.105 -0.05,0.211 -0.047,0.316 0.008,0.102 0.051,0.199 0.094,0.293 0.063,0.133 0.117,0.278 0.117,0.426 -0.004,0.039 -0.035,0.148 -0.113,0.148 -0.078,0 -0.117,-0.066 -0.066,-0.171 -0.004,0.007 -0.016,0.015 -0.024,0.019 -0.015,0.016 -0.031,0.035 -0.047,0.055 -0.039,0.066 -0.039,0.144 -0.007,0.215 0.043,0.093 0.168,0.16 0.261,0.101 0.047,-0.027 0.078,-0.078 0.09,-0.129 0.024,-0.093 0.012,-0.418 0.043,-0.441 -0.008,0.004 0,0.066 0,0.074 0,0.031 0,0.059 0,0.086 0,0.059 0.004,0.113 0.004,0.168 0,0.055 0,0.109 0.004,0.16 0.004,0.035 0.012,0.07 0.031,0.102 0.024,0.031 0.067,0.047 0.106,0.05 0.043,0 0.089,-0.023 0.117,-0.058 0.015,-0.016 0.023,-0.039 0.035,-0.063 0.004,-0.015 0.008,-0.039 0.008,-0.058 -0.039,0.043 -0.117,0.031 -0.153,-0.012 -0.054,-0.066 -0.05,-0.164 -0.046,-0.242 0,-0.063 0.007,-0.121 0.027,-0.18 0.004,0.031 0.016,0.078 0.031,0.106 0.024,0.05 0.039,0.105 0.07,0.152 0.028,0.051 0.071,0.09 0.11,0.129 0.023,0.023 0.051,0.051 0.058,0.082 0.024,0.098 -0.078,0.184 -0.128,0.25 -0.055,0.078 -0.102,0.156 -0.129,0.246 -0.063,0.188 -0.036,0.164 -0.082,0.316 -0.012,0.055 -0.11,0.082 -0.11,0.082 0,0 -0.082,0.016 -0.187,0.184 -0.047,0.074 -0.141,0.055 -0.141,0.055 0,0 -0.039,-0.055 -0.09,-0.059 -0.051,-0.004 -0.133,0.02 -0.133,0.063 0,0 -0.246,-0.016 -0.269,0.16 -0.024,0.152 0.023,0.219 0.051,0.289 0,0 0.008,-0.012 0.008,-0.012 0.007,-0.012 0.015,-0.019 0.023,-0.027 0.023,-0.027 0.051,-0.051 0.082,-0.063 0.016,-0.004 0.035,-0.007 0.051,-0.004 0.023,0 0.043,0.012 0.066,0.016 0.024,0.008 0.047,0.008 0.07,-0.004 0.036,-0.015 0.047,-0.055 0.063,-0.09 0.012,-0.035 0.043,-0.05 0.078,-0.054 0.004,0 0.008,0 0.012,0 0.039,0 0.07,0.023 0.058,0.066 -0.003,0.023 -0.023,0.039 -0.043,0.055 -0.015,0.015 -0.035,0.027 -0.058,0.035 -0.02,0.008 -0.035,0.016 -0.055,0.023 -0.012,0 -0.027,0.008 -0.035,0.016 -0.023,0.016 -0.023,0.043 -0.016,0.066 0,0 -0.097,0.446 0.243,0.414 0,0 -0.118,-0.152 -0.032,-0.211 0,0 0.098,0.036 0.114,-0.082 0.015,-0.117 -0.02,-0.273 0.171,-0.257 0.004,0 0.004,0.023 0.004,0.027 0,0.016 -0.004,0.027 -0.007,0.043 -0.016,0.043 -0.047,0.07 -0.071,0.109 -0.015,0.028 -0.027,0.067 -0.031,0.098 -0.004,0.023 -0.004,0.047 0,0.07 0.008,0.024 0.02,0.043 0.039,0.055 0,0 0.012,0.004 0.012,0.004 0,0 0.027,0.183 -0.117,0.187 0,0 0.011,0.082 0.191,0.063 C 8.82,19.039 8.875,18.988 8.906,18.926 8.922,18.898 8.93,18.871 8.938,18.844 8.945,18.812 8.949,18.781 8.961,18.75 8.984,18.699 8.977,18.605 8.93,18.578 8.836,18.523 8.867,18.445 8.902,18.445 c 0.036,0 0.086,-0.011 0.106,0.032 0.008,0.019 0.008,0.043 0,0.066 -0.004,0.019 -0.02,0.035 -0.024,0.059 0,0.023 0.016,0.043 0.036,0.05 0.023,0.012 0.046,0.02 0.062,0.039 0.02,0.024 0.031,0.051 0.035,0.082 0,0.016 0.004,0.032 0.004,0.047 0,0.004 -0.004,0.059 -0.008,0.059 0,0 0.403,0.004 0.227,-0.379 0,0 -0.004,-0.078 -0.043,-0.102 C 9.172,18.336 9.082,18.16 9.176,18.039 9.203,18.004 9.238,17.977 9.27,17.953 9.312,17.918 9.355,17.887 9.395,17.855 9.426,17.832 9.477,17.773 9.512,17.77 c 0.004,0 -0.008,0.101 -0.012,0.109 -0.012,0.109 -0.02,0.246 0.09,0.309 0.055,0.027 0.125,0.042 0.183,0.023 C 9.832,18.195 9.867,18.145 9.891,18.09 9.914,18.027 9.93,17.953 9.926,17.883 9.922,17.879 9.922,17.871 9.922,17.867 c 0,0.012 -0.02,0.031 -0.027,0.039 C 9.863,17.934 9.809,17.949 9.77,17.93 9.727,17.906 9.723,17.859 9.738,17.816 c 0.02,-0.043 0.059,-0.07 0.09,-0.105 0.008,-0.008 0.035,-0.035 0.027,-0.051 0,0 0.024,0.051 0.094,0.047 0.071,-0.008 0.156,-0.078 0.121,-0.211 0.008,0.02 -0.031,0.035 -0.047,0.039 H 10.02 C 9.992,17.539 9.961,17.531 9.938,17.512 9.906,17.48 9.922,17.426 9.938,17.391 9.957,17.355 9.98,17.328 9.992,17.289 10.012,17.246 10.02,17.195 10.012,17.148 10.004,17.094 9.98,17.051 9.965,16.996 9.953,16.941 9.945,16.883 9.953,16.828 c 0,-0.031 0.004,-0.047 0.024,-0.07 0.015,-0.024 0.035,-0.047 0.05,-0.074 0.047,-0.086 0.082,-0.188 0.086,-0.289 0,0.011 -0.093,0.027 -0.105,0.031 -0.039,0.004 -0.074,0.012 -0.11,0.012 -0.07,0.003 -0.132,0 -0.191,-0.04 C 9.605,16.336 9.551,16.215 9.523,16.102 9.523,16.086 9.52,16.07 9.516,16.055 9.473,15.762 9.527,15.637 9.578,15.492 9.629,15.344 9.648,15.137 9.645,15.078 9.641,15.016 9.625,14.836 9.617,14.816 c 0.004,0.008 0.024,0.012 0.028,0.016 0.074,0.051 0.152,0.121 0.246,0.121 0.203,-0.004 0.207,-0.285 0.207,-0.426 C 10.094,14.418 10.082,14.309 10.07,14.199 10.059,14.117 9.992,13.797 9.957,13.676 9.922,13.555 9.867,13.41 9.867,13.367 c 0,-0.051 0.004,-0.121 0.051,-0.148 0.043,-0.028 0.062,-0.016 0.086,0.008 0.023,0.027 0.008,0.074 0.008,0.074 0,0 0.054,-0.016 0.043,-0.137 C 10.043,13.043 10.004,12.969 9.969,12.938 9.938,12.902 9.863,12.871 9.816,12.871 9.773,12.867 9.707,12.887 9.68,12.926 c -0.016,0.027 -0.059,0.097 -0.059,0.113 0,0 -0.125,-0.191 -0.121,-0.301 0.004,-0.144 0.062,-0.144 0.109,-0.144 0.047,0 0.11,0.058 0.141,0.082 0.027,0.023 0.031,-0.317 -0.125,-0.34 0,0 0.34,-0.188 0.262,0.262 0,0 0.222,-0.016 0.218,-0.379 0,-0.332 -0.175,-0.364 -0.269,-0.364 -0.07,-0.003 -0.145,0.02 -0.215,0.055 0,-0.094 0.004,-0.355 0.109,-0.555 0.129,-0.242 0.118,-0.656 0.125,-0.703 0,-0.007 0.02,-0.023 0.024,-0.031 0.023,-0.027 0.039,-0.059 0.059,-0.09 0.046,-0.093 0.078,-0.195 0.074,-0.301 C 10.012,10.184 10,10.141 9.988,10.098 9.969,10.043 9.949,9.992 9.965,9.938 9.977,9.91 9.98,9.883 9.984,9.859 9.996,9.777 9.996,9.691 9.965,9.613 9.941,9.543 9.891,9.48 9.824,9.445 c 0,0 0.137,0.305 -0.043,0.426 0,0 0.024,-0.105 -0.035,-0.187 C 9.684,9.602 9.617,9.555 9.621,9.41 9.625,9.262 9.656,9.199 9.656,9.199 c 0,0 -0.293,0.098 -0.261,0.383 0.031,0.281 0.156,0.344 0.156,0.344 0,0 -0.36,-0.094 -0.332,0.277 0,0 0.031,-0.125 0.152,-0.125 0.031,0 0.074,0.004 0.086,0.035 0.023,0.051 -0.004,0.106 -0.019,0.157 -0.024,0.066 -0.004,0.136 0.023,0.199 0.016,0.031 0.035,0.062 0.059,0.09 0.015,0.015 0.054,0.039 0.062,0.062 0,0 0.07,0.16 -0.016,0.406 -0.082,0.243 -0.406,1.024 -0.406,1.532 0,0 0.004,-0.012 0.008,-0.024 0,0.012 -0.004,0.027 -0.004,0.039 -0.004,0.199 0.035,0.375 0.063,0.43 0.027,0.058 0.269,0.535 0.308,0.621 0.039,0.082 0.195,0.281 0.25,0.469 0.051,0.191 0.031,0.234 0.035,0.344 0,0 0.008,0.078 -0.047,0.105 -0.054,0.027 -0.105,-0.008 -0.105,-0.008 0,0 -0.059,-0.019 -0.137,-0.16 C 9.453,14.23 9.309,13.859 9.297,13.77 9.281,13.68 9.141,13.371 9.117,13.328 9.09,13.289 8.859,12.902 9.023,12.949 c 0,0 0.071,0.016 0.086,-0.035 0,0 -0.058,-0.07 -0.062,-0.074 C 9.004,12.766 9.004,12.684 9.016,12.602 9.02,12.559 9.023,12.516 9.02,12.473 9.012,12.402 8.953,12.367 8.934,12.305 8.906,12.238 8.969,12.207 9.012,12.168 9.094,12.098 9.062,11.977 9.07,11.883 9.074,11.82 9.09,11.754 9.102,11.688 9.109,11.656 9.121,11.539 9.156,11.527 9.191,11.512 8.934,11.566 8.988,11.211 c 0,0.008 0.039,0.027 0.047,0.027 0.035,0.016 0.078,0.02 0.113,0 0.059,-0.031 0.09,-0.101 0.114,-0.16 0.011,-0.023 0.047,-0.183 0.082,-0.183 0,0 -0.125,-0.016 -0.168,0.07 -0.035,0.07 -0.125,0.031 -0.141,-0.027 -0.008,-0.04 0.012,-0.079 0.031,-0.11 0.008,-0.016 0.09,-0.137 0.09,-0.137 0,0 -0.207,0.02 -0.187,-0.171 0,0 0.062,0.078 0.199,0.082 0.164,0 0.148,-0.157 0.148,-0.278 0,0.012 -0.039,0.035 -0.046,0.039 C 9.203,10.402 9.129,10.336 9.094,10.285 9.051,10.223 9.039,10.145 9.039,10.07 9.039,9.93 9.047,9.762 9.078,9.621 9.113,9.488 9.137,9.375 9.117,9.234 9.102,9.129 9.02,9.031 9.031,8.922 9.027,8.926 9.016,8.93 9.016,8.934 9.004,8.945 8.992,8.957 8.984,8.973 8.961,9.012 8.965,9.059 8.953,9.105 8.949,9.133 8.934,9.168 8.91,9.191 8.887,9.211 8.867,9.234 8.852,9.266 8.82,9.324 8.809,9.391 8.797,9.453 8.797,9.469 8.789,9.488 8.777,9.5 8.773,9.508 8.758,9.512 8.75,9.508 8.719,9.492 8.75,9.426 8.754,9.406 8.77,9.363 8.789,9.328 8.805,9.289 8.824,9.242 8.863,9.18 8.855,9.129 8.836,9.148 8.805,9.152 8.777,9.152 8.684,9.145 8.59,9.098 8.508,9.051 8.379,8.973 8.215,8.977 8.191,8.98 8.172,8.98 7.949,8.969 7.855,9.027 7.766,9.09 7.754,9.191 7.793,9.242 7.828,9.293 7.926,9.25 7.926,9.25 c 0,0 0.097,-0.062 0.203,-0.02 0.078,0.028 0.082,0.098 0.082,0.098 0,0 0.051,0.063 0.113,0.133 0,0 -0.246,0.101 -0.476,0 0,0 0.043,0.051 0.062,0.101 0,0 -0.008,0.016 -0.121,-0.097 -0.101,-0.102 0.039,-0.082 0.039,-0.082 0,0 0.149,0.07 0.195,0.074 0.075,0.004 0.161,-0.016 0.18,-0.031 0,0 -0.066,-0.098 -0.07,-0.129 C 8.125,9.262 8.105,9.262 8.098,9.262 8.086,9.258 8.07,9.273 8.082,9.293 8.098,9.312 8.141,9.332 8.113,9.395 8.098,9.438 8.027,9.406 8.027,9.406 8.027,9.406 7.953,9.41 8,9.352 8.02,9.324 8,9.336 8.016,9.285 8.02,9.277 7.945,9.301 7.941,9.305 7.934,9.312 7.906,9.332 7.832,9.332 c -0.07,0 -0.137,-0.035 -0.121,-0.117 0,0 -0.203,-0.027 -0.305,0.156 -0.054,0.094 -0.008,0.137 -0.008,0.137 0,0 0.086,-0.098 0.168,-0.086 0,0 -0.128,0.125 -0.101,0.191 0.027,0.071 0.035,0.106 0.187,0.258 0,0 0.012,-0.062 0.047,-0.074 0.039,-0.008 0.071,-0.008 0.11,0.027 0.039,0.039 0.058,0.063 0.066,0.074 0,0 0.023,-0.101 0.105,-0.101 0.082,0 0.165,0.137 0.184,0.176 0,0 -0.016,-0.211 0.094,-0.207 0.074,0.004 0.109,0.058 0.082,0.156 -0.012,0.039 -0.063,0.066 -0.063,0.07 0,0.004 -0.148,0.086 -0.164,0.133 0,0.004 0,0 0,0.004 0,0 -0.058,-0.164 -0.254,-0.184 C 7.668,9.926 7.551,9.938 7.551,9.938 c 0,0 -0.196,0.011 -0.285,-0.055 C 7.176,9.812 7.141,9.664 7.164,9.582 c 0,0 -0.293,0.055 -0.301,0.227 -0.008,0.168 0.149,0.281 0.149,0.281 0,0 0.176,0.121 0.386,0.101 0.215,-0.019 0.231,-0.05 0.329,-0.046 0.125,0.007 0.218,0.023 0.347,0.109 0.125,0.086 -0.051,0.133 -0.07,0.105 -0.02,-0.023 -0.074,-0.086 -0.074,-0.105 0,0 -0.063,0.019 -0.067,0.047 0,0 -0.093,-0.024 -0.109,-0.074 0,0 -0.102,0.015 -0.09,0.121 0.012,0.101 0.051,0.175 0.113,0.195 0.063,0.019 0.121,-0.008 0.157,-0.012 0.039,-0.004 0.078,0.024 0.086,0.055 0.007,0.031 0.023,0.066 -0.004,0.113 -0.032,0.047 -0.137,0.102 -0.161,0.106 -0.019,0 -0.23,0.043 -0.293,0.07 -0.16,0.074 -0.23,0.145 -0.238,0.164 C 7.305,11.008 7.129,10.805 7.094,10.719 7.059,10.625 6.891,10.34 6.844,10.277 6.797,10.215 6.543,9.902 6.543,9.902 c 0,0 -0.117,-0.09 -0.117,-0.175 0,-0.086 0,-0.149 0.09,-0.204 C 6.602,9.473 6.633,9.465 6.676,9.367 6.715,9.273 6.609,9.195 6.547,9.188 6.547,9.188 6.48,9.02 6.34,8.949 6.293,8.922 6.258,8.914 6.23,8.91 Z m 0.036,0.078 c 0,0 0.007,0.004 0.007,0.004 v 0.004 c 0.032,0.055 0.028,0.242 0.028,0.242 0,0 -0.004,0 -0.004,0 0,0 0.004,-0.199 -0.031,-0.25 z M 5.691,9.207 c -0.007,0 -0.011,0 -0.019,0.004 C 5.68,9.207 5.684,9.207 5.691,9.207 Z M 5.664,9.215 C 5.625,9.23 5.605,9.254 5.602,9.258 L 5.598,9.262 c 0.117,0 0.207,0.156 0.207,0.156 0,0 -0.004,0 -0.004,0.004 0,0 -0.09,-0.156 -0.207,-0.16 0,0 0.023,-0.028 0.07,-0.047 z M 7.09,9.691 c -0.004,0 -0.004,0 -0.004,0 z M 7.023,9.715 C 6.98,9.738 6.934,9.781 6.953,9.855 6.984,9.969 7.004,10.004 7.09,10.043 7.004,10.004 6.98,9.969 6.949,9.855 6.926,9.777 6.98,9.734 7.023,9.715 Z M 5.602,9.91 c 0,0 0.007,0 0.007,0 0.047,0.137 0.11,0.195 0.168,0.211 C 5.715,10.105 5.652,10.051 5.602,9.91 Z M 5.938,9.93 V 9.934 C 5.914,9.941 5.895,9.945 5.871,9.949 5.895,9.945 5.914,9.938 5.938,9.93 Z m 1.519,0.062 c 0.031,0 0.078,0 0.141,0 -0.059,0 -0.114,0 -0.141,0 z m -0.348,0.059 c 0.016,0.008 0.032,0.011 0.047,0.019 0.02,0.004 0.035,0.012 0.051,0.016 C 7.191,10.082 7.176,10.078 7.152,10.07 7.133,10.062 7.125,10.059 7.109,10.051 Z m 0.606,0.027 c 0.004,0 0.008,0 0.015,0 0.032,0.004 0.223,0.02 0.332,0.106 v 0.007 C 7.949,10.098 7.758,10.082 7.723,10.078 c -0.02,0 -0.039,0 -0.059,0.004 0.02,-0.004 0.035,-0.004 0.051,-0.004 z M 7.23,10.094 c 0.008,0 0.016,0.004 0.02,0.004 -0.004,0 -0.012,-0.004 -0.02,-0.004 z m 0.079,0.015 c 0.011,0 0.027,0 0.039,0.004 -0.012,0 -0.028,-0.004 -0.039,-0.004 z m 0.156,0 c -0.004,0 -0.004,0 -0.008,0 -0.008,0 -0.016,0 -0.027,0.004 0.011,-0.004 0.023,-0.004 0.035,-0.004 z m -1.672,0.012 c 0.004,0 0.008,0.004 0.012,0.004 -0.004,0 -0.008,-0.004 -0.012,-0.004 z m 0.242,0.277 c 0,0 0.004,0 0.004,0 0,0 -0.004,0 -0.004,0.004 0,0.02 -0.039,0.032 -0.082,0.036 0.039,-0.004 0.078,-0.016 0.078,-0.036 0,-0.004 0,-0.004 0.004,-0.004 z m -0.156,0.047 c 0,0 0.004,0 0.004,0 C 5.93,10.5 5.969,10.531 6.004,10.543 5.969,10.531 5.926,10.504 5.879,10.445 Z m 0.156,0.106 c 0.004,0 0.008,0 0.012,0 -0.004,0.004 -0.008,0 -0.012,0 z M 5.852,13.926 5.82,13.941 c -0.148,0.118 -0.136,0.219 -0.132,0.243 0,0.004 -0.004,0.004 -0.004,0.004 0,0 -0.039,-0.114 0.128,-0.247 z m 0.086,0.164 c 0.003,0 0.007,0 0.011,0 -0.004,0 -0.011,0.004 -0.023,0.004 0.004,0 0.008,-0.004 0.012,-0.004 z m 0.976,0.226 c -0.043,0.032 -0.074,0.086 -0.082,0.145 0,0.019 0,0.051 0.02,0.062 C 6.828,14.512 6.828,14.48 6.828,14.461 6.832,14.402 6.867,14.348 6.914,14.316 Z m -0.035,0.211 c 0.012,0 0.019,0.004 0.027,0.004 0.039,0.008 0.078,0.024 0.106,0.047 0,0 0,0 0,0.004 -0.028,-0.023 -0.067,-0.043 -0.106,-0.051 -0.008,-0.004 -0.019,0 -0.031,0 0.004,0 0.004,-0.004 0.004,-0.004 z m -0.934,0.055 c 0,0 0.004,0 0.004,0 L 5.934,14.637 C 5.863,14.895 6,14.98 6.062,15.008 6.004,14.988 5.855,14.91 5.93,14.637 Z m 0.539,0.063 c 0,0 0.008,0.003 0.008,0.003 L 6.48,14.699 c 0.004,0.067 -0.097,0.18 -0.097,0.18 -0.004,0 -0.004,0 -0.008,0 0,0 0.105,-0.113 0.102,-0.18 z M 6.328,16.5 c -0.004,0.004 -0.012,0.008 -0.016,0.008 0.004,0 0.008,-0.004 0.016,-0.008 z m -0.019,0.012 c -0.02,0.011 -0.032,0.027 -0.039,0.047 0.007,-0.02 0.019,-0.036 0.039,-0.047 z m -0.051,0.062 c -0.035,0.086 -0.012,0.203 -0.004,0.219 0.008,0.027 0.016,0.039 0.019,0.047 0,0.004 -0.003,0.008 -0.003,0.012 0,0 -0.008,-0.02 -0.02,-0.055 -0.008,-0.016 -0.027,-0.133 0.008,-0.223 z m 0.152,0.102 c 0.016,0 0.028,0.004 0.035,0.004 0,0 -0.015,-0.004 -0.035,-0.004 z m 0.098,0.386 v 0.004 L 6.484,17.09 c 0,0.004 -0.004,0.008 -0.007,0.012 C 6.48,17.098 6.48,17.094 6.48,17.09 Z m 0.75,0.063 C 7.25,17.133 7.246,17.141 7.242,17.148 7.246,17.141 7.25,17.133 7.258,17.125 Z M 6.457,17.137 C 6.445,17.16 6.441,17.18 6.434,17.203 6.441,17.18 6.445,17.16 6.457,17.137 Z M 7.238,17.16 C 7.234,17.172 7.234,17.18 7.234,17.18 L 7.23,17.176 c 0,0 0.008,-0.008 0.008,-0.016 z m -0.004,0.02 c 0.02,0.008 0.032,0.015 0.043,0.027 0.082,0.07 0.024,0.168 0.024,0.172 -0.004,0 -0.004,0.004 -0.004,0.004 0,0 0.062,-0.106 -0.02,-0.176 C 7.266,17.195 7.25,17.188 7.234,17.18 Z m -0.808,0.05 c -0.031,0.157 0.054,0.266 0.074,0.29 -0.004,0 -0.004,0 -0.004,0 -0.004,-0.004 -0.101,-0.118 -0.07,-0.29 z m 0.492,0.133 c 0,-0.004 0.004,0 0.004,0 -0.008,0 -0.016,0.004 -0.02,0.004 0.004,0 0.004,-0.004 0.016,-0.004 z m -0.027,0.008 c 0,0 0.004,0 0.004,0 0,0 0.05,0.129 -0.032,0.266 0,0 -0.004,0 -0.004,0 0.086,-0.133 0.032,-0.266 0.032,-0.266 z m 1.082,0.82 c 0,0.004 -0.004,0.008 -0.004,0.008 0,-0.004 0.004,-0.004 0.004,-0.008 z m -0.02,0.039 c 0,0.008 -0.004,0.012 -0.004,0.016 0,-0.004 0.004,-0.008 0.004,-0.016 z m -0.008,0.04 c 0,0.007 0,0.015 0,0.019 0,-0.008 0,-0.012 0,-0.019 z m 0.133,0.062 c 0.016,0 0.031,0.004 0.043,0.004 C 8.105,18.332 8.094,18.332 8.078,18.332 Z M 7.953,18.34 c 0,0.012 0.004,0.019 0.004,0.027 0.004,0.012 0.008,0.016 0.008,0.016 0,0 0,0.004 0,0.004 0,0 -0.004,-0.012 -0.008,-0.02 0,-0.008 -0.004,-0.012 -0.004,-0.027 z m 0.02,0.023 c -0.004,0.008 -0.004,0.012 -0.008,0.02 0.004,-0.008 0.008,-0.012 0.008,-0.02 z m 0.332,0.184 c 0,0 -0.012,0.031 -0.02,0.074 0,0.008 0,0.016 -0.004,0.024 0.004,-0.008 0.004,-0.016 0.004,-0.024 0.008,-0.043 0.02,-0.074 0.02,-0.074 z m -0.028,0.129 c 0,0.008 0,0.015 0,0.027 0,-0.012 0,-0.019 0,-0.027 z m 0.008,0.062 c 0,0.008 0,0.012 0,0.016 0,-0.004 0,-0.008 0,-0.016 z m 0.016,0.063 c 0.004,0.004 0.004,0.008 0.008,0.011 C 8.305,18.809 8.305,18.805 8.301,18.801 Z m 0.015,0.027 c 0.004,0 0.004,0.004 0.004,0.004 0,0 0,-0.004 -0.004,-0.004 z"
       style="fill:#231f20;fill-opacity:1;fill-rule:nonzero;stroke:none"
       transform="scale(1.3333333)" />
    <path
       id="path4"
       d="m 7.398,17.102 c 0,0 0.114,0.222 -0.097,0.281 0,0 0.082,-0.137 -0.067,-0.207 0,0 0.016,-0.071 0.067,-0.082 0.054,-0.012 0.097,0.008 0.097,0.008 m -0.503,0.269 c 0,0 0.035,-0.019 0.101,-0.019 0.066,0 0.106,0.043 0.106,0.043 0,0.226 -0.239,0.242 -0.239,0.242 0.082,-0.133 0.032,-0.266 0.032,-0.266 M 6.512,17.062 c 0,0 0.152,0.079 0.164,0.204 0,0 -0.125,0.078 -0.176,0.257 0,0 -0.172,-0.183 -0.016,-0.433 z M 6.453,16.68 c 0,0 -0.187,-0.059 -0.176,0.168 0,0 -0.011,-0.016 -0.023,-0.051 -0.008,-0.027 -0.063,-0.285 0.125,-0.309 0,0 0.031,-0.004 0.039,-0.004 0.008,0 0.074,0.071 0.035,0.196 m 0.418,-2.149 c -0.035,0.004 -0.043,-0.047 -0.039,-0.07 0.004,-0.059 0.039,-0.113 0.086,-0.145 0.043,0.02 0.074,0.067 0.086,0.114 0.016,0.05 0.016,0.101 0.012,0.152 C 6.977,14.551 6.922,14.527 6.875,14.531 m -0.383,0.114 c 0,0 0.11,0.019 0.129,0.074 0,0 -0.051,0.195 -0.238,0.16 0,0 0.101,-0.113 0.097,-0.18 z M 5.949,14.582 c 0,0 0.18,0.027 0.196,0.137 0,0 -0.161,0.086 -0.055,0.301 0,0 -0.246,-0.055 -0.156,-0.383 z M 5.855,13.926 c 0,0 0.083,0.008 0.102,0.164 0,0 -0.211,0.012 -0.269,0.098 0,0 -0.036,-0.114 0.132,-0.247 z M 8.086,10.16 8.066,10.188 C 7.953,10.098 7.762,10.082 7.727,10.078 7.648,10.07 7.574,10.105 7.465,10.109 7.355,10.117 7.301,10.121 7.156,10.07 7.012,10.02 6.992,9.992 6.953,9.855 6.918,9.719 7.094,9.691 7.094,9.691 7.09,9.727 7.102,9.785 7.102,9.785 7.125,9.953 7.395,9.984 7.457,9.992 7.52,9.996 7.664,9.98 7.836,9.996 c 0.176,0.016 0.25,0.164 0.25,0.164 m -2.051,0.242 c 0,-0.019 0.074,0.016 0.129,0.086 0,0 -0.113,0.172 -0.281,-0.043 0,0 0.152,0 0.152,-0.043 M 5.973,10.059 c 0,0 -0.239,0.222 -0.364,-0.153 0,0 0.137,0.09 0.332,0.028 0,0 0.047,0.058 0.032,0.125 M 5.965,9.297 c 0,0 -0.074,0.101 -0.16,0.125 0,0 -0.09,-0.156 -0.207,-0.16 0,0 0.113,-0.141 0.328,-0.008 z M 6.48,9.195 6.469,9.152 C 6.43,9.043 6.27,8.988 6.27,8.988 6.305,9.039 6.301,9.238 6.301,9.238 6.359,9.25 6.48,9.195 6.48,9.195 m 2.711,9.606 c 0,0 0.215,-0.102 0.047,-0.281 0,0 -0.164,0.019 -0.148,0.085 0,0 0.113,0.036 0.098,0.141 z m -0.453,-0.004 0.008,0.047 c 0.016,0.066 -0.055,0.152 -0.055,0.152 0.157,0.008 0.18,-0.211 0.18,-0.211 -0.059,-0.027 -0.133,0.012 -0.133,0.012 M 8.402,18.672 c 0,0 -0.023,-0.137 -0.093,-0.121 0,0 -0.11,0.25 0.101,0.355 0,0 -0.098,-0.133 -0.027,-0.187 0.027,-0.02 0.019,-0.047 0.019,-0.047 M 8.16,18.121 c 0,0 0.024,0.152 0.004,0.223 0,0 -0.18,-0.043 -0.195,0.043 0,0 -0.082,-0.199 0.09,-0.25"
       style="fill:#d71920;fill-opacity:1;fill-rule:nonzero;stroke:none"
       transform="scale(1.3333333)" />
    <path
       id="path5"
       d="m 10.527,8.203 v 3.438 h 5.071 V 8.203"
       style="fill:#d71920;fill-opacity:1;fill-rule:nonzero;stroke:none"
       transform="scale(1.3333333)" />
    <path
       id="path6"
       d="m 10.527,11.781 h 5.07 v 3.352 h -5.07 z"
       style="fill:#e6e7e8;fill-opacity:1;fill-rule:nonzero;stroke:none"
       transform="scale(1.3333333)" />
    <path
       id="path7"
       d="m 11.977,19.633 c 0.789,-0.195 1.503,-0.598 2.089,-1.16 0.551,-0.528 0.985,-1.176 1.25,-1.891 0.145,-0.391 0.266,-0.82 0.282,-1.246 v -0.063 h -5.071 v 4.547 c 0.489,-0.019 0.981,-0.074 1.45,-0.187"
       style="fill:#d71920;fill-opacity:1;fill-rule:nonzero;stroke:none"
       transform="scale(1.3333333)" />
    <path
       id="path8"
       d="m 12.797,7.762 c 0,0 0,0.004 -0.004,0.004 0,0 0,-0.004 0,-0.004 C 12.375,7.055 12.379,6.23 12.379,6.23 c 0.027,-0.183 0.144,0.25 0.223,0.418 0.066,0.149 0.175,0.145 0.191,0.145 h 0.004 c 0.012,0 0.125,0.004 0.191,-0.145 0.078,-0.168 0.196,-0.601 0.223,-0.418 0,0 0.004,0.825 -0.414,1.532 M 10.492,7.637 c 0,0 -0.004,0 -0.004,0 C 10.07,6.93 10.074,6.102 10.074,6.102 c 0.028,-0.184 0.145,0.25 0.223,0.418 0.066,0.148 0.18,0.148 0.191,0.144 0,0 0.004,0 0.004,0 0.012,0.004 0.125,0.004 0.196,-0.144 0.074,-0.168 0.191,-0.602 0.218,-0.418 0,0 0.004,0.828 -0.414,1.535 M 8.188,7.762 c 0,0 0,0.004 0,0.004 0,0 0,-0.004 0,-0.004 C 7.766,7.055 7.77,6.23 7.77,6.23 7.797,6.047 7.914,6.48 7.992,6.648 c 0.07,0.149 0.18,0.145 0.196,0.145 0.015,0 0.124,0.004 0.195,-0.145 C 8.457,6.48 8.574,6.047 8.605,6.23 c 0,0 0,0.825 -0.417,1.532 m 7.027,-1.301 c -0.094,-0.273 -0.352,-0.473 -0.66,-0.473 -0.211,0 -0.407,0.094 -0.539,0.258 L 13.875,6.422 13.742,6.238 C 13.527,5.934 13.176,5.754 12.805,5.754 c -0.367,0 -0.703,0.168 -0.926,0.461 L 11.762,6.371 11.621,6.23 C 11.324,5.922 10.926,5.754 10.5,5.754 c -0.004,0 -0.004,0 -0.008,0 -0.004,0 -0.008,0 -0.012,0 -0.425,0 -0.824,0.168 -1.121,0.476 L 9.219,6.371 9.102,6.215 C 8.879,5.922 8.543,5.754 8.18,5.754 7.805,5.754 7.453,5.934 7.238,6.238 L 7.109,6.422 6.969,6.246 C 6.832,6.082 6.637,5.988 6.426,5.988 6.117,5.988 5.852,6.191 5.762,6.473 5.754,6.52 5.727,6.684 5.777,6.824 5.789,6.852 5.801,6.879 5.809,6.902 5.836,6.957 5.883,7 5.945,7.016 6.008,7.035 6.09,7.035 6.148,7.004 6.227,6.961 6.258,6.875 6.289,6.797 6.312,6.727 6.34,6.656 6.363,6.586 6.383,6.539 6.402,6.48 6.434,6.434 6.457,6.402 6.477,6.43 6.477,6.461 c 0,0 0.043,0.699 -0.274,1.363 0.043,0.074 0.09,0.153 0.137,0.227 h 8.301 c 0.047,-0.074 0.093,-0.149 0.136,-0.227 -0.316,-0.66 -0.273,-1.363 -0.273,-1.363 0,-0.031 0.019,-0.059 0.043,-0.027 0.031,0.046 0.047,0.105 0.066,0.152 0.028,0.07 0.051,0.141 0.078,0.211 0.032,0.078 0.063,0.164 0.141,0.207 0.059,0.031 0.141,0.031 0.203,0.012 0.059,-0.016 0.11,-0.059 0.133,-0.114 0.012,-0.023 0.02,-0.05 0.031,-0.078 0.059,-0.152 0.02,-0.336 0.016,-0.363"
       style="fill:#ffffff;fill-opacity:1;fill-rule:evenodd;stroke:none"
       transform="scale(1.3333333)" />
    <path
       id="path9"
       d="m 10.797,5.141 c 0,-0.184 -0.149,-0.329 -0.328,-0.329 -0.184,0 -0.328,0.145 -0.328,0.329 0,0.179 0.144,0.328 0.328,0.328 0.179,0 0.328,-0.149 0.328,-0.328"
       style="fill:#ffffff;fill-opacity:1;fill-rule:nonzero;stroke:none"
       transform="scale(1.3333333)" />
    <path
       id="path10"
       d="m 10.469,3.98 c -0.184,0 -0.328,0.149 -0.328,0.332 0,0.18 0.144,0.329 0.328,0.329 0.179,0 0.328,-0.149 0.328,-0.329 0,-0.183 -0.149,-0.332 -0.328,-0.332"
       style="fill:#ffffff;fill-opacity:1;fill-rule:nonzero;stroke:none"
       transform="scale(1.3333333)" />
    <path
       id="path11"
       d="M 6.891,5.953 C 6.793,5.621 6.738,5.277 6.734,4.926 c 0,-0.012 0,-0.063 0,-0.063 C 6.75,4.145 7.324,3.562 8.043,3.539 h 0.035 c 0.027,0 0.067,0 0.082,0 0.66,0.02 1.301,0.207 1.863,0.547 C 10.09,3.961 10.203,3.863 10.344,3.828 10.254,3.812 10.16,3.781 10.078,3.738 9.449,3.422 8.773,3.246 8.066,3.227 c -0.019,0 -0.062,0 -0.097,0 H 7.93 c -0.813,0.027 -1.465,0.687 -1.485,1.5 0,0 0,0.062 0,0.074 0.004,0.347 0.051,0.695 0.133,1.031 0.113,0.023 0.219,0.063 0.313,0.121"
       style="fill:#ffc20e;fill-opacity:1;fill-rule:nonzero;stroke:none"
       transform="scale(1.3333333)" />
    <path
       id="path12"
       d="m 14.406,5.832 c 0.078,-0.336 0.125,-0.684 0.129,-1.031 0,-0.012 0,-0.082 0,-0.082 C 14.516,3.91 13.863,3.254 13.051,3.227 h -0.039 c -0.035,0 -0.082,0 -0.098,0 -0.687,0.019 -1.348,0.183 -1.961,0.488 -0.094,0.047 -0.211,0.097 -0.34,0.117 0.137,0.043 0.25,0.145 0.309,0.273 0.574,-0.351 1.223,-0.546 1.902,-0.566 0.008,0 0.051,0 0.082,0 h 0.035 c 0.715,0.023 1.289,0.606 1.305,1.32 0,0 0,0.016 0,0.024 L 14.25,4.895 14.246,4.926 C 14.242,5.277 14.188,5.621 14.09,5.953 14.184,5.895 14.289,5.855 14.402,5.832"
       style="fill:#ffc20e;fill-opacity:1;fill-rule:nonzero;stroke:none"
       transform="scale(1.3333333)" />
    <path
       id="path13"
       d="M 7.109,6.082 7.121,6.113 C 7.363,5.793 7.746,5.582 8.18,5.582 8.613,5.582 8.996,5.789 9.238,6.113 9.508,5.836 9.867,5.648 10.27,5.598 10.094,5.52 9.969,5.344 9.969,5.141 9.969,4.969 10.059,4.816 10.191,4.727 10.059,4.637 9.969,4.484 9.969,4.312 9.969,4.293 9.973,4.273 9.973,4.254 9.426,3.918 8.801,3.727 8.152,3.707 c -0.011,0 -0.047,0 -0.074,0 H 8.047 C 7.422,3.73 6.918,4.238 6.902,4.863 c 0,0 0,0.047 0,0.059 0.008,0.398 0.078,0.789 0.207,1.16"
       style="fill:#d71920;fill-opacity:1;fill-rule:evenodd;stroke:none"
       transform="scale(1.3333333)" />
    <path
       id="path14"
       d="m 12.801,5.582 c 0.433,0 0.82,0.211 1.058,0.531 C 14,5.73 14.07,5.332 14.078,4.922 V 4.867 C 14.062,4.238 13.562,3.73 12.938,3.707 h -0.032 c -0.027,0 -0.062,0 -0.078,0 -0.664,0.02 -1.305,0.219 -1.863,0.57 0.004,0.012 0.004,0.024 0.004,0.035 0,0.172 -0.09,0.325 -0.223,0.415 0.133,0.089 0.223,0.242 0.223,0.414 0,0.199 -0.121,0.371 -0.289,0.453 0.414,0.043 0.789,0.234 1.062,0.519 0.242,-0.324 0.629,-0.531 1.059,-0.531"
       style="fill:#d71920;fill-opacity:1;fill-rule:evenodd;stroke:none"
       transform="scale(1.3333333)" />
    <path
       id="path15"
       d="m 10.492,3.645 c 0.387,0 0.699,-0.317 0.699,-0.704 0,-0.308 -0.207,-0.586 -0.507,-0.671 L 10.625,2.25 V 1.871 h 0.437 V 1.602 H 10.625 V 1.164 h -0.27 V 1.602 H 9.914 v 0.269 h 0.441 V 2.25 L 10.293,2.27 C 9.996,2.355 9.789,2.633 9.789,2.941 c 0,0.387 0.316,0.704 0.703,0.704"
       style="fill:#ffc20e;fill-opacity:1;fill-rule:nonzero;stroke:none"
       transform="scale(1.3333333)" />
    <path
       id="path16"
       d="m 15.27,5.297 c -0.184,0 -0.329,0.144 -0.329,0.328 0,0.18 0.145,0.328 0.329,0.328 0.179,0 0.328,-0.148 0.328,-0.328 0,-0.184 -0.149,-0.328 -0.328,-0.328"
       style="fill:#ffffff;fill-opacity:1;fill-rule:nonzero;stroke:none"
       transform="scale(1.3333333)" />
    <path
       id="path17"
       d="m 15.684,4.727 c 0,-0.184 -0.149,-0.332 -0.329,-0.332 -0.183,0 -0.332,0.148 -0.332,0.332 0,0.179 0.149,0.328 0.332,0.328 0.18,0 0.329,-0.149 0.329,-0.328"
       style="fill:#ffffff;fill-opacity:1;fill-rule:nonzero;stroke:none"
       transform="scale(1.3333333)" />
    <path
       id="path18"
       d="m 15.164,3.449 c -0.184,0 -0.328,0.149 -0.328,0.332 0,0.18 0.144,0.328 0.328,0.328 0.18,0 0.328,-0.148 0.328,-0.328 0,-0.183 -0.148,-0.332 -0.328,-0.332"
       style="fill:#ffffff;fill-opacity:1;fill-rule:nonzero;stroke:none"
       transform="scale(1.3333333)" />
    <path
       id="path19"
       d="m 14.59,2.648 c -0.18,0 -0.328,0.149 -0.328,0.329 0,0.183 0.148,0.328 0.328,0.328 0.18,0 0.328,-0.145 0.328,-0.328 0,-0.18 -0.148,-0.329 -0.328,-0.329"
       style="fill:#ffffff;fill-opacity:1;fill-rule:nonzero;stroke:none"
       transform="scale(1.3333333)" />
    <path
       id="path20"
       d="m 13.719,2.191 c -0.184,0 -0.328,0.149 -0.328,0.329 0,0.183 0.144,0.332 0.328,0.332 0.183,0 0.328,-0.149 0.328,-0.332 0,-0.18 -0.145,-0.329 -0.328,-0.329"
       style="fill:#ffffff;fill-opacity:1;fill-rule:nonzero;stroke:none"
       transform="scale(1.3333333)" />
    <path
       id="path21"
       d="m 12.754,2.102 c -0.184,0 -0.332,0.148 -0.332,0.332 0,0.179 0.148,0.328 0.332,0.328 0.18,0 0.328,-0.149 0.328,-0.328 0,-0.184 -0.148,-0.332 -0.328,-0.332"
       style="fill:#ffffff;fill-opacity:1;fill-rule:nonzero;stroke:none"
       transform="scale(1.3333333)" />
    <path
       id="path22"
       d="m 11.777,2.234 c -0.179,0 -0.328,0.149 -0.328,0.328 0,0.184 0.149,0.329 0.328,0.329 0.184,0 0.328,-0.145 0.328,-0.329 0,-0.179 -0.144,-0.328 -0.328,-0.328"
       style="fill:#ffffff;fill-opacity:1;fill-rule:nonzero;stroke:none"
       transform="scale(1.3333333)" />
    <path
       id="path23"
       d="m 9.219,2.234 c -0.18,0 -0.328,0.149 -0.328,0.328 0,0.184 0.148,0.329 0.328,0.329 0.183,0 0.332,-0.145 0.332,-0.329 0,-0.179 -0.149,-0.328 -0.332,-0.328"
       style="fill:#ffffff;fill-opacity:1;fill-rule:nonzero;stroke:none"
       transform="scale(1.3333333)" />
    <path
       id="path24"
       d="m 8.246,2.102 c -0.184,0 -0.328,0.148 -0.328,0.332 0,0.179 0.144,0.328 0.328,0.328 0.18,0 0.328,-0.149 0.328,-0.328 0,-0.184 -0.148,-0.332 -0.328,-0.332"
       style="fill:#ffffff;fill-opacity:1;fill-rule:nonzero;stroke:none"
       transform="scale(1.3333333)" />
    <path
       id="path25"
       d="m 7.281,2.191 c -0.183,0 -0.332,0.149 -0.332,0.329 0,0.183 0.149,0.332 0.332,0.332 0.18,0 0.328,-0.149 0.328,-0.332 0,-0.18 -0.148,-0.329 -0.328,-0.329"
       style="fill:#ffffff;fill-opacity:1;fill-rule:nonzero;stroke:none"
       transform="scale(1.3333333)" />
    <path
       id="path26"
       d="m 6.41,2.648 c -0.183,0 -0.332,0.149 -0.332,0.329 0,0.183 0.149,0.328 0.332,0.328 0.18,0 0.328,-0.145 0.328,-0.328 0,-0.18 -0.148,-0.329 -0.328,-0.329"
       style="fill:#ffffff;fill-opacity:1;fill-rule:nonzero;stroke:none"
       transform="scale(1.3333333)" />
    <path
       id="path27"
       d="m 5.504,3.781 c 0,0.18 0.148,0.328 0.332,0.328 0.18,0 0.328,-0.148 0.328,-0.328 0,-0.183 -0.148,-0.332 -0.328,-0.332 -0.184,0 -0.332,0.149 -0.332,0.332"
       style="fill:#ffffff;fill-opacity:1;fill-rule:nonzero;stroke:none"
       transform="scale(1.3333333)" />
    <path
       id="path28"
       d="m 5.645,5.055 c 0.179,0 0.328,-0.149 0.328,-0.328 0,-0.184 -0.149,-0.332 -0.328,-0.332 -0.184,0 -0.329,0.148 -0.329,0.332 0,0.179 0.145,0.328 0.329,0.328"
       style="fill:#ffffff;fill-opacity:1;fill-rule:nonzero;stroke:none"
       transform="scale(1.3333333)" />
    <path
       id="path29"
       d="m 5.73,5.953 c 0.18,0 0.329,-0.148 0.329,-0.328 0,-0.184 -0.149,-0.328 -0.329,-0.328 -0.183,0 -0.332,0.144 -0.332,0.328 0,0.18 0.149,0.328 0.332,0.328"
       style="fill:#ffffff;fill-opacity:1;fill-rule:nonzero;stroke:none"
       transform="scale(1.3333333)" />
    <path
       id="path30"
       d="m 14.641,8.051 c 0.047,-0.074 0.093,-0.153 0.136,-0.227 -0.316,-0.66 -0.273,-1.363 -0.273,-1.363 0,-0.031 0.019,-0.059 0.043,-0.027 0.031,0.043 0.047,0.101 0.066,0.152 0.028,0.07 0.051,0.141 0.078,0.211 0.032,0.078 0.063,0.164 0.141,0.207 0.059,0.031 0.141,0.031 0.203,0.012 0.059,-0.016 0.11,-0.059 0.133,-0.114 0.012,-0.023 0.02,-0.05 0.031,-0.078 0.059,-0.152 0.02,-0.336 0.016,-0.363 -0.094,-0.273 -0.356,-0.473 -0.66,-0.473 -0.211,0 -0.41,0.094 -0.543,0.258 L 13.871,6.422 13.742,6.238 c -0.215,-0.304 -0.57,-0.484 -0.941,-0.484 -0.363,0 -0.703,0.168 -0.922,0.461 L 11.758,6.371 11.621,6.23 C 11.324,5.922 10.926,5.754 10.5,5.754 c -0.004,0 -0.008,0 -0.008,0 -0.004,0 -0.008,0 -0.012,0 -0.425,0 -0.824,0.168 -1.121,0.476 L 9.223,6.371 9.102,6.215 C 8.883,5.922 8.547,5.754 8.18,5.754 7.809,5.754 7.457,5.934 7.238,6.238 L 7.109,6.422 6.969,6.246 C 6.836,6.082 6.637,5.988 6.426,5.988 6.117,5.988 5.855,6.191 5.762,6.473 5.754,6.52 5.73,6.684 5.781,6.824 5.793,6.852 5.801,6.879 5.812,6.902 5.836,6.957 5.883,7 5.945,7.016 6.008,7.035 6.09,7.035 6.148,7.004 6.227,6.961 6.258,6.875 6.289,6.797 6.312,6.727 6.34,6.656 6.363,6.586 6.387,6.535 6.402,6.477 6.434,6.434 6.461,6.402 6.477,6.43 6.477,6.461 c 0,0 0.043,0.699 -0.274,1.363 0.043,0.074 0.09,0.153 0.141,0.227 z m -4.114,0.152 v 3.438 h 5.071 V 8.203 Z m 5.071,3.578 h -5.071 v 3.352 h 5.071 z m 0,3.492 h -5.071 v 4.547 c 0.489,-0.019 0.981,-0.074 1.45,-0.187 0.789,-0.195 1.503,-0.602 2.089,-1.16 0.551,-0.528 0.981,-1.176 1.25,-1.891 0.145,-0.391 0.266,-0.82 0.282,-1.246 z M 10.387,8.203 H 5.375 c 0,0 -0.012,6.067 0.004,7.344 C 5.398,16.82 6.398,18 6.398,18 c 0,0 0.856,1 2.043,1.457 0.997,0.387 1.735,0.379 1.946,0.371 z M 6.059,5.625 C 6.059,5.441 5.91,5.293 5.73,5.293 c -0.183,0 -0.332,0.148 -0.332,0.332 0,0.18 0.149,0.328 0.332,0.328 0.18,0 0.329,-0.148 0.329,-0.328 M 5.645,5.055 c 0.179,0 0.328,-0.149 0.328,-0.328 0,-0.184 -0.149,-0.332 -0.328,-0.332 -0.184,0 -0.329,0.148 -0.329,0.332 0,0.179 0.145,0.328 0.329,0.328 M 5.836,4.109 c 0.18,0 0.328,-0.148 0.328,-0.328 0,-0.183 -0.148,-0.332 -0.328,-0.332 -0.184,0 -0.332,0.149 -0.332,0.332 0,0.18 0.148,0.328 0.332,0.328 M 6.078,2.977 c 0,0.183 0.149,0.328 0.328,0.328 0.184,0 0.332,-0.145 0.332,-0.328 0,-0.18 -0.148,-0.329 -0.332,-0.329 -0.179,0 -0.328,0.149 -0.328,0.329 m 0.328,0.5 c -0.082,0 -0.156,-0.02 -0.226,-0.055 0.093,0.09 0.152,0.219 0.152,0.359 0,0.266 -0.207,0.481 -0.469,0.496 0.164,0.082 0.282,0.25 0.282,0.45 0,0.179 -0.102,0.339 -0.247,0.429 0.192,0.067 0.329,0.254 0.329,0.469 0,0.086 -0.02,0.164 -0.059,0.238 C 6.242,5.836 6.32,5.824 6.398,5.82 6.324,5.488 6.281,5.148 6.273,4.805 c 0,-0.012 0,-0.082 0,-0.082 C 6.297,3.816 7.02,3.086 7.926,3.055 h 0.043 c 0.035,0 0.086,0 0.105,0.004 C 8.656,3.074 9.223,3.191 9.754,3.41 9.668,3.273 9.617,3.113 9.617,2.941 9.617,2.914 9.621,2.883 9.625,2.855 9.535,2.98 9.387,3.062 9.223,3.062 8.953,3.062 8.734,2.848 8.723,2.582 8.66,2.785 8.469,2.93 8.246,2.93 8.027,2.93 7.84,2.789 7.773,2.594 7.738,2.832 7.531,3.02 7.281,3.02 7.117,3.02 6.977,2.941 6.883,2.824 6.902,2.871 6.91,2.922 6.91,2.977 c 0,0.277 -0.222,0.5 -0.5,0.5 M 6.953,2.52 c 0,0.183 0.145,0.332 0.328,0.332 0.184,0 0.328,-0.149 0.328,-0.332 C 7.609,2.34 7.465,2.191 7.281,2.191 7.098,2.191 6.953,2.34 6.953,2.52 M 7.918,2.434 c 0,0.179 0.148,0.328 0.328,0.328 0.184,0 0.332,-0.149 0.332,-0.328 0,-0.184 -0.148,-0.332 -0.332,-0.332 -0.18,0 -0.328,0.148 -0.328,0.332 m 0.977,0.128 c 0,0.18 0.144,0.329 0.328,0.329 0.179,0 0.328,-0.149 0.328,-0.329 0,-0.183 -0.149,-0.328 -0.328,-0.328 -0.184,0 -0.328,0.145 -0.328,0.328 m 0.894,0.379 c 0,0.387 0.316,0.704 0.703,0.704 0.387,0 0.699,-0.317 0.699,-0.704 0,-0.308 -0.207,-0.586 -0.503,-0.671 L 10.625,2.25 V 1.871 h 0.437 V 1.602 H 10.625 V 1.164 h -0.27 V 1.602 H 9.918 v 0.269 h 0.437 V 2.25 L 10.297,2.27 C 10,2.355 9.793,2.633 9.793,2.941 m 0.887,2.653 c 0.418,0.043 0.789,0.23 1.066,0.515 0.242,-0.32 0.625,-0.527 1.059,-0.527 0.433,0 0.816,0.207 1.058,0.531 C 14,5.73 14.074,5.332 14.078,4.922 L 14.082,4.891 14.078,4.863 C 14.066,4.234 13.562,3.727 12.941,3.707 H 12.91 c -0.031,0 -0.066,0 -0.078,0 -0.668,0.02 -1.305,0.219 -1.863,0.57 0,0.012 0,0.024 0,0.032 0,0.175 -0.086,0.328 -0.219,0.418 0.133,0.089 0.219,0.238 0.219,0.414 0,0.199 -0.117,0.371 -0.289,0.453 M 10.469,5.469 c 0.183,0 0.332,-0.149 0.332,-0.328 0,-0.184 -0.149,-0.332 -0.332,-0.332 -0.18,0 -0.328,0.148 -0.328,0.332 0,0.179 0.148,0.328 0.328,0.328 M 6.906,4.918 C 6.91,5.32 6.98,5.711 7.113,6.082 L 7.125,6.113 C 7.363,5.793 7.75,5.582 8.184,5.582 8.613,5.582 9,5.789 9.242,6.109 9.508,5.832 9.871,5.648 10.273,5.598 10.098,5.52 9.973,5.344 9.973,5.141 9.973,4.965 10.059,4.816 10.195,4.727 10.059,4.637 9.973,4.484 9.973,4.309 c 0,-0.016 0,-0.036 0.004,-0.055 C 9.426,3.914 8.805,3.727 8.156,3.707 c -0.015,0 -0.051,0 -0.078,0 H 8.047 c -0.625,0.02 -1.125,0.527 -1.141,1.156 0,0 0,0.047 0,0.055 m 3.235,-0.609 c 0,0.183 0.148,0.332 0.332,0.332 0.179,0 0.328,-0.149 0.328,-0.332 0,-0.18 -0.149,-0.329 -0.328,-0.329 -0.184,0 -0.332,0.149 -0.332,0.329 M 6.734,4.859 C 6.754,4.141 7.328,3.562 8.043,3.539 h 0.039 c 0.027,0 0.066,0 0.082,0 0.66,0.02 1.301,0.207 1.863,0.547 C 10.09,3.957 10.207,3.863 10.348,3.828 10.254,3.812 10.164,3.781 10.082,3.738 9.453,3.422 8.777,3.246 8.07,3.227 c -0.019,0 -0.066,0 -0.097,0 H 7.93 c -0.809,0.027 -1.461,0.687 -1.481,1.5 0,0 0,0.062 0,0.074 C 6.453,5.148 6.5,5.496 6.578,5.832 6.691,5.852 6.801,5.895 6.895,5.953 6.793,5.621 6.742,5.273 6.734,4.926 c 0,-0.012 0,-0.067 0,-0.067 m 7.516,0.032 v 0.035 c -0.004,0.347 -0.059,0.695 -0.156,1.027 0.094,-0.058 0.199,-0.101 0.312,-0.121 0.082,-0.336 0.125,-0.684 0.133,-1.031 0,-0.012 0,-0.082 0,-0.082 C 14.52,3.91 13.867,3.254 13.051,3.227 h -0.035 c -0.036,0 -0.082,0 -0.098,0 -0.691,0.019 -1.348,0.183 -1.961,0.488 -0.094,0.047 -0.211,0.097 -0.34,0.117 0.137,0.043 0.25,0.145 0.309,0.273 0.57,-0.351 1.222,-0.546 1.898,-0.566 0.012,0 0.055,0 0.086,0 h 0.031 c 0.719,0.023 1.293,0.602 1.309,1.32 0,0 0,0.016 0,0.024 z M 11.227,3.41 C 11.762,3.191 12.328,3.074 12.91,3.059 12.926,3.055 12.977,3.055 13.016,3.055 h 0.039 c 0.906,0.031 1.633,0.761 1.652,1.66 0,0.004 0,0.078 0,0.09 -0.004,0.343 -0.047,0.683 -0.125,1.015 0.086,0.004 0.172,0.02 0.254,0.047 -0.039,-0.074 -0.063,-0.156 -0.063,-0.242 0,-0.219 0.137,-0.402 0.332,-0.469 -0.148,-0.09 -0.246,-0.25 -0.246,-0.429 0,-0.2 0.114,-0.368 0.278,-0.45 -0.262,-0.015 -0.469,-0.23 -0.469,-0.496 0,-0.14 0.059,-0.269 0.152,-0.359 -0.066,0.035 -0.144,0.055 -0.226,0.055 -0.278,0 -0.5,-0.223 -0.5,-0.5 0,-0.055 0.008,-0.106 0.027,-0.153 -0.094,0.117 -0.238,0.196 -0.398,0.196 -0.25,0 -0.461,-0.188 -0.493,-0.426 -0.066,0.195 -0.253,0.34 -0.472,0.34 -0.223,0 -0.414,-0.149 -0.477,-0.352 -0.011,0.266 -0.23,0.48 -0.5,0.48 -0.179,0 -0.336,-0.097 -0.426,-0.238 0.008,0.039 0.012,0.078 0.012,0.117 0,0.172 -0.051,0.332 -0.14,0.469 m 0.226,-0.848 c 0,0.184 0.149,0.329 0.328,0.329 0.184,0 0.328,-0.145 0.328,-0.329 0,-0.179 -0.144,-0.328 -0.328,-0.328 -0.179,0 -0.328,0.149 -0.328,0.328 m 0.973,-0.128 c 0,0.179 0.148,0.328 0.332,0.328 0.18,0 0.328,-0.149 0.328,-0.328 0,-0.184 -0.148,-0.332 -0.328,-0.332 -0.184,0 -0.332,0.148 -0.332,0.332 m 0.969,0.086 c 0,0.183 0.144,0.332 0.328,0.332 0.179,0 0.328,-0.149 0.328,-0.332 0,-0.18 -0.149,-0.329 -0.328,-0.329 -0.184,0 -0.328,0.149 -0.328,0.329 m 0.871,0.457 c 0,0.183 0.144,0.328 0.328,0.328 0.179,0 0.328,-0.145 0.328,-0.328 0,-0.18 -0.145,-0.329 -0.328,-0.329 -0.184,0 -0.328,0.149 -0.328,0.329 m 0.574,0.804 c 0,0.18 0.144,0.328 0.328,0.328 0.18,0 0.328,-0.148 0.328,-0.328 0,-0.183 -0.148,-0.332 -0.328,-0.332 -0.184,0 -0.328,0.149 -0.328,0.332 m 0.519,0.614 c -0.183,0 -0.332,0.148 -0.332,0.332 0,0.179 0.149,0.328 0.332,0.328 0.18,0 0.329,-0.149 0.329,-0.328 0,-0.184 -0.149,-0.332 -0.329,-0.332 m -0.086,0.898 c -0.183,0 -0.328,0.148 -0.328,0.332 0,0.18 0.145,0.328 0.328,0.328 0.18,0 0.329,-0.148 0.329,-0.328 0,-0.184 -0.149,-0.332 -0.329,-0.332 m -0.429,2.758 h 0.933 v 7.324 c 0,0 -0.066,1.375 -1.058,2.625 -0.942,1.188 -1.578,1.379 -2.172,1.648 -0.867,0.36 -2.125,0.356 -2.125,0.356 0,0 -0.953,0.051 -2.133,-0.418 -1.34,-0.535 -2.18,-1.699 -2.18,-1.699 0,0 -0.839,-0.977 -0.89,-2.434 L 5.211,8.051 H 6.145 C 6.133,8.031 6.113,8 6.113,8 5.91,7.746 5.734,7.461 5.637,7.145 5.551,6.863 5.52,6.559 5.664,6.289 5.699,6.227 5.738,6.172 5.781,6.121 c -0.015,0 -0.031,0.004 -0.047,0.004 -0.277,0 -0.5,-0.227 -0.5,-0.5 0,-0.184 0.098,-0.344 0.246,-0.43 C 5.289,5.125 5.148,4.941 5.148,4.727 5.148,4.461 5.359,4.242 5.621,4.227 5.453,4.145 5.34,3.977 5.34,3.781 c 0,-0.277 0.222,-0.5 0.5,-0.5 0.082,0 0.16,0.02 0.226,0.055 C 5.973,3.246 5.914,3.117 5.914,2.977 c 0,-0.274 0.223,-0.5 0.5,-0.5 0.16,0 0.305,0.078 0.395,0.199 C 6.797,2.625 6.785,2.574 6.785,2.52 c 0,-0.274 0.223,-0.497 0.496,-0.497 0.223,0 0.407,0.141 0.473,0.336 C 7.789,2.121 8,1.934 8.25,1.934 c 0.27,0 0.488,0.211 0.496,0.48 C 8.812,2.211 9,2.062 9.223,2.062 c 0.269,0 0.488,0.215 0.5,0.481 C 9.82,2.355 9.984,2.203 10.188,2.125 V 2.039 H 9.75 V 1.43 h 0.438 V 0.992 h 0.609 V 1.43 h 0.437 v 0.609 h -0.437 v 0.086 c 0.219,0.082 0.391,0.246 0.484,0.449 0,-0.004 0,-0.008 0,-0.012 0,-0.277 0.227,-0.5 0.5,-0.5 0.223,0 0.414,0.149 0.477,0.352 0.012,-0.269 0.23,-0.48 0.5,-0.48 0.25,0 0.457,0.187 0.492,0.425 0.066,-0.195 0.254,-0.336 0.473,-0.336 0.273,0 0.5,0.223 0.5,0.497 0,0.054 -0.012,0.105 -0.028,0.156 0.09,-0.121 0.235,-0.199 0.399,-0.199 0.273,0 0.496,0.226 0.496,0.5 0,0.14 -0.059,0.269 -0.152,0.359 0.07,-0.035 0.148,-0.055 0.226,-0.055 0.277,0 0.5,0.223 0.5,0.5 0,0.196 -0.113,0.364 -0.277,0.446 0.261,0.015 0.468,0.234 0.468,0.5 0,0.214 -0.136,0.398 -0.332,0.468 0.149,0.086 0.247,0.246 0.247,0.43 0,0.273 -0.223,0.5 -0.5,0.5 -0.02,0 -0.036,-0.004 -0.055,-0.004 0.156,0.176 0.215,0.387 0.211,0.606 C 15.418,7.18 15.137,7.672 14.875,8 c 0,0 -0.023,0.031 -0.031,0.051 M 8.188,7.762 C 8.609,7.055 8.605,6.23 8.605,6.23 8.578,6.047 8.461,6.48 8.383,6.645 8.312,6.797 8.203,6.793 8.188,6.793 8.172,6.793 8.062,6.797 7.992,6.645 7.918,6.48 7.801,6.047 7.77,6.23 c 0,0 0,0.825 0.418,1.532 0,0.004 0,0 0,0 m 4.609,0 C 13.219,7.055 13.215,6.23 13.215,6.23 13.184,6.047 13.07,6.48 12.992,6.645 c -0.07,0.152 -0.18,0.148 -0.195,0.148 -0.016,0 -0.125,0.004 -0.195,-0.148 C 12.523,6.48 12.406,6.047 12.379,6.23 c 0,0 -0.004,0.825 0.418,1.532 0,0.004 0,0 0,0 M 10.492,7.637 c 0,0 0,-0.004 0,-0.004 -0.422,-0.707 -0.418,-1.531 -0.418,-1.531 0.028,-0.184 0.145,0.25 0.223,0.418 0.07,0.148 0.18,0.144 0.195,0.144 0.016,0 0.125,0.004 0.196,-0.144 0.078,-0.168 0.195,-0.602 0.222,-0.418 0,0 0.004,0.824 -0.418,1.531 0,0 0,0.004 0,0.004"
       style="fill:#231f20;fill-opacity:1;fill-rule:evenodd;stroke:none"
       transform="scale(1.3333333)" />
  </g>
</svg>
