<?xml version="1.0" encoding="UTF-8" standalone="no"?>
<!-- Created with Inkscape (http://www.inkscape.org/) -->

<svg
   width="27.999826"
   height="27.999788"
   viewBox="0 0 7.4082874 7.4082773"
   version="1.1"
   id="svg1"
   inkscape:version="1.3 (0e150ed6c4, 2023-07-21)"
   sodipodi:docname="s-bahn-muenchen.svg"
   xml:space="preserve"
   xmlns:inkscape="http://www.inkscape.org/namespaces/inkscape"
   xmlns:sodipodi="http://sodipodi.sourceforge.net/DTD/sodipodi-0.dtd"
   xmlns="http://www.w3.org/2000/svg"
   xmlns:svg="http://www.w3.org/2000/svg"><sodipodi:namedview
     id="namedview1"
     pagecolor="#ffffff"
     bordercolor="#000000"
     borderopacity="0.25"
     inkscape:showpageshadow="2"
     inkscape:pageopacity="0.0"
     inkscape:pagecheckerboard="0"
     inkscape:deskcolor="#d1d1d1"
     inkscape:document-units="px"
     inkscape:zoom="11.313708"
     inkscape:cx="12.197592"
     inkscape:cy="19.533825"
     inkscape:window-width="1920"
     inkscape:window-height="1011"
     inkscape:window-x="0"
     inkscape:window-y="0"
     inkscape:window-maximized="1"
     inkscape:current-layer="layer1"
     showgrid="true"><inkscape:grid
       id="grid6"
       units="px"
       originx="0"
       originy="0"
       spacingx="0.26458333"
       spacingy="0.26458333"
       empcolor="#0099e5"
       empopacity="0.30196078"
       color="#0099e5"
       opacity="0.14901961"
       empspacing="5"
       dotted="false"
       gridanglex="30"
       gridanglez="30"
       visible="true" /></sodipodi:namedview><defs
     id="defs1"><clipPath
       clipPathUnits="userSpaceOnUse"
       id="clipPath62542"><path
         d="m 36,36 1818,0 0,1818 -1818,0 0,-1818 z"
         id="path62544"
         inkscape:connector-curvature="0" /></clipPath></defs><g
     inkscape:label="Layer 1"
     inkscape:groupmode="layer"
     id="layer1"
     transform="translate(-105.83333,-79.904152)"><rect
       style="fill:#ffffff;stroke-width:0.264581;stroke-linecap:round;stroke-linejoin:round"
       id="rect2"
       width="7.4082875"
       height="7.4082775"
       x="105.83333"
       y="79.904152" /><g
       id="g1"
       transform="matrix(0.20289927,0,0,0.20289927,88.589437,66.364341)"><path
         d="m 90.333471,84.979731 c 0,-7.119644 5.766388,-12.902529 12.902049,-12.902529 7.13566,0 12.91806,5.782885 12.91806,12.902529 0,7.135663 -5.7824,12.918228 -12.91806,12.918228 -7.135661,0 -12.902049,-5.782565 -12.902049,-12.918228 z"
         style="fill:#ffffff;fill-opacity:1;fill-rule:evenodd;stroke:none;stroke-width:0.330729"
         id="path21534" /><path
         d="m 111.16052,76.716416 v 3.720978 c -1.9812,-2.126113 -4.96135,-3.99461 -8.45625,-3.99461 -1.9652,0 -3.093023,1.046966 -3.093023,2.271015 0,5.186948 12.902213,1.546188 12.902213,10.067124 0,3.447353 -3.33414,7.457966 -8.95564,7.457966 -3.12504,0 -6.749314,-1.417465 -8.730038,-3.189251 v -4.461642 c 1.868012,2.690019 5.283178,4.76794 8.730038,4.76794 2.11011,0 3.80119,-1.208362 3.80119,-2.496935 0,-4.848312 -12.708634,-1.83647 -12.708634,-10.212183 0,-4.397445 4.284729,-6.749154 8.134114,-6.749154 3.20574,0 6.08869,1.046966 8.37603,2.818752 z m -22.260522,8.263315 c 0,-7.925006 6.410996,-14.336002 14.335522,-14.336002 7.925,0 14.35153,6.410996 14.35153,14.336002 0,7.925173 -6.42653,14.352018 -14.35153,14.352018 -7.924526,0 -14.335522,-6.426845 -14.335522,-14.352018 z"
         style="fill:#48974a;fill-opacity:1;fill-rule:evenodd;stroke:none;stroke-width:0.330729"
         id="path21544" /></g></g></svg>
