<?xml version="1.0" encoding="UTF-8" standalone="no"?>
<!-- Created with Inkscape (http://www.inkscape.org/) -->

<svg
   width="27.999826"
   height="27.999788"
   viewBox="0 0 7.4082874 7.4082773"
   version="1.1"
   id="svg1"
   inkscape:version="1.3 (0e150ed6c4, 2023-07-21)"
   sodipodi:docname="verbundlinie.svg"
   xml:space="preserve"
   xmlns:inkscape="http://www.inkscape.org/namespaces/inkscape"
   xmlns:sodipodi="http://sodipodi.sourceforge.net/DTD/sodipodi-0.dtd"
   xmlns="http://www.w3.org/2000/svg"
   xmlns:svg="http://www.w3.org/2000/svg"><sodipodi:namedview
     id="namedview1"
     pagecolor="#ffffff"
     bordercolor="#000000"
     borderopacity="0.25"
     inkscape:showpageshadow="2"
     inkscape:pageopacity="0.0"
     inkscape:pagecheckerboard="0"
     inkscape:deskcolor="#d1d1d1"
     inkscape:document-units="px"
     inkscape:zoom="11.313708"
     inkscape:cx="10.606602"
     inkscape:cy="23.776466"
     inkscape:window-width="1920"
     inkscape:window-height="1011"
     inkscape:window-x="0"
     inkscape:window-y="0"
     inkscape:window-maximized="1"
     inkscape:current-layer="layer1"
     showgrid="true"><inkscape:grid
       id="grid6"
       units="px"
       originx="0"
       originy="0"
       spacingx="0.26458333"
       spacingy="0.26458333"
       empcolor="#0099e5"
       empopacity="0.30196078"
       color="#0099e5"
       opacity="0.14902"
       empspacing="5"
       dotted="false"
       gridanglex="30"
       gridanglez="30"
       visible="true" /></sodipodi:namedview><defs
     id="defs1"><clipPath
       clipPathUnits="userSpaceOnUse"
       id="clipPath62542"><path
         d="m 36,36 1818,0 0,1818 -1818,0 0,-1818 z"
         id="path62544"
         inkscape:connector-curvature="0" /></clipPath><inkscape:perspective
       sodipodi:type="inkscape:persp3d"
       inkscape:vp_x="0 : 526.18109 : 1"
       inkscape:vp_y="0 : 1000 : 0"
       inkscape:vp_z="744.09448 : 526.18109 : 1"
       inkscape:persp3d-origin="372.04724 : 350.78739 : 1"
       id="perspective10" /><clipPath
       id="clipPath3238"
       clipPathUnits="userSpaceOnUse"><path
         id="path3240"
         d="M 0,0 L 850.392,0 L 850.392,1190.547 L 0,1190.547 L 0,0 z" /></clipPath><clipPath
       id="clipPath3224"
       clipPathUnits="userSpaceOnUse"><path
         id="path3226"
         d="M 645.489,1112.151 L 638.505,1086.084 L 711.297,1066.581 L 716.838,1087.26 L 735.489,1156.869 L 686.75,1169.933 L 662.698,1176.378 L 645.489,1112.151 z" /></clipPath><clipPath
       id="clipPath3210"
       clipPathUnits="userSpaceOnUse"><path
         id="path3212"
         d="M 636.363,1055.925 L 743.877,1055.925 L 743.877,1175.931 L 636.363,1175.931 L 636.363,1055.925 z" /></clipPath><clipPath
       id="clipPath3198"
       clipPathUnits="userSpaceOnUse"><path
         id="path3200"
         d="M 0,0 L 850.392,0 L 850.392,1190.547 L 0,1190.547 L 0,0 z" /></clipPath><clipPath
       id="clipPath3184"
       clipPathUnits="userSpaceOnUse"><path
         id="path3186"
         d="M 335.314,708.096 L 311.814,620.38 L 325.804,616.631 L 363.186,606.618 L 379.305,666.762 L 387.996,699.198 L 360.362,706.603 L 336.618,712.962 L 335.314,708.096 z" /></clipPath><clipPath
       id="clipPath3170"
       clipPathUnits="userSpaceOnUse"><path
         id="path3172"
         d="M 309.672,595.872 L 396.072,595.872 L 396.072,712.512 L 309.672,712.512 L 309.672,595.872 z" /></clipPath><clipPath
       id="clipPath3156"
       clipPathUnits="userSpaceOnUse"><path
         id="path3158"
         d="M 116.64,647.64 L 178.037,647.64 L 178.037,668.736 L 116.64,668.736 L 116.64,647.64 z" /></clipPath><clipPath
       id="clipPath3142"
       clipPathUnits="userSpaceOnUse"><path
         id="path3144"
         d="M 52.56,647.523 L 110.129,647.523 L 110.129,669.447 L 52.56,669.447 L 52.56,647.523 z" /></clipPath><clipPath
       id="clipPath2742"
       clipPathUnits="userSpaceOnUse"><path
         id="path2744"
         d="M 0,0 L 850.392,0 L 850.392,1190.547 L 0,1190.547 L 0,0 z" /></clipPath><clipPath
       id="clipPath2730"
       clipPathUnits="userSpaceOnUse"><path
         id="path2732"
         d="M 0,594.909 L 283.464,594.909 L 283.464,1190.547 L 0,1190.547 L 0,594.909 z" /></clipPath><clipPath
       id="clipPath2716"
       clipPathUnits="userSpaceOnUse"><path
         id="path2718"
         d="M 0,595.278 L 283.464,595.278 L 283.464,1190.547 L 0,1190.547 L 0,595.278 z" /></clipPath><clipPath
       id="clipPath2702"
       clipPathUnits="userSpaceOnUse"><path
         id="path2704"
         d="M 296.217,388.323 L 837.063,388.323 L 837.063,1176.381 L 296.217,1176.381 L 296.217,388.323 z M 636.363,1175.931 L 743.877,1175.931 L 743.877,1055.925 L 636.363,1055.925 L 636.363,1175.931 z M 309.672,712.512 L 396.072,712.512 L 396.072,595.872 L 309.672,595.872 L 309.672,712.512 z" /></clipPath><clipPath
       id="clipPath2666"
       clipPathUnits="userSpaceOnUse"><path
         id="path2668"
         d="M 0,0 L 850.392,0 L 850.392,1190.547 L 0,1190.547 L 0,0 z" /></clipPath><clipPath
       id="clipPath2652"
       clipPathUnits="userSpaceOnUse"><path
         id="path2654"
         d="M 297.639,13.464 L 835.478,13.464 L 835.478,366.984 L 297.639,366.984 L 297.639,13.464 z" /></clipPath><clipPath
       id="clipPath2418"
       clipPathUnits="userSpaceOnUse"><path
         id="path2420"
         d="M 0,0 L 850.392,0 L 850.392,1190.547 L 0,1190.547 L 0,0 z" /></clipPath><inkscape:perspective
       id="perspective2410"
       inkscape:persp3d-origin="372.04724 : 350.78739 : 1"
       inkscape:vp_z="744.09448 : 526.18109 : 1"
       inkscape:vp_y="0 : 1000 : 0"
       inkscape:vp_x="0 : 526.18109 : 1"
       sodipodi:type="inkscape:persp3d" /></defs><g
     inkscape:label="Layer 1"
     inkscape:groupmode="layer"
     id="layer1"
     transform="translate(-105.83333,-79.904152)"><rect
       style="fill:#ffffff;stroke-width:0.264581;stroke-linecap:round;stroke-linejoin:round;fill-opacity:1"
       id="rect2"
       width="7.4082875"
       height="7.4082775"
       x="105.83333"
       y="79.904152" /><g
       id="g1"
       transform="matrix(1.45521,0,0,1.45521,-29.238644,-48.790688)"><path
         d="m 96.334757,92.800888 c 0.17743,0 0.35285,-0.143808 0.39177,-0.321056 l 0.63316,-2.994026 c 0.0389,-0.177431 -0.0733,-0.321239 -0.25052,-0.321239 h -2.709043 c -0.177248,0 -0.353764,0.143808 -0.392869,0.321056 l -0.636813,2.994209 c -0.0391,0.177248 0.07218,0.321056 0.249609,0.321056 z"
         style="fill:#009036;fill-opacity:1;fill-rule:nonzero;stroke:none;stroke-width:0.18273"
         id="path3084"
         sodipodi:nodetypes="sccssccss" /><path
         d="m 94.801359,92.143225 h 0.60648 l 0.982172,-2.315185 h -0.572675 l -0.59113,1.702492 0.05537,-1.702492 h -0.523338 z"
         style="fill:#ffffff;fill-opacity:1;fill-rule:nonzero;stroke:none;stroke-width:0.18273"
         id="path3108" /></g></g><style
     type="text/css"
     id="style1">&#10;	.st0{fill:#505050;}&#10;	.st1{fill:#99CC00;}&#10;</style></svg>
