<?xml version="1.0" encoding="UTF-8" standalone="no"?>
<!-- Created with Inkscape (http://www.inkscape.org/) -->

<svg
   width="27.999826"
   height="27.999788"
   viewBox="0 0 7.4082874 7.4082773"
   version="1.1"
   id="svg1"
   inkscape:version="1.3 (0e150ed6c4, 2023-07-21)"
   sodipodi:docname="svv.svg"
   xml:space="preserve"
   xmlns:inkscape="http://www.inkscape.org/namespaces/inkscape"
   xmlns:sodipodi="http://sodipodi.sourceforge.net/DTD/sodipodi-0.dtd"
   xmlns="http://www.w3.org/2000/svg"
   xmlns:svg="http://www.w3.org/2000/svg"><sodipodi:namedview
     id="namedview1"
     pagecolor="#ffffff"
     bordercolor="#000000"
     borderopacity="0.25"
     inkscape:showpageshadow="2"
     inkscape:pageopacity="0.0"
     inkscape:pagecheckerboard="0"
     inkscape:deskcolor="#d1d1d1"
     inkscape:document-units="px"
     inkscape:zoom="9.8761053"
     inkscape:cx="55.183697"
     inkscape:cy="9.315413"
     inkscape:window-width="1920"
     inkscape:window-height="1011"
     inkscape:window-x="0"
     inkscape:window-y="0"
     inkscape:window-maximized="1"
     inkscape:current-layer="layer1"
     showgrid="false"><inkscape:grid
       id="grid6"
       units="px"
       originx="0"
       originy="0"
       spacingx="0.26458333"
       spacingy="0.26458333"
       empcolor="#0099e5"
       empopacity="0.30196078"
       color="#0099e5"
       opacity="0.14901961"
       empspacing="5"
       dotted="false"
       gridanglex="30"
       gridanglez="30"
       visible="false" /></sodipodi:namedview><defs
     id="defs1"><inkscape:perspective
       sodipodi:type="inkscape:persp3d"
       inkscape:vp_x="0 : 526.18109 : 1"
       inkscape:vp_y="0 : 1000 : 0"
       inkscape:vp_z="744.09448 : 526.18109 : 1"
       inkscape:persp3d-origin="372.04724 : 350.78739 : 1"
       id="perspective10" /><clipPath
       id="clipPath3974"
       clipPathUnits="userSpaceOnUse"><path
         id="path3976"
         d="M 327.269,600.957 L 385.578,600.957 L 385.578,534.096 L 327.269,534.096 L 327.269,600.957 z" /></clipPath><clipPath
       id="clipPath3956"
       clipPathUnits="userSpaceOnUse"><path
         id="path3958"
         d="M 181.79,585.797 L 272.318,585.797 L 272.318,508.01 L 181.79,508.01 L 181.79,585.797 z" /></clipPath><clipPath
       id="clipPath3928"
       clipPathUnits="userSpaceOnUse"><path
         id="path3930"
         d="M 79.0557,499.384 L 158.291,499.384 L 158.291,434.497 L 79.0557,434.497 L 79.0557,499.384 z" /></clipPath><clipPath
       id="clipPath3868"
       clipPathUnits="userSpaceOnUse"><path
         id="path3870"
         d="M -7.39795,7.39746 L 7.39795,7.39746 L 7.39795,-7.39648 L -7.39795,-7.39648 L -7.39795,7.39746 z" /></clipPath><clipPath
       id="clipPath3368"
       clipPathUnits="userSpaceOnUse"><path
         id="path3370"
         d="M 0,595.276 L 841.89,595.276 L 841.89,0 L 0,0 L 0,595.276 z" /></clipPath><clipPath
       id="clipPath2428"
       clipPathUnits="userSpaceOnUse"><path
         id="path2430"
         d="M -60.0239,469.73 L 610.327,469.73 L 610.327,128.215 L -60.0239,128.215 L -60.0239,469.73 z" /></clipPath><clipPath
       id="clipPath2418"
       clipPathUnits="userSpaceOnUse"><path
         id="path2420"
         d="M 0,595.276 L 841.89,595.276 L 841.89,0 L 0,0 L 0,595.276 z" /></clipPath><inkscape:perspective
       id="perspective2410"
       inkscape:persp3d-origin="372.04724 : 350.78739 : 1"
       inkscape:vp_z="744.09448 : 526.18109 : 1"
       inkscape:vp_y="0 : 1000 : 0"
       inkscape:vp_x="0 : 526.18109 : 1"
       sodipodi:type="inkscape:persp3d" /><clipPath
       clipPathUnits="userSpaceOnUse"
       id="clipPath52"><path
         d="M 0,595.28 H 841.89 V 0 H 0 Z"
         transform="translate(-324.35331,-299.0586)"
         id="path52" /></clipPath><clipPath
       clipPathUnits="userSpaceOnUse"
       id="clipPath54"><path
         d="M 0,595.28 H 841.89 V 0 H 0 Z"
         transform="translate(-292.6909,-264.43461)"
         id="path54" /></clipPath><clipPath
       clipPathUnits="userSpaceOnUse"
       id="clipPath56"><path
         d="M 0,595.28 H 841.89 V 0 H 0 Z"
         transform="translate(-292.32141,-265.05471)"
         id="path56" /></clipPath><clipPath
       clipPathUnits="userSpaceOnUse"
       id="clipPath58"><path
         d="M 0,595.28 H 841.89 V 0 H 0 Z"
         transform="translate(-292.73281,-293.03751)"
         id="path58" /></clipPath><clipPath
       clipPathUnits="userSpaceOnUse"
       id="clipPath60"><path
         d="M 0,595.28 H 841.89 V 0 H 0 Z"
         transform="translate(-247.57641,-315.43191)"
         id="path60" /></clipPath><clipPath
       clipPathUnits="userSpaceOnUse"
       id="clipPath62"><path
         d="M 0,595.28 H 841.89 V 0 H 0 Z"
         transform="translate(-272.60691,-305.98131)"
         id="path62" /></clipPath><clipPath
       clipPathUnits="userSpaceOnUse"
       id="clipPath64"><path
         d="M 0,595.28 H 841.89 V 0 H 0 Z"
         transform="translate(-286.10461,-296.69201)"
         id="path64" /></clipPath><clipPath
       clipPathUnits="userSpaceOnUse"
       id="clipPath66"><path
         d="M 0,595.28 H 841.89 V 0 H 0 Z"
         transform="translate(-301.69611,-280.062)"
         id="path66" /></clipPath><clipPath
       clipPathUnits="userSpaceOnUse"
       id="clipPath68"><path
         d="M 0,595.28 H 841.89 V 0 H 0 Z"
         transform="translate(-295.94641,-299.16381)"
         id="path68" /></clipPath><clipPath
       clipPathUnits="userSpaceOnUse"
       id="clipPath70"><path
         d="M 0,595.28 H 841.89 V 0 H 0 Z"
         transform="translate(-324.35331,-299.0586)"
         id="path70" /></clipPath><clipPath
       clipPathUnits="userSpaceOnUse"
       id="clipPath72"><path
         d="M 0,595.28 H 841.89 V 0 H 0 Z"
         transform="translate(-308.79501,-308.07201)"
         id="path72" /></clipPath><clipPath
       clipPathUnits="userSpaceOnUse"
       id="clipPath74"><path
         d="M 0,595.28 H 841.89 V 0 H 0 Z"
         transform="translate(-290.17761,-331.57511)"
         id="path74" /></clipPath><clipPath
       clipPathUnits="userSpaceOnUse"
       id="clipPath76"><path
         d="M 0,595.28 H 841.89 V 0 H 0 Z"
         transform="translate(-290.17761,-331.57511)"
         id="path76" /></clipPath><clipPath
       clipPathUnits="userSpaceOnUse"
       id="clipPath78"><path
         d="M 0,595.28 H 841.89 V 0 H 0 Z"
         transform="translate(-290.23771,-302.80341)"
         id="path78" /></clipPath><clipPath
       clipPathUnits="userSpaceOnUse"
       id="clipPath80"><path
         d="M 0,595.28 H 841.89 V 0 H 0 Z"
         transform="translate(-299.52001,-316.31051)"
         id="path80" /></clipPath><clipPath
       clipPathUnits="userSpaceOnUse"
       id="clipPath82"><path
         d="M 0,595.28 H 841.89 V 0 H 0 Z"
         transform="translate(-290.18871,-302.85121)"
         id="path82" /></clipPath></defs><g
     inkscape:label="Layer 1"
     inkscape:groupmode="layer"
     id="layer1"
     transform="translate(-105.83333,-79.904152)"><rect
       style="fill:#ffffff;stroke-width:0.264581;stroke-linecap:round;stroke-linejoin:round"
       id="rect2"
       width="7.4082875"
       height="7.4082775"
       x="105.83333"
       y="79.904152"
       rx="1.5875" /><g
       id="g2"
       transform="matrix(0.18132227,0,0,0.18132227,90.916409,67.769669)"><path
         id="path51"
         d="m 0,0 c -0.373,0.16 -0.749,0.315 -1.119,0.481 -4.815,-2.899 -9.281,-6.319 -13.317,-10.187 0.306,-0.171 0.622,-0.325 0.93,-0.493 3.924,3.727 8.258,7.038 12.897,9.832 z"
         style="fill:#4d4281;fill-opacity:1;fill-rule:nonzero;stroke:none"
         transform="matrix(0.35277776,0,0,-0.35277776,114.38135,86.850313)"
         clip-path="url(#clipPath52)" /><path
         id="path53"
         d="M 0,0 C 0.16,0.376 0.315,0.754 0.481,1.126 -2.405,5.97 -5.818,10.464 -9.681,14.528 -9.852,14.221 -10.006,13.904 -10.173,13.596 -6.447,9.641 -3.146,5.281 -0.37,0.62 Z"
         style="fill:#c84216;fill-opacity:1;fill-rule:nonzero;stroke:none"
         transform="matrix(0.35277776,0,0,-0.35277776,103.21155,99.06489)"
         clip-path="url(#clipPath54)" /><path
         id="path55"
         d="M 0,0 C -2.776,4.661 -6.078,9.021 -9.804,12.976 -12.829,7.397 -15.283,1.465 -17.095,-4.74 l 16.244,1.05 c 0.387,1.033 0.79,2.059 1.221,3.07 z"
         style="fill:#f1511b;fill-opacity:1;fill-rule:nonzero;stroke:none"
         transform="matrix(0.35277776,0,0,-0.35277776,103.0812,98.846132)"
         clip-path="url(#clipPath56)" /><path
         id="path57"
         d="m 0,0 c -0.364,-0.435 -0.742,-0.857 -1.098,-1.299 3.676,-3.594 7.04,-7.502 10.061,-11.677 0.351,0.469 0.719,0.923 1.08,1.383 -3.008,4.11 -6.35,7.984 -9.955,11.507 z"
         style="fill:#c62040;fill-opacity:1;fill-rule:nonzero;stroke:none"
         transform="matrix(0.35277776,0,0,-0.35277776,103.22634,88.974422)"
         clip-path="url(#clipPath58)" /><path
         id="path59"
         d="m 0,0 v -15.516 c 3.352,-0.88 6.624,-1.96 9.778,-3.274 l 1.045,0.627 c 4.534,2.72 8.769,5.942 12.615,9.559 C 16.161,-4.712 8.292,-1.79 0,0"
         style="fill:#31678b;fill-opacity:1;fill-rule:nonzero;stroke:none"
         transform="matrix(0.35277776,0,0,-0.35277776,87.296163,81.074176)"
         clip-path="url(#clipPath60)" /><path
         id="path61"
         d="m 0,0 c -0.524,0.294 -1.063,0.563 -1.593,0.847 -3.845,-3.618 -8.08,-6.839 -12.615,-9.56 l -1.044,-0.627 c 0.643,-0.268 1.283,-0.542 1.917,-0.827 C -8.515,-7.275 -4.042,-3.862 0,0"
         style="fill:#2a5777;fill-opacity:1;fill-rule:nonzero;stroke:none"
         transform="matrix(0.35277776,0,0,-0.35277776,96.126367,84.408137)"
         clip-path="url(#clipPath62)" /><path
         id="path63"
         d="m 0,0 c -0.255,0.211 -0.499,0.434 -0.756,0.642 -3.585,-3.678 -7.483,-7.046 -11.648,-10.072 0.272,-0.205 0.534,-0.423 0.804,-0.632 4.123,3.015 8.011,6.38 11.553,10.013 z"
         style="fill:#0483b1;fill-opacity:1;fill-rule:nonzero;stroke:none"
         transform="matrix(0.35277776,0,0,-0.35277776,100.88805,87.685195)"
         clip-path="url(#clipPath64)" /><path
         id="path65"
         d="m 0,0 c -3.022,4.174 -6.385,8.083 -10.061,11.677 -1.77,1.73 -3.623,3.372 -5.531,4.953 l -0.047,-0.049 c -3.541,-3.633 -7.429,-6.997 -11.553,-10.013 3.024,-2.344 5.874,-4.899 8.506,-7.668 3.863,-4.063 7.276,-8.557 10.162,-13.401 3.241,-5.441 5.823,-11.319 7.617,-17.529 h 0.183 l 15.161,0.98 C 11.618,-19.699 6.658,-9.198 0,0"
         style="fill:#05a0d7;fill-opacity:1;fill-rule:nonzero;stroke:none"
         transform="matrix(0.35277776,0,0,-0.35277776,106.38839,93.551891)"
         clip-path="url(#clipPath66)" /><path
         id="path67"
         d="M 0,0 -0.081,-0.083 C 0.353,-0.448 0.776,-0.825 1.216,-1.182 4.796,2.502 8.689,5.876 12.849,8.908 12.381,9.259 11.928,9.628 11.469,9.99 7.376,6.973 3.516,3.619 0,0"
         style="fill:#5d1973;fill-opacity:1;fill-rule:nonzero;stroke:none"
         transform="matrix(0.35277776,0,0,-0.35277776,104.36002,86.8132)"
         clip-path="url(#clipPath68)" /><path
         id="path69"
         d="m 0,0 -0.609,-0.367 c -4.639,-2.794 -8.973,-6.105 -12.897,-9.832 7.443,-4.047 15.516,-7.072 24.035,-8.905 v 15.49 C 6.907,-2.664 3.39,-1.454 0,0"
         style="fill:#685bb3;fill-opacity:1;fill-rule:nonzero;stroke:none"
         transform="matrix(0.35277776,0,0,-0.35277776,114.38135,86.850313)"
         clip-path="url(#clipPath70)" /><path
         id="path71"
         d="m 0,0 c -4.16,-3.032 -8.053,-6.406 -11.632,-10.09 -1.542,-1.587 -3.008,-3.247 -4.43,-4.944 l 0.088,-0.087 c 3.604,-3.523 6.947,-7.396 9.955,-11.506 2.198,2.798 4.576,5.448 7.142,7.907 4.035,3.868 8.501,7.288 13.316,10.188 5.458,3.288 11.36,5.91 17.602,7.735 V 14.816 C 20.3,12.009 9.459,6.895 0,0"
         style="fill:#ee2850;fill-opacity:1;fill-rule:nonzero;stroke:none"
         transform="matrix(0.35277776,0,0,-0.35277776,108.89272,83.670585)"
         clip-path="url(#clipPath72)" /><path
         id="path73"
         d="m 0,0 0.628,-1.048 c 2.719,-4.535 5.941,-8.773 9.56,-12.623 2.875,5.384 5.218,11.094 6.971,17.055 L 0.896,2.333 C 0.602,1.553 0.319,0.767 0,0"
         style="fill:#59c134;fill-opacity:1;fill-rule:nonzero;stroke:none"
         transform="matrix(0.35277776,0,0,-0.35277776,102.32492,75.379213)"
         clip-path="url(#clipPath74)" /><path
         id="path75"
         d="m 0,0 c -0.268,-0.644 -0.542,-1.285 -0.827,-1.92 2.892,-4.824 6.306,-9.299 10.169,-13.345 0.294,0.524 0.563,1.063 0.846,1.594 -3.619,3.85 -6.841,8.088 -9.56,12.623 z"
         style="fill:#499e2a;fill-opacity:1;fill-rule:nonzero;stroke:none"
         transform="matrix(0.35277776,0,0,-0.35277776,102.32492,75.379213)"
         clip-path="url(#clipPath76)" /><path
         id="path77"
         d="M 0,0 C 0.211,0.255 0.433,0.499 0.642,0.757 -3.037,4.342 -6.404,8.242 -9.43,12.408 -9.635,12.136 -9.853,11.873 -10.062,11.604 -7.044,7.476 -3.68,3.587 -0.049,0.048 Z"
         style="fill:#7eae1a;fill-opacity:1;fill-rule:nonzero;stroke:none"
         transform="matrix(0.35277776,0,0,-0.35277776,102.34612,85.52923)"
         clip-path="url(#clipPath78)" /><path
         id="path79"
         d="m 0,0 c -3.863,4.045 -7.277,8.521 -10.169,13.344 -3.272,5.458 -5.88,11.357 -7.692,17.594 h -0.048 l -15.296,-0.989 c 2.837,-11.353 7.815,-21.854 14.492,-31.048 3.026,-4.166 6.394,-8.066 10.072,-11.652 1.6,-1.559 3.274,-3.041 4.987,-4.479 l 0.08,0.083 c 3.516,3.619 7.377,6.974 11.47,9.99 C 5.101,-4.954 2.455,-2.571 0,0"
         style="fill:#712090;fill-opacity:1;fill-rule:nonzero;stroke:none"
         transform="matrix(0.35277776,0,0,-0.35277776,105.62071,80.764224)"
         clip-path="url(#clipPath80)" /><path
         id="path81"
         d="M 0,0 C -3.631,3.539 -6.995,7.428 -10.013,11.556 -12.328,8.564 -14.85,5.74 -17.582,3.13 c -4.042,-3.862 -8.514,-7.275 -13.335,-10.167 -5.473,-3.284 -11.391,-5.901 -17.648,-7.715 l -0.001,-15.605 c 11.752,2.788 22.605,7.885 32.078,14.768 4.165,3.026 8.063,6.394 11.648,10.072 1.707,1.751 3.328,3.584 4.889,5.469 z"
         style="fill:#99d420;fill-opacity:1;fill-rule:nonzero;stroke:none"
         transform="matrix(0.35277776,0,0,-0.35277776,102.32884,85.512368)"
         clip-path="url(#clipPath82)" /></g></g></svg>
