<?xml version="1.0" encoding="UTF-8" standalone="no"?>
<!-- Created with Inkscape (http://www.inkscape.org/) -->

<svg
   width="27.999826"
   height="27.999788"
   viewBox="0 0 7.4082874 7.4082773"
   version="1.1"
   id="svg1"
   xml:space="preserve"
   xmlns="http://www.w3.org/2000/svg"
   xmlns:svg="http://www.w3.org/2000/svg"><defs
     id="defs1" /><g
     id="layer1"
     transform="translate(-105.83333,-79.904152)"><rect
       style="fill:#3584e4;stroke-width:0.264581;stroke-linecap:round;stroke-linejoin:round"
       id="rect2"
       width="7.4082875"
       height="7.4082775"
       x="105.83333"
       y="79.904152"
       rx="1.5875" /><path
       d="m 109.53747,81.623916 c -1.09243,0 -1.98437,0.891935 -1.98437,1.984375 0,1.09244 0.89194,1.984375 1.98437,1.984375 1.09244,0 1.98438,-0.891935 1.98438,-1.984375 0,-1.09244 -0.89194,-1.984375 -1.98438,-1.984375 z m 0,0.529167 c 0.0682,0 0.13333,0.0062 0.19844,0.01447 0.0507,0.06925 0.10129,0.157097 0.14573,0.271818 0.0279,0.07338 0.0537,0.155029 0.0765,0.242879 h -0.84129 c 0.0227,-0.08785 0.0486,-0.169498 0.0765,-0.242879 0.0444,-0.114721 0.0951,-0.202572 0.14573,-0.271818 0.0651,-0.0083 0.13022,-0.01447 0.19843,-0.01447 z m -0.5519,0.107487 c -0.0134,0.02894 -0.0279,0.05374 -0.0393,0.08371 -0.0393,0.10232 -0.0713,0.217042 -0.10026,0.337964 h -0.42788 c 0.1509,-0.182934 0.34313,-0.329695 0.56741,-0.421679 z m 1.10381,0 c 0.22428,0.09198 0.41651,0.238745 0.56741,0.421679 h -0.42788 c -0.0289,-0.120922 -0.061,-0.235644 -0.10026,-0.337964 -0.0114,-0.02997 -0.0258,-0.05478 -0.0393,-0.08371 z m -1.84692,0.686263 h 0.55087 c -0.0258,0.166398 -0.0393,0.344165 -0.0444,0.529166 h -0.65629 c 0.0165,-0.189135 0.0672,-0.367936 0.14986,-0.529166 z m 0.81856,0 h 0.95291 c 0.0269,0.163297 0.0413,0.342098 0.0475,0.529166 h -1.04799 c 0.006,-0.187068 0.0207,-0.365869 0.0475,-0.529166 z m 1.2206,0 h 0.55087 c 0.0827,0.16123 0.13332,0.340031 0.14986,0.529166 h -0.65629 c -0.005,-0.185001 -0.0186,-0.362768 -0.0444,-0.529166 z m -2.18902,0.79375 h 0.65629 c 0.005,0.185001 0.0186,0.363802 0.0444,0.529166 h -0.55087 c -0.0827,-0.16123 -0.13332,-0.340031 -0.14986,-0.529166 z m 0.92088,0 h 1.04799 c -0.006,0.187068 -0.0207,0.365869 -0.0475,0.529166 h -0.95291 c -0.0269,-0.163297 -0.0413,-0.342098 -0.0475,-0.529166 z m 1.31258,0 h 0.65629 c -0.0165,0.189135 -0.0672,0.367936 -0.14986,0.529166 h -0.55087 c 0.0258,-0.165364 0.0393,-0.344165 0.0444,-0.529166 z m -1.9079,0.79375 h 0.42788 c 0.0289,0.120922 0.061,0.235644 0.10026,0.33693 0.0114,0.03101 0.0258,0.05581 0.0393,0.08475 -0.22428,-0.09198 -0.41651,-0.238745 -0.56741,-0.421679 z m 0.69867,0 h 0.84129 c -0.0227,0.08785 -0.0486,0.169498 -0.0765,0.242879 -0.0444,0.114721 -0.0951,0.202572 -0.14573,0.271818 -0.0651,0.0083 -0.13126,0.01447 -0.19844,0.01447 -0.0672,0 -0.13332,-0.0062 -0.19843,-0.01447 -0.0507,-0.06925 -0.10129,-0.157097 -0.14573,-0.271818 -0.0279,-0.07338 -0.0537,-0.155029 -0.0765,-0.242879 z m 1.11208,0 h 0.42788 c -0.1509,0.182934 -0.34313,0.329695 -0.56741,0.421679 0.0134,-0.02894 0.0279,-0.05374 0.0393,-0.08475 0.0393,-0.101286 0.0713,-0.216008 0.10026,-0.33693 z m 0,0"
       fill="#222222"
       id="path1"
       style="stroke-width:0.264583;fill:#ffffff" /></g></svg>
