<?xml version="1.0" encoding="UTF-8" standalone="no"?>
<!-- Created with Inkscape (http://www.inkscape.org/) -->

<svg
   width="27.999826"
   height="27.999788"
   viewBox="0 0 7.4082874 7.4082773"
   version="1.1"
   id="svg1"
   inkscape:version="1.3 (0e150ed6c4, 2023-07-21)"
   sodipodi:docname="vbb.svg"
   xmlns:inkscape="http://www.inkscape.org/namespaces/inkscape"
   xmlns:sodipodi="http://sodipodi.sourceforge.net/DTD/sodipodi-0.dtd"
   xmlns="http://www.w3.org/2000/svg"
   xmlns:svg="http://www.w3.org/2000/svg">
  <sodipodi:namedview
     id="namedview1"
     pagecolor="#ffffff"
     bordercolor="#000000"
     borderopacity="0.25"
     inkscape:showpageshadow="2"
     inkscape:pageopacity="0.0"
     inkscape:pagecheckerboard="0"
     inkscape:deskcolor="#d1d1d1"
     inkscape:document-units="px"
     inkscape:zoom="6.0720539"
     inkscape:cx="39.525341"
     inkscape:cy="10.210713"
     inkscape:window-width="1920"
     inkscape:window-height="1011"
     inkscape:window-x="0"
     inkscape:window-y="0"
     inkscape:window-maximized="1"
     inkscape:current-layer="layer1" />
  <defs
     id="defs1" />
  <g
     inkscape:label="Layer 1"
     inkscape:groupmode="layer"
     id="layer1"
     transform="translate(-105.83333,-79.904152)">
    <rect
       style="fill:#ffffff;stroke-width:0.264581;stroke-linecap:round;stroke-linejoin:round"
       id="rect2"
       width="7.4082875"
       height="7.4082775"
       x="105.83333"
       y="79.904152" />
    <g
       id="g613"
       transform="matrix(0.26458333,0,0,0.26458333,-89.109516,-513.26939)">
      <path
         fill="#e10000"
         fill-rule="evenodd"
         d="m 750.92977,2244.253 c 0,0 3.29667,-0.1834 6.42,1.9586 3.35,2.298 4.304,5.3627 4.304,5.3627 h -2.916 c 0,0 -0.98133,-1.9647 -3.15133,-3.3187 -2.31267,-1.444 -4.65667,-1.3426 -4.65667,-1.3426 z m -2.46,0.2673 0.53467,2.5733 c 0,0 -0.51934,0.098 -1.224,0.3467 -0.70467,0.2493 -1.30934,0.6067 -1.30934,0.6067 l -1.31666,-2.278 c 0,0 0.69,-0.4174 1.616,-0.764 0.92666,-0.348 1.69933,-0.4847 1.69933,-0.4847 z m -5.03533,2.442 1.72,2.048 c 0,0 -0.486,0.43 -0.80734,0.7633 -0.322,0.3334 -0.588,0.7154 -0.588,0.7154 l -2.18,-1.612 c 0,0 0.43867,-0.54 0.81467,-0.9394 0.37667,-0.3993 1.04067,-0.9753 1.04067,-0.9753 z m 5.00066,5.6973 h -1.77866 l -2.02534,4.4707 h -0.0187 l -0.08,-4.4707 h -1.85334 l 0.584,6.24 h 1.9 l 3.27267,-6.24 z m 4.31334,4.488 c 0.18066,-0.84 -0.22334,-1.3406 -1.00467,-1.4746 l 0.007,-0.018 c 0.68466,-0.152 1.33133,-0.5187 1.54733,-1.52 0.2,-0.93 -0.35267,-1.4754 -1.73067,-1.4754 h -2.45866 l -1.34534,6.24 h 2.496 c 1.23867,0 2.226,-0.518 2.492,-1.752 z m -1.20067,-2.682 c -0.114,0.5274 -0.53067,0.6887 -0.95867,0.6887 h -0.34466 l 0.29466,-1.368 h 0.44667 c 0.41,0 0.662,0.2147 0.562,0.68 z m -0.44867,2.5574 c -0.10266,0.4733 -0.44333,0.7146 -0.946,0.7146 h -0.46533 l 0.31333,-1.4566 h 0.54 c 0.45667,0 0.658,0.2766 0.558,0.742 z m 7.218,0.1246 c 0.18134,-0.84 -0.22266,-1.3406 -1.00466,-1.4746 l 0.007,-0.018 c 0.68467,-0.152 1.332,-0.5187 1.548,-1.52 0.2,-0.93 -0.35333,-1.4754 -1.73133,-1.4754 h -2.45867 l -1.34466,6.24 h 2.496 c 1.23866,0 2.22533,-0.518 2.49133,-1.752 z m -1.2,-2.682 c -0.114,0.5274 -0.53066,0.6887 -0.95933,0.6887 h -0.34467 l 0.29534,-1.368 h 0.44666 c 0.41,0 0.662,0.2147 0.56134,0.68 z m -0.44933,2.5574 c -0.102,0.4733 -0.44267,0.7146 -0.94533,0.7146 h -0.466 l 0.314,-1.4566 h 0.54 c 0.45666,0 0.658,0.2766 0.55733,0.742 z m -6.01333,10.5553 c 0,0 -3.29734,0.1833 -6.42,-1.9587 -3.35134,-2.298 -4.30467,-5.3626 -4.30467,-5.3626 h 2.916 c 0,0 0.98133,1.9646 3.15133,3.3193 2.31334,1.4433 4.65734,1.342 4.65734,1.342 z m 2.46,-0.2673 -0.53534,-2.5734 c 0,0 0.52,-0.098 1.224,-0.3466 a 8.434,8.434 0 0 0 1.30934,-0.6067 l 1.31666,2.2787 c 0,0 -0.69,0.4173 -1.616,0.764 -0.92666,0.3473 -1.69933,0.484 -1.69933,0.484 z m 5.03466,-2.442 -1.72,-2.048 c 0,0 0.486,-0.43 0.80734,-0.7634 0.322,-0.3333 0.588,-0.7153 0.588,-0.7153 l 2.18,1.612 c 0,0 -0.438,0.54 -0.81467,0.9393 -0.376,0.3994 -1.04,0.9754 -1.04,0.9754 z"
         id="path589-5"
         style="stroke-width:1" />
    </g>
  </g>
</svg>
