<?xml version="1.0" encoding="UTF-8" standalone="no"?>
<!-- Created with Inkscape (http://www.inkscape.org/) -->

<svg
   width="27.999826"
   height="27.999788"
   viewBox="0 0 7.4082874 7.4082773"
   version="1.1"
   id="svg1"
   inkscape:version="1.3 (0e150ed6c4, 2023-07-21)"
   sodipodi:docname="vbn.svg"
   xml:space="preserve"
   xmlns:inkscape="http://www.inkscape.org/namespaces/inkscape"
   xmlns:sodipodi="http://sodipodi.sourceforge.net/DTD/sodipodi-0.dtd"
   xmlns="http://www.w3.org/2000/svg"
   xmlns:svg="http://www.w3.org/2000/svg"><sodipodi:namedview
     id="namedview1"
     pagecolor="#ffffff"
     bordercolor="#000000"
     borderopacity="0.25"
     inkscape:showpageshadow="2"
     inkscape:pageopacity="0.0"
     inkscape:pagecheckerboard="0"
     inkscape:deskcolor="#d1d1d1"
     inkscape:document-units="px"
     inkscape:zoom="10.285367"
     inkscape:cx="10.111452"
     inkscape:cy="18.958973"
     inkscape:window-width="1920"
     inkscape:window-height="1011"
     inkscape:window-x="0"
     inkscape:window-y="0"
     inkscape:window-maximized="1"
     inkscape:current-layer="layer1"
     showgrid="true"><inkscape:grid
       id="grid6"
       units="px"
       originx="0"
       originy="0"
       spacingx="0.26458333"
       spacingy="0.26458333"
       empcolor="#0099e5"
       empopacity="0.30196078"
       color="#0099e5"
       opacity="0.14901961"
       empspacing="5"
       dotted="false"
       gridanglex="30"
       gridanglez="30"
       visible="true" /></sodipodi:namedview><defs
     id="defs1" /><g
     inkscape:label="Layer 1"
     inkscape:groupmode="layer"
     id="layer1"
     transform="translate(-105.83333,-79.904152)"><rect
       style="fill:#ffffff;stroke-width:0.264581;stroke-linecap:round;stroke-linejoin:round"
       id="rect2"
       width="7.4082875"
       height="7.4082775"
       x="105.83333"
       y="79.904152" /><g
       inkscape:label="Ebene 1"
       id="layer1-2"
       transform="matrix(0.05732652,0,0,0.05732652,106.94561,80.153396)"
       style="stroke-width:4.61537"><path
         d="M 7.7039359,81.492659 H 82.6224 V 6.8052166 H 7.7039359 Z"
         style="fill:#ffffff;fill-opacity:1;fill-rule:nonzero;stroke:none;stroke-width:4.61537"
         id="path2742" /><path
         d="m 15.410458,115.62061 h 6.398854 L 31.882713,88.281634 h -5.792968 l -7.157302,21.546006 h -0.07628 L 11.738091,88.281634 H 5.3392368 L 15.410458,115.62061"
         style="fill:#1b1c20;fill-opacity:1;fill-rule:nonzero;stroke:none;stroke-width:4.61537"
         id="path2744" /><path
         d="m 40.886005,111.07864 v -7.27063 h 4.581196 c 2.763538,0 4.657476,0.49255 4.657476,3.63532 0,3.14276 -1.893938,3.63531 -4.657476,3.63531 z m 0,-11.814776 v -6.435905 h 4.581196 c 2.460595,0 3.824928,1.019981 3.824928,3.216862 0,2.194703 -1.364333,3.219043 -3.824928,3.219043 z m 4.467865,16.356746 c 4.201972,0.30512 11.01928,-1.6651 11.01928,-7.08102 0,-4.01236 -2.576106,-6.39886 -6.02181,-7.11807 v -0.0741 c 2.726487,-0.911 4.810038,-2.992376 4.810038,-5.982576 0,-5.339643 -4.99965,-7.386143 -9.883789,-7.0832 H 35.016756 V 115.62061 H 45.35387"
         style="fill:#1b1c20;fill-opacity:1;fill-rule:nonzero;stroke:none;stroke-width:4.61537"
         id="path2746" /><path
         d="M 85.085174,115.62061 V 88.281634 h -5.490025 v 21.432676 l -0.07628,0.0763 -10.411215,-21.508956 h -8.709067 v 27.338976 h 5.490025 V 92.978341 l 0.0741,-0.07628 10.792618,22.718549 h 8.329843"
         style="fill:#1b1c20;fill-opacity:1;fill-rule:nonzero;stroke:none;stroke-width:4.61537"
         id="path2748" /><path
         d="M 23.051597,56.869276 40.3564,39.564473 50.214035,49.422108 32.91795,66.718193 m 34.860242,-34.94742 c -2.32329,-4.127871 -5.755918,-7.547422 -9.894686,-9.853276"
         style="fill:none;stroke:#e60005;stroke-width:4.85847;stroke-linecap:butt;stroke-linejoin:miter;stroke-miterlimit:4;stroke-dasharray:none;stroke-opacity:1"
         id="path2750" /><path
         d="m 20.514721,61.520214 h 4.638951 v -4.638951 h -4.638951 z"
         style="fill:#ffffff;fill-opacity:1;fill-rule:nonzero;stroke:none;stroke-width:4.61537"
         id="path2752" /><path
         d="m 18.370146,59.375639 h 4.638951 v -4.638951 h -4.638951 z"
         style="fill:#ffffff;fill-opacity:1;fill-rule:nonzero;stroke:none;stroke-width:4.61537"
         id="path2754" /><path
         d="m 28.227781,69.464295 h 4.638952 v -4.638951 h -4.638952 z"
         style="fill:#ffffff;fill-opacity:1;fill-rule:nonzero;stroke:none;stroke-width:4.61537"
         id="path2756" /><path
         d="m 30.605557,71.436694 h 4.638951 v -4.638951 h -4.638951 z"
         style="fill:#ffffff;fill-opacity:1;fill-rule:nonzero;stroke:none;stroke-width:4.61537"
         id="path2758" /><path
         d="m 55.656112,21.915317 h 4.638951 v -4.638951 h -4.638951 z"
         style="fill:#ffffff;fill-opacity:1;fill-rule:nonzero;stroke:none;stroke-width:4.61537"
         id="path2760" /><path
         d="m 67.773833,33.976373 h 4.638951 v -4.638952 h -4.638951 z"
         style="fill:#ffffff;fill-opacity:1;fill-rule:nonzero;stroke:none;stroke-width:4.61537"
         id="path2762" /><path
         d="m 45.417074,18.689737 c -14.162042,0 -25.641185,11.479143 -25.641185,25.641185 0,4.555042 1.192157,8.831116 3.275708,12.538354 L 40.3564,39.564473 50.214035,49.422108 32.91795,66.718193 c 3.69852,2.070474 7.959337,3.253913 12.499124,3.253913 14.162041,0 25.641184,-11.479143 25.641184,-25.641184 0,-14.162042 -11.479143,-25.641185 -25.641184,-25.641185"
         style="fill:#e73300;fill-opacity:1;fill-rule:nonzero;stroke:none;stroke-width:4.61537"
         id="path2764" /><path
         d="M 84.751719,4.882945 H 5.8535861 V 83.781078 H 84.751719 Z M 80.150908,79.180267 H 19.002185 V 69.974286 H 10.456577 V 9.4859354 H 70.310708 L 57.833379,21.963265 c 4.123512,2.312392 7.538704,5.731944 9.848917,9.857635 L 80.150908,19.352288 v 59.827979"
         style="fill:#1b1c20;fill-opacity:1;fill-rule:nonzero;stroke:none;stroke-width:4.61537"
         id="path2766" /><path
         d="M 8.0570062,71.863866 40.3564,39.564473 50.214035,49.422108 17.914642,81.721501 8.0570062,71.863866"
         style="fill:#1b1c20;fill-opacity:1;fill-rule:nonzero;stroke:none;stroke-width:4.61537"
         id="path2768" /></g></g></svg>
