<?xml version="1.0" encoding="UTF-8" standalone="no"?>
<!-- Created with Inkscape (http://www.inkscape.org/) -->

<svg
   width="27.999826"
   height="27.999788"
   viewBox="0 0 7.4082874 7.4082773"
   version="1.1"
   id="svg1"
   inkscape:version="1.3 (0e150ed6c4, 2023-07-21)"
   sodipodi:docname="invg.svg"
   xml:space="preserve"
   xmlns:inkscape="http://www.inkscape.org/namespaces/inkscape"
   xmlns:sodipodi="http://sodipodi.sourceforge.net/DTD/sodipodi-0.dtd"
   xmlns="http://www.w3.org/2000/svg"
   xmlns:svg="http://www.w3.org/2000/svg"><sodipodi:namedview
     id="namedview1"
     pagecolor="#ffffff"
     bordercolor="#000000"
     borderopacity="0.25"
     inkscape:showpageshadow="2"
     inkscape:pageopacity="0.0"
     inkscape:pagecheckerboard="0"
     inkscape:deskcolor="#d1d1d1"
     inkscape:document-units="px"
     inkscape:zoom="7.9999996"
     inkscape:cx="-5.7500003"
     inkscape:cy="34.125001"
     inkscape:window-width="1920"
     inkscape:window-height="1011"
     inkscape:window-x="0"
     inkscape:window-y="0"
     inkscape:window-maximized="1"
     inkscape:current-layer="layer1"
     showgrid="true"><inkscape:grid
       id="grid1"
       units="px"
       originx="0"
       originy="0"
       spacingx="0.26458333"
       spacingy="0.26458333"
       empcolor="#0099e5"
       empopacity="0.30196078"
       color="#0099e5"
       opacity="0.14901961"
       empspacing="5"
       dotted="false"
       gridanglex="30"
       gridanglez="30"
       visible="true" /></sodipodi:namedview><defs
     id="defs1" /><g
     inkscape:label="Layer 1"
     inkscape:groupmode="layer"
     id="layer1"
     transform="translate(-105.83333,-79.904152)"><rect
       style="fill:#ffffff;stroke-width:0.264581;stroke-linecap:round;stroke-linejoin:round"
       id="rect2"
       width="7.4082875"
       height="7.4082775"
       x="105.83333"
       y="79.904152"
       rx="1.5875" /><g
       id="g8"
       transform="translate(0,-10.583333)"><g
         id="g17"
         transform="matrix(0.04836165,0,0,-0.04836165,110.74755,95.486858)"
         style="stroke-width:54.7094"><path
           d="m 0,0 c 0,-0.172 -0.034,-0.431 -0.103,-0.776 l -7.29,-30.244 c -0.172,-0.723 -0.551,-1.3 -1.137,-1.731 -0.587,-0.431 -1.327,-0.646 -2.224,-0.646 -0.896,0 -1.637,0.215 -2.222,0.646 -0.586,0.431 -0.965,1.008 -1.138,1.731 l -7.289,30.244 c -0.035,0.173 -0.06,0.328 -0.078,0.465 -0.018,0.139 -0.025,0.242 -0.025,0.311 0,0.896 0.319,1.602 0.955,2.119 0.638,0.517 1.353,0.776 2.146,0.776 0.586,0 1.155,-0.181 1.706,-0.542 0.551,-0.363 0.913,-0.94 1.085,-1.733 l 4.86,-20.679 4.86,20.679 c 0.172,0.793 0.534,1.37 1.087,1.733 0.55,0.361 1.136,0.542 1.757,0.542 0.758,0 1.456,-0.259 2.094,-0.776 C -0.319,1.602 0,0.896 0,0"
           style="fill:#2b2b2a;fill-opacity:1;fill-rule:nonzero;stroke:none;stroke-width:54.7094"
           id="path16" /></g><g
         id="g18"
         transform="matrix(0.04836165,0,0,-0.04836165,112.06343,96.611969)"
         style="stroke-width:54.7094"><path
           d="m 0,0 c 0,-1.448 -0.267,-2.792 -0.802,-4.032 -0.533,-1.242 -1.266,-2.319 -2.197,-3.232 -0.93,-0.914 -2.024,-1.62 -3.283,-2.12 -1.257,-0.499 -2.61,-0.75 -4.058,-0.75 h -0.465 c -1.414,0 -2.748,0.259 -4.007,0.776 -1.257,0.517 -2.351,1.224 -3.282,2.12 -0.931,0.896 -1.672,1.956 -2.224,3.18 -0.551,1.223 -0.827,2.559 -0.827,4.006 v 16.078 c 0,1.448 0.276,2.784 0.827,4.008 0.552,1.223 1.293,2.291 2.224,3.205 0.931,0.912 2.025,1.628 3.282,2.145 1.259,0.517 2.593,0.775 4.007,0.775 h 0.465 c 1.276,0 2.499,-0.206 3.671,-0.62 1.172,-0.413 2.214,-1 3.128,-1.757 0.913,-0.759 1.662,-1.647 2.249,-2.663 0.586,-1.017 0.947,-2.146 1.086,-3.386 v -0.311 c 0,-0.827 -0.302,-1.447 -0.914,-1.861 -0.603,-0.414 -1.275,-0.62 -2.007,-0.62 -0.699,0 -1.336,0.206 -1.931,0.62 -0.585,0.414 -0.991,1.068 -1.197,1.965 -0.207,0.999 -0.707,1.698 -1.491,2.093 -0.784,0.397 -1.663,0.596 -2.62,0.596 h -0.465 c -1.197,0 -2.214,-0.397 -3.059,-1.19 -0.836,-0.793 -1.257,-1.783 -1.257,-2.99 V 0.043 c 0,-1.207 0.421,-2.206 1.257,-3.016 0.845,-0.81 1.862,-1.214 3.059,-1.214 h 0.465 c 1.199,0 2.224,0.395 3.085,1.18 0.853,0.792 1.284,1.783 1.284,2.981 v 4.73 H -9.72 c -0.999,0 -1.74,0.311 -2.222,0.931 -0.483,0.621 -0.724,1.31 -0.724,2.069 0,0.723 0.241,1.395 0.724,2.015 0.482,0.621 1.223,0.931 2.222,0.931 h 6.696 c 0.801,0 1.508,-0.301 2.111,-0.905 C -0.302,9.142 0,8.444 0,7.651 Z"
           style="fill:#2b2b2a;fill-opacity:1;fill-rule:nonzero;stroke:none;stroke-width:54.7094"
           id="path17" /></g><g
         id="g19"
         transform="matrix(0.04836165,0,0,-0.04836165,112.75426,96.959529)"
         style="stroke-width:54.7094"><path
           d="m 0,0 c 0,-0.999 -0.311,-1.74 -0.931,-2.222 -0.62,-0.483 -1.309,-0.725 -2.067,-0.725 -0.759,0 -1.448,0.242 -2.068,0.725 C -5.687,-1.74 -5.997,-0.999 -5.997,0 v 30.347 c 0,1.001 0.31,1.75 0.931,2.25 0.62,0.499 1.309,0.75 2.068,0.75 0.758,0 1.447,-0.251 2.067,-0.75 C -0.311,32.097 0,31.348 0,30.347 Z"
           style="fill:#2b2b2a;fill-opacity:1;fill-rule:nonzero;stroke:none;stroke-width:54.7094"
           id="path18" /></g></g><g
       id="g16"
       transform="matrix(1.4840107,0,0,1.4840107,-51.617092,-45.016812)"
       style="stroke-width:0.673849"><g
         id="g12"
         transform="matrix(0.04836165,0,0,-0.04836165,107.51578,84.137485)"
         style="stroke-width:36.8658"><path
           d="M 0,0 -29.318,-36.205 V -59.072 L 18.518,0 Z"
           style="fill:#15457c;fill-opacity:1;fill-rule:nonzero;stroke:none;stroke-width:36.8658"
           id="path11" /></g><g
         id="g13"
         transform="matrix(0.04836165,0,0,-0.04836165,108.41133,84.137485)"
         style="stroke-width:36.8658"><path
           d="m 0,0 -47.836,-59.072 v -22.869 h 0.009 L 18.521,-0.007 V 0 Z"
           style="fill:#0084c7;fill-opacity:1;fill-rule:nonzero;stroke:none;stroke-width:36.8658"
           id="path12" /></g><g
         id="g14"
         transform="matrix(0.04836165,0,0,-0.04836165,106.09827,88.100306)"
         style="stroke-width:36.8658"><path
           d="m 0,0 h 18.528 l 47.821,59.054 v 22.88 z"
           style="fill:#79b934;fill-opacity:1;fill-rule:nonzero;stroke:none;stroke-width:36.8658"
           id="path13" /></g><g
         id="g15"
         transform="matrix(0.04836165,0,0,-0.04836165,106.99431,88.100306)"
         style="stroke-width:36.8658"><path
           d="m 0,0 h 18.503 l 29.32,36.205 v 22.849 z"
           style="fill:#bdd018;fill-opacity:1;fill-rule:nonzero;stroke:none;stroke-width:36.8658"
           id="path14" /></g></g></g></svg>
