<?xml version="1.0" encoding="UTF-8" standalone="no"?>
<!-- Created with Inkscape (http://www.inkscape.org/) -->

<svg
   width="27.999826"
   height="27.999788"
   viewBox="0 0 7.4082874 7.4082773"
   version="1.1"
   id="svg1"
   inkscape:version="1.3 (0e150ed6c4, 2023-07-21)"
   sodipodi:docname="vgs.svg"
   xml:space="preserve"
   xmlns:inkscape="http://www.inkscape.org/namespaces/inkscape"
   xmlns:sodipodi="http://sodipodi.sourceforge.net/DTD/sodipodi-0.dtd"
   xmlns="http://www.w3.org/2000/svg"
   xmlns:svg="http://www.w3.org/2000/svg"><sodipodi:namedview
     id="namedview1"
     pagecolor="#ffffff"
     bordercolor="#000000"
     borderopacity="0.25"
     inkscape:showpageshadow="2"
     inkscape:pageopacity="0.0"
     inkscape:pagecheckerboard="0"
     inkscape:deskcolor="#d1d1d1"
     inkscape:document-units="px"
     inkscape:zoom="11.313708"
     inkscape:cx="15.821514"
     inkscape:cy="15.909903"
     inkscape:window-width="1920"
     inkscape:window-height="1011"
     inkscape:window-x="0"
     inkscape:window-y="0"
     inkscape:window-maximized="1"
     inkscape:current-layer="layer1"
     showgrid="true"><inkscape:grid
       id="grid6"
       units="px"
       originx="0"
       originy="0"
       spacingx="0.26458333"
       spacingy="0.26458333"
       empcolor="#0099e5"
       empopacity="0.30196078"
       color="#0099e5"
       opacity="0.14902"
       empspacing="5"
       dotted="false"
       gridanglex="30"
       gridanglez="30"
       visible="true" /></sodipodi:namedview><defs
     id="defs1"><clipPath
       clipPathUnits="userSpaceOnUse"
       id="clipPath62542"><path
         d="m 36,36 1818,0 0,1818 -1818,0 0,-1818 z"
         id="path62544"
         inkscape:connector-curvature="0" /></clipPath></defs><g
     inkscape:label="Layer 1"
     inkscape:groupmode="layer"
     id="layer1"
     transform="translate(-105.83333,-79.904152)"><rect
       style="fill:#ffffff;stroke-width:0.264581;stroke-linecap:round;stroke-linejoin:round"
       id="rect2"
       width="7.4082875"
       height="7.4082775"
       x="105.83333"
       y="79.904152" /><g
       id="LOGO"
       transform="matrix(0.26831553,0,0,0.26831553,64.348085,62.444106)">&#10;	&#10;	&#10;<g
   id="g1"
   transform="matrix(0.060493,0,0,0.060493,158.40668,74.23025)"><g
     transform="matrix(10,0,0,-9.9488796,94.18367,11.62885)"
     id="g27364"><path
       id="path27366"
       style="fill:#231f20;fill-opacity:1;fill-rule:nonzero;stroke:none"
       d="m 0,0 h -3.74 l -1.969,-6.458 c -0.374,-1.22 -0.473,-1.732 -0.63,-2.559 h -0.04 c -0.197,0.906 -0.433,1.654 -0.649,2.363 L -9.056,0 h -3.938 l 4.371,-13.289 h 4.311 L 0,0" /></g><g
     transform="matrix(10,0,0,-9.9488796,203.53367,14.205613)"
     id="g27368"><path
       id="path27370"
       style="fill:#231f20;fill-opacity:1;fill-rule:nonzero;stroke:none"
       d="m 0,0 c -1.083,0.334 -2.124,0.476 -3.503,0.476 -4.843,0 -7.835,-2.914 -7.835,-7.226 0,-3.976 2.382,-6.516 6.851,-6.516 1.811,0 3.504,0.354 4.784,0.925 v 6.556 h -3.662 v -4.036 c -0.197,-0.059 -0.472,-0.098 -0.748,-0.098 -2.264,0 -3.249,1.358 -3.249,3.425 0,2.146 1.261,3.662 3.682,3.662 1.319,0 2.656,-0.189 3.68,-0.582 L 0,0" /></g><g
     transform="matrix(10,0,0,-9.9488796,370.88367,99.964962)"
     id="g27372"><path
       id="path27374"
       style="fill:#231f20;fill-opacity:1;fill-rule:nonzero;stroke:none"
       d="m 0,0 c 0,4.154 -4.961,3.504 -4.961,5.178 0,0.512 0.432,0.925 1.456,0.925 0.807,0 1.747,-0.146 2.515,-0.363 v 3.117 c -0.827,0.138 -1.708,0.278 -2.377,0.278 -3.504,0 -5.532,-1.693 -5.532,-4.331 0,-4.548 4.961,-3.406 4.961,-5.336 0,-0.61 -0.571,-0.984 -1.457,-0.984 -1.004,0 -2.221,0.245 -2.949,0.501 L -8.391,-4.432 C -7.505,-4.629 -6.596,-4.666 -5.69,-4.666 -2.146,-4.666 0,-2.658 0,0" /></g><g
     transform="matrix(10,0,0,-9.9488796,220.29367,139.51175)"
     id="g27376"><path
       id="path27378"
       style="fill:#50b848;fill-opacity:1;fill-rule:nonzero;stroke:#50b848;stroke-width:0.232;stroke-linecap:butt;stroke-linejoin:miter;stroke-miterlimit:3.864;stroke-dasharray:none;stroke-opacity:1"
       d="M 0,0 C 0,1.481 1.245,2.681 2.783,2.681 4.32,2.681 5.565,1.481 5.565,0 5.565,-1.481 4.32,-2.681 2.783,-2.681 1.245,-2.681 0,-1.481 0,0 Z" /></g><g
     transform="matrix(10,0,0,-9.9488796,220.29367,11.62885)"
     id="g27380"><path
       id="path27382"
       style="fill:#50b848;fill-opacity:1;fill-rule:nonzero;stroke:#50b848;stroke-width:0.232;stroke-linecap:butt;stroke-linejoin:miter;stroke-miterlimit:3.864;stroke-dasharray:none;stroke-opacity:1"
       d="M 0,0 C 0,1.481 1.245,2.681 2.783,2.681 4.32,2.681 5.565,1.481 5.565,0 5.565,-1.481 4.32,-2.681 2.783,-2.681 1.245,-2.681 0,-1.481 0,0 Z" /></g><g
     transform="matrix(10,0,0,-9.9488796,220.29367,75.500662)"
     id="g27384"><path
       id="path27386"
       style="fill:#50b848;fill-opacity:1;fill-rule:nonzero;stroke:#50b848;stroke-width:0.232;stroke-linecap:butt;stroke-linejoin:miter;stroke-miterlimit:3.864;stroke-dasharray:none;stroke-opacity:1"
       d="M 0,0 C 0,1.481 1.245,2.681 2.783,2.681 4.32,2.681 5.565,1.481 5.565,0 5.565,-1.481 4.32,-2.681 2.783,-2.681 1.245,-2.681 0,-1.481 0,0 Z" /></g></g></g></g><style
     type="text/css"
     id="style1">&#10;	.st0{fill:#505050;}&#10;	.st1{fill:#99CC00;}&#10;</style></svg>
