<?xml version="1.0" encoding="UTF-8" standalone="no"?>
<!-- Created with Inkscape (http://www.inkscape.org/) -->

<svg
   width="27.999826"
   height="27.999788"
   viewBox="0 0 7.4082874 7.4082773"
   version="1.1"
   id="svg1"
   inkscape:version="1.3 (0e150ed6c4, 2023-07-21)"
   sodipodi:docname="vmt.svg"
   xml:space="preserve"
   xmlns:inkscape="http://www.inkscape.org/namespaces/inkscape"
   xmlns:sodipodi="http://sodipodi.sourceforge.net/DTD/sodipodi-0.dtd"
   xmlns="http://www.w3.org/2000/svg"
   xmlns:svg="http://www.w3.org/2000/svg"><sodipodi:namedview
     id="namedview1"
     pagecolor="#ffffff"
     bordercolor="#000000"
     borderopacity="0.25"
     inkscape:showpageshadow="2"
     inkscape:pageopacity="0.0"
     inkscape:pagecheckerboard="0"
     inkscape:deskcolor="#d1d1d1"
     inkscape:document-units="px"
     inkscape:zoom="11.313708"
     inkscape:cx="14.142136"
     inkscape:cy="1.767767"
     inkscape:window-width="1920"
     inkscape:window-height="1011"
     inkscape:window-x="0"
     inkscape:window-y="0"
     inkscape:window-maximized="1"
     inkscape:current-layer="layer1"
     showgrid="true"><inkscape:grid
       id="grid6"
       units="px"
       originx="0"
       originy="0"
       spacingx="0.26458333"
       spacingy="0.26458333"
       empcolor="#0099e5"
       empopacity="0.30196078"
       color="#0099e5"
       opacity="0.14902"
       empspacing="5"
       dotted="false"
       gridanglex="30"
       gridanglez="30"
       visible="true" /></sodipodi:namedview><defs
     id="defs1" /><g
     inkscape:label="Layer 1"
     inkscape:groupmode="layer"
     id="layer1"
     transform="translate(-105.83333,-79.904152)"><rect
       style="fill:#ffffff;fill-opacity:1;stroke-width:0.264581;stroke-linecap:round;stroke-linejoin:round"
       id="rect2"
       width="7.4082875"
       height="7.4082775"
       x="105.83333"
       y="79.904152"
       rx="1.5875" /><g
       transform="matrix(0.1222998,0,0,-0.1222998,46.633055,179.8171)"
       id="g6575"><path
         d="m 504.096,796.3644 c 0.1608,0.5736 -0.096,1.1172 -0.7344,1.1172 h -2.6388 c -0.672,0 -1.0212,-0.3216 -1.1808,-0.99 l -3.5772,-12.2496 c -0.1104,-0.3708 -0.168,-0.546 -0.228,-0.8448 -0.0792,0.2748 -0.1332,0.5232 -0.2064,0.8304 l -3.4332,12.3276 c -0.1596,0.6048 -0.5412,0.9264 -1.1484,0.9264 h -2.8404 c -0.6384,0 -0.8928,-0.5436 -0.7332,-1.1172 l 5.7756,-19.7196 c 0.1272,-0.4788 0.6384,-0.7992 1.1172,-0.7992 h 3.096 c 0.4776,0 0.9888,0.3204 1.1172,0.7992"
         id="path5181"
         style="fill:#99d420;fill-opacity:1;fill-rule:nonzero;stroke:none" /><path
         d="m 525.792,776.7396 -1.692,19.848 c -0.0324,0.4788 -0.5424,0.8928 -1.02,0.8928 h -3.5424 c -0.48,0 -1.0224,-0.3192 -1.1172,-0.7968 l -2.6472,-11.91 c -0.0672,-0.2604 -0.3072,-1.5636 -0.3072,-1.5636 0,0 -0.258,1.3032 -0.2856,1.5432 l -2.5356,11.9304 c -0.0948,0.4776 -0.6396,0.7968 -1.1172,0.7968 h -3.6384 c -0.4776,0 -0.9876,-0.414 -1.02,-0.8928 l -1.7232,-19.848 c -0.0312,-0.4788 0.288,-0.8928 0.7668,-0.8928 h 2.5524 c 0.4788,0 0.9888,0.414 1.0212,0.8928 l 0.9588,13.02 c 0.018,0.4008 -0.0444,0.8004 -0.0444,0.8004 0,0 0.1008,-0.3024 0.2028,-0.7692 l 2.3616,-10.8492 c 0.0936,-0.4776 0.6372,-0.7956 1.1148,-0.7956 h 2.6796 c 0.4788,0 1.0224,0.318 1.1172,0.7956 l 2.49,10.8492 c 0.0408,0.216 0.1368,0.756 0.1368,0.756 0,0 -0.096,-0.5784 -0.0768,-0.7908 l 0.9936,-13.0164 c 0,-0.4788 0.5412,-0.8928 1.0212,-0.8928 h 2.5836 c 0.48,0 0.798,0.414 0.7668,0.8928"
         id="path5183"
         style="fill:#173e7d;fill-opacity:1;fill-rule:nonzero;stroke:none" /><path
         d="m 541.3632,794.4816 v 2.106 c 0,0.4776 -0.4152,0.8928 -0.8904,0.8928 h -12.6072 c -0.4788,0 -0.894,-0.4152 -0.894,-0.8928 v -2.106 c 0,-0.4788 0.4152,-0.894 0.894,-0.894 h 4.1508 v -16.848 c 0,-0.4788 0.4152,-0.8928 0.8904,-0.8928 h 2.5248 c 0.4764,0 0.8916,0.414 0.8916,0.8928 v 16.848 h 4.1496 c 0.4752,0 0.8904,0.4152 0.8904,0.894"
         id="path5185"
         style="fill:#173e7d;fill-opacity:1;fill-rule:nonzero;stroke:none" /></g></g><style
     type="text/css"
     id="style1">&#10;	.st0{clip-path:url(#SVGID_2_);fill:#005091;}&#10;	.st1{clip-path:url(#SVGID_4_);fill:#005091;}&#10;	.st2{clip-path:url(#SVGID_4_);fill:#E2001A;}&#10;	.st3{clip-path:url(#SVGID_6_);fill:#E2001A;}&#10;	.st4{clip-path:url(#SVGID_6_);fill:#005091;}&#10;</style></svg>
