<?xml version="1.0" encoding="UTF-8" standalone="no"?>
<!-- Created with Inkscape (http://www.inkscape.org/) -->

<svg
   width="27.999826"
   height="27.999788"
   viewBox="0 0 7.4082874 7.4082773"
   version="1.1"
   id="svg1"
   inkscape:version="1.3 (0e150ed6c4, 2023-07-21)"
   sodipodi:docname="vor.svg"
   xml:space="preserve"
   xmlns:inkscape="http://www.inkscape.org/namespaces/inkscape"
   xmlns:sodipodi="http://sodipodi.sourceforge.net/DTD/sodipodi-0.dtd"
   xmlns="http://www.w3.org/2000/svg"
   xmlns:svg="http://www.w3.org/2000/svg"><sodipodi:namedview
     id="namedview1"
     pagecolor="#ffffff"
     bordercolor="#000000"
     borderopacity="0.25"
     inkscape:showpageshadow="2"
     inkscape:pageopacity="0.0"
     inkscape:pagecheckerboard="0"
     inkscape:deskcolor="#d1d1d1"
     inkscape:document-units="px"
     inkscape:zoom="11.313708"
     inkscape:cx="12.109204"
     inkscape:cy="5.6568543"
     inkscape:window-width="1920"
     inkscape:window-height="1011"
     inkscape:window-x="0"
     inkscape:window-y="0"
     inkscape:window-maximized="1"
     inkscape:current-layer="LOGO"
     showgrid="true"><inkscape:grid
       id="grid6"
       units="px"
       originx="0"
       originy="0"
       spacingx="0.26458333"
       spacingy="0.26458333"
       empcolor="#0099e5"
       empopacity="0.30196078"
       color="#0099e5"
       opacity="0.14902"
       empspacing="5"
       dotted="false"
       gridanglex="30"
       gridanglez="30"
       visible="true" /></sodipodi:namedview><defs
     id="defs1"><clipPath
       clipPathUnits="userSpaceOnUse"
       id="clipPath62542"><path
         d="m 36,36 1818,0 0,1818 -1818,0 0,-1818 z"
         id="path62544"
         inkscape:connector-curvature="0" /></clipPath></defs><g
     inkscape:label="Layer 1"
     inkscape:groupmode="layer"
     id="layer1"
     transform="translate(-105.83333,-79.904152)"><rect
       style="fill:#ffffff;stroke-width:0.264581;stroke-linecap:round;stroke-linejoin:round"
       id="rect2"
       width="7.4082875"
       height="7.4082775"
       x="105.83333"
       y="79.904152" /><g
       id="LOGO"
       transform="matrix(0.26458333,0,0,0.26458333,65.023026,62.758668)">&#10;	<g
   id="Gruppe_603"
   transform="matrix(0.1199449,0,0,0.1199449,156.2427,75.359306)">&#10;		<path
   id="Pfad_1008"
   class="st0"
   d="m 97.3,31.3 c 0,-11.8 12,-22.4 28,-22.4 14,0 23.6,7.5 23.6,17.3 0,11.8 -12,22.4 -28,22.4 -13.9,0 -23.6,-7.5 -23.6,-17.3 z m 35.7,-4 c 0,-4 -3.1,-7.2 -8.8,-7.2 -6.7,0 -10.9,5.2 -10.9,10 0,4 3.1,7.2 8.8,7.2 6.6,0 10.9,-5.2 10.9,-10 z" />&#10;		<path
   id="Pfad_1009"
   class="st0"
   d="m 192.6,47.8 h -15.9 l -6.7,-20 h 5.8 c 5.3,0 8.1,-2 8.1,-4.4 0,-0.8 -0.4,-1.5 -1,-2 -0.9,-0.7 -2.4,-1.1 -4.7,-1.1 h -5.6 l -9.2,27.5 H 147.5 L 160.3,9.6 h 18.6 c 8.8,0 14.3,1.5 17.5,4.1 2.4,1.9 3.8,4.9 3.7,8 0,5.6 -3.5,10.5 -11.8,13 z" />&#10;		<path
   id="Pfad_1010"
   class="st0"
   d="m 86.7,9.7 -15.8,20 -3.4,-20 h -20 v 0.8 l 5.3,2.7 5.9,34.7 H 74 L 104.1,9.7 Z" />&#10;		<path
   id="Pfad_1011"
   class="st1"
   d="M 38,28.7 C 38,40.6 10.4,57.4 2.1,57.4 -6.2,57.4 12.8,44.5 12.8,28.7 12.8,12.9 -6.2,0 2.1,0 10.4,0 38,16.8 38,28.7 Z" />&#10;	</g>&#10;	&#10;</g></g><style
     type="text/css"
     id="style1">&#10;	.st0{fill:#505050;}&#10;	.st1{fill:#99CC00;}&#10;</style></svg>
