<?xml version="1.0" encoding="UTF-8" standalone="no"?>
<!-- Created with Inkscape (http://www.inkscape.org/) -->

<svg
   width="27.999826"
   height="27.999788"
   viewBox="0 0 7.4082874 7.4082773"
   version="1.1"
   id="svg1"
   inkscape:version="1.3 (0e150ed6c4, 2023-07-21)"
   sodipodi:docname="vsn.svg"
   xml:space="preserve"
   xmlns:inkscape="http://www.inkscape.org/namespaces/inkscape"
   xmlns:sodipodi="http://sodipodi.sourceforge.net/DTD/sodipodi-0.dtd"
   xmlns="http://www.w3.org/2000/svg"
   xmlns:svg="http://www.w3.org/2000/svg"><sodipodi:namedview
     id="namedview1"
     pagecolor="#ffffff"
     bordercolor="#000000"
     borderopacity="0.25"
     inkscape:showpageshadow="2"
     inkscape:pageopacity="0.0"
     inkscape:pagecheckerboard="0"
     inkscape:deskcolor="#d1d1d1"
     inkscape:document-units="px"
     inkscape:zoom="8"
     inkscape:cx="-13.125"
     inkscape:cy="30"
     inkscape:window-width="1920"
     inkscape:window-height="1011"
     inkscape:window-x="0"
     inkscape:window-y="0"
     inkscape:window-maximized="1"
     inkscape:current-layer="layer1"
     showgrid="true"><inkscape:grid
       id="grid6"
       units="px"
       originx="0"
       originy="0"
       spacingx="0.26458333"
       spacingy="0.26458333"
       empcolor="#0099e5"
       empopacity="0.30196078"
       color="#0099e5"
       opacity="0.14902"
       empspacing="5"
       dotted="false"
       gridanglex="30"
       gridanglez="30"
       visible="true" /></sodipodi:namedview><defs
     id="defs1"><clipPath
       clipPathUnits="userSpaceOnUse"
       id="clipPath62542"><path
         d="m 36,36 1818,0 0,1818 -1818,0 0,-1818 z"
         id="path62544"
         inkscape:connector-curvature="0" /></clipPath><inkscape:perspective
       sodipodi:type="inkscape:persp3d"
       inkscape:vp_x="0 : 526.18109 : 1"
       inkscape:vp_y="0 : 1000 : 0"
       inkscape:vp_z="744.09448 : 526.18109 : 1"
       inkscape:persp3d-origin="372.04724 : 350.78739 : 1"
       id="perspective10" /><clipPath
       id="clipPath3238"
       clipPathUnits="userSpaceOnUse"><path
         id="path3240"
         d="M 0,0 L 850.392,0 L 850.392,1190.547 L 0,1190.547 L 0,0 z" /></clipPath><clipPath
       id="clipPath3224"
       clipPathUnits="userSpaceOnUse"><path
         id="path3226"
         d="M 645.489,1112.151 L 638.505,1086.084 L 711.297,1066.581 L 716.838,1087.26 L 735.489,1156.869 L 686.75,1169.933 L 662.698,1176.378 L 645.489,1112.151 z" /></clipPath><clipPath
       id="clipPath3210"
       clipPathUnits="userSpaceOnUse"><path
         id="path3212"
         d="M 636.363,1055.925 L 743.877,1055.925 L 743.877,1175.931 L 636.363,1175.931 L 636.363,1055.925 z" /></clipPath><clipPath
       id="clipPath3198"
       clipPathUnits="userSpaceOnUse"><path
         id="path3200"
         d="M 0,0 L 850.392,0 L 850.392,1190.547 L 0,1190.547 L 0,0 z" /></clipPath><clipPath
       id="clipPath3184"
       clipPathUnits="userSpaceOnUse"><path
         id="path3186"
         d="M 335.314,708.096 L 311.814,620.38 L 325.804,616.631 L 363.186,606.618 L 379.305,666.762 L 387.996,699.198 L 360.362,706.603 L 336.618,712.962 L 335.314,708.096 z" /></clipPath><clipPath
       id="clipPath3170"
       clipPathUnits="userSpaceOnUse"><path
         id="path3172"
         d="M 309.672,595.872 L 396.072,595.872 L 396.072,712.512 L 309.672,712.512 L 309.672,595.872 z" /></clipPath><clipPath
       id="clipPath3156"
       clipPathUnits="userSpaceOnUse"><path
         id="path3158"
         d="M 116.64,647.64 L 178.037,647.64 L 178.037,668.736 L 116.64,668.736 L 116.64,647.64 z" /></clipPath><clipPath
       id="clipPath3142"
       clipPathUnits="userSpaceOnUse"><path
         id="path3144"
         d="M 52.56,647.523 L 110.129,647.523 L 110.129,669.447 L 52.56,669.447 L 52.56,647.523 z" /></clipPath><clipPath
       id="clipPath2742"
       clipPathUnits="userSpaceOnUse"><path
         id="path2744"
         d="M 0,0 L 850.392,0 L 850.392,1190.547 L 0,1190.547 L 0,0 z" /></clipPath><clipPath
       id="clipPath2730"
       clipPathUnits="userSpaceOnUse"><path
         id="path2732"
         d="M 0,594.909 L 283.464,594.909 L 283.464,1190.547 L 0,1190.547 L 0,594.909 z" /></clipPath><clipPath
       id="clipPath2716"
       clipPathUnits="userSpaceOnUse"><path
         id="path2718"
         d="M 0,595.278 L 283.464,595.278 L 283.464,1190.547 L 0,1190.547 L 0,595.278 z" /></clipPath><clipPath
       id="clipPath2702"
       clipPathUnits="userSpaceOnUse"><path
         id="path2704"
         d="M 296.217,388.323 L 837.063,388.323 L 837.063,1176.381 L 296.217,1176.381 L 296.217,388.323 z M 636.363,1175.931 L 743.877,1175.931 L 743.877,1055.925 L 636.363,1055.925 L 636.363,1175.931 z M 309.672,712.512 L 396.072,712.512 L 396.072,595.872 L 309.672,595.872 L 309.672,712.512 z" /></clipPath><clipPath
       id="clipPath2666"
       clipPathUnits="userSpaceOnUse"><path
         id="path2668"
         d="M 0,0 L 850.392,0 L 850.392,1190.547 L 0,1190.547 L 0,0 z" /></clipPath><clipPath
       id="clipPath2652"
       clipPathUnits="userSpaceOnUse"><path
         id="path2654"
         d="M 297.639,13.464 L 835.478,13.464 L 835.478,366.984 L 297.639,366.984 L 297.639,13.464 z" /></clipPath><clipPath
       id="clipPath2418"
       clipPathUnits="userSpaceOnUse"><path
         id="path2420"
         d="M 0,0 L 850.392,0 L 850.392,1190.547 L 0,1190.547 L 0,0 z" /></clipPath><inkscape:perspective
       id="perspective2410"
       inkscape:persp3d-origin="372.04724 : 350.78739 : 1"
       inkscape:vp_z="744.09448 : 526.18109 : 1"
       inkscape:vp_y="0 : 1000 : 0"
       inkscape:vp_x="0 : 526.18109 : 1"
       sodipodi:type="inkscape:persp3d" /><style
       id="style1-3">.cls-1{fill:#ec008c;}</style><style
       id="style1-7">.cls-1{fill:#ec008c;}</style></defs><g
     inkscape:label="Layer 1"
     inkscape:groupmode="layer"
     id="layer1"
     transform="translate(-105.83333,-79.904152)"><rect
       style="fill:#0077b5;fill-opacity:1;stroke-width:0.264581;stroke-linecap:round;stroke-linejoin:round"
       id="rect2"
       width="7.4082875"
       height="7.4082775"
       x="105.83333"
       y="79.904152"
       rx="1.5875" /><path
       d="m 109.56166,82.506172 c -0.72062,0 -0.74637,0.547014 -0.74637,0.611903 0,0.381841 0.2124,0.523578 0.42305,0.619457 0.0523,0.0238 0.1051,0.04501 0.15409,0.06647 0.0488,0.02139 0.093,0.04324 0.13145,0.06799 0.0765,0.04917 0.12838,0.10974 0.12838,0.20699 0,0.163124 -0.15651,0.241739 -0.31275,0.241739 -0.0912,0 -0.17357,-0.01913 -0.25081,-0.04532 -0.0778,-0.02637 -0.1473,-0.06236 -0.22057,-0.09216 l -0.0166,-0.0031 -0.0257,0.427575 0.008,0.0031 c 0.0912,0.02719 0.3262,0.09972 0.58622,0.09972 0.4263,0 0.76449,-0.246531 0.76449,-0.652698 0,-0.380287 -0.21539,-0.520146 -0.42606,-0.617947 -0.0523,-0.02426 -0.1051,-0.04652 -0.15409,-0.06799 -0.0485,-0.02125 -0.0941,-0.04227 -0.13291,-0.06648 -0.0767,-0.04788 -0.13146,-0.103969 -0.13146,-0.194902 0,-0.148724 0.1182,-0.22361 0.2765,-0.22361 0.13178,0 0.2875,0.04141 0.40492,0.101236 l 0.013,0.006 0.0227,-0.417002 -0.008,-0.0015 c -0.0914,-0.01966 -0.16444,-0.03761 -0.23872,-0.04986 -0.0747,-0.01229 -0.15134,-0.01965 -0.2493,-0.01965 z m -2.58208,0.04381 0.63758,2.107666 h 0.55147 l 0.64666,-2.107666 h -0.53182 l -0.38074,1.516916 h -0.003 l -0.36261,-1.516916 z m 3.42818,0 v 2.107666 h 0.45929 V 83.16642 h 0.003 l 0.59831,1.491231 h 0.62701 v -2.107666 h -0.4593 v 1.430795 h -0.005 l -0.59981,-1.430795 z"
       id="path26000"
       style="fill:#ffffff;fill-opacity:1;fill-rule:evenodd;stroke:none;stroke-width:0.048348" /></g><style
     type="text/css"
     id="style1">&#10;	.st0{fill:#505050;}&#10;	.st1{fill:#99CC00;}&#10;</style></svg>
