<?xml version="1.0" encoding="UTF-8" standalone="no"?>
<!-- Created with Inkscape (http://www.inkscape.org/) -->

<svg
   width="27.999826"
   height="27.999788"
   viewBox="0 0 7.4082874 7.4082773"
   version="1.1"
   id="svg1"
   inkscape:version="1.3 (0e150ed6c4, 2023-07-21)"
   sodipodi:docname="zvv.svg"
   xml:space="preserve"
   xmlns:inkscape="http://www.inkscape.org/namespaces/inkscape"
   xmlns:sodipodi="http://sodipodi.sourceforge.net/DTD/sodipodi-0.dtd"
   xmlns="http://www.w3.org/2000/svg"
   xmlns:svg="http://www.w3.org/2000/svg"><sodipodi:namedview
     id="namedview1"
     pagecolor="#ffffff"
     bordercolor="#000000"
     borderopacity="0.25"
     inkscape:showpageshadow="2"
     inkscape:pageopacity="0.0"
     inkscape:pagecheckerboard="0"
     inkscape:deskcolor="#d1d1d1"
     inkscape:document-units="px"
     inkscape:zoom="5.6568542"
     inkscape:cx="0.1767767"
     inkscape:cy="21.566757"
     inkscape:window-width="1920"
     inkscape:window-height="1011"
     inkscape:window-x="0"
     inkscape:window-y="0"
     inkscape:window-maximized="1"
     inkscape:current-layer="layer1"
     showgrid="false"><inkscape:grid
       id="grid6"
       units="px"
       originx="0"
       originy="0"
       spacingx="0.26458333"
       spacingy="0.26458333"
       empcolor="#0099e5"
       empopacity="0.30196078"
       color="#0099e5"
       opacity="0.14901961"
       empspacing="5"
       dotted="false"
       gridanglex="30"
       gridanglez="30"
       visible="false" /></sodipodi:namedview><defs
     id="defs1" /><g
     inkscape:label="Layer 1"
     inkscape:groupmode="layer"
     id="layer1"
     transform="translate(-105.83333,-79.904152)"><rect
       style="fill:#ffffff;stroke-width:0.264581;stroke-linecap:round;stroke-linejoin:round"
       id="rect2"
       width="7.4082875"
       height="7.4082775"
       x="105.83333"
       y="79.904152"
       rx="1.5875" /><g
       id="g1"
       transform="matrix(2.1508961,0,0,2.1508961,-110.56749,-77.051764)"
       style="stroke-width:0.464923"><path
         d="m 100.89674,74.43095 -0.0904,-0.16074 h 1.65556 l -0.161,0.160782 -1.40412,-3.7e-5"
         id="path28212"
         style="fill:#ed1c24;fill-opacity:1;fill-rule:nonzero;stroke:none;stroke-width:0.111931" /><path
         d="m 103.31537,73.525889 0.1778,0.04981 -1.31017,1.308265 -0.11313,-0.113635 1.2455,-1.244443"
         id="path28216"
         style="fill:#009a68;fill-opacity:1;fill-rule:nonzero;stroke:none;stroke-width:0.111931" /><path
         d="m 103.24262,76.050707 -0.0499,0.177542 -1.72213,-1.720992 h 0.22782 l 1.54421,1.54345"
         id="path28220"
         style="fill:#2967ba;fill-opacity:1;fill-rule:nonzero;stroke:none;stroke-width:0.111931" /><path
         d="m 102.79451,73.93798 c -0.13467,-0.08257 -0.29312,-0.130183 -0.46275,-0.130183 -0.304,0 -0.5722,0.152995 -0.73167,0.386064 h -0.18846 c 0.17716,-0.325755 0.52281,-0.546888 0.92013,-0.546888 0.21428,0 0.41345,0.06429 0.57931,0.174621 z m -0.0309,1.525971 c 0.27065,-0.15126 0.45357,-0.44032 0.45357,-0.772042 0,-0.205559 -0.0703,-0.39474 -0.18813,-0.544899 l 0.11457,-0.114397 c 0.14669,0.179827 0.23459,0.409341 0.23459,0.659296 0,0.375906 -0.1987,0.705385 -0.49695,0.889486 z m -1.47836,-0.772042 c 0,-0.06298 0.006,-0.124681 0.0163,-0.184652 h 0.16409 c -0.0127,0.05959 -0.0193,0.121338 -0.0193,0.184652 0,0.488356 0.39643,0.884196 0.88542,0.884196 0.0322,0 0.0639,-0.0017 0.0952,-0.0051 l 0.13967,0.139452 c -0.0755,0.01727 -0.15414,0.02645 -0.23489,0.02645 -0.57795,0 -1.04646,-0.467873 -1.04646,-1.045021"
         id="path28224"
         style="fill:#848282;fill-opacity:1;fill-rule:evenodd;stroke:none;stroke-width:0.111931" /></g></g></svg>
