<?xml version="1.0" encoding="UTF-8" standalone="no"?>
<svg
   height="1024"
   viewBox="0 0 1024 1024"
   width="1024"
   version="1.1"
   id="svg18"
   sodipodi:docname="de.schmidhuberj.DieBahn-symbolic.svg"
   xml:space="preserve"
   inkscape:export-filename="de.schmidhuberj.DieBahn-symbolic.png"
   inkscape:export-xdpi="96.375"
   inkscape:export-ydpi="96.375"
   inkscape:version="1.2.2 (b0a8486541, 2022-12-01)"
   xmlns:inkscape="http://www.inkscape.org/namespaces/inkscape"
   xmlns:sodipodi="http://sodipodi.sourceforge.net/DTD/sodipodi-0.dtd"
   xmlns="http://www.w3.org/2000/svg"
   xmlns:svg="http://www.w3.org/2000/svg"><defs
     id="defs22" /><sodipodi:namedview
     id="namedview20"
     pagecolor="#ffffff"
     bordercolor="#666666"
     borderopacity="1.0"
     inkscape:showpageshadow="2"
     inkscape:pageopacity="0.0"
     inkscape:pagecheckerboard="0"
     inkscape:deskcolor="#d1d1d1"
     showgrid="false"
     inkscape:zoom="0.44279077"
     inkscape:cx="-55.330873"
     inkscape:cy="641.38644"
     inkscape:window-width="1920"
     inkscape:window-height="1011"
     inkscape:window-x="0"
     inkscape:window-y="0"
     inkscape:window-maximized="1"
     inkscape:current-layer="svg18" /><path
     style="color:#000000;fill-opacity:1;stroke-width:7.99996;stroke-linecap:round;stroke-linejoin:round;-inkscape-stroke:none"
     d="m 498.76311,387.27395 a 129.00372,129.00372 0 0 0 -66.7809,0.60936 129.00372,129.00372 0 0 0 -89.78078,158.81167 l 0.0472,0.17184 a 129.00372,129.00372 0 0 0 158.81134,89.78083 129.00372,129.00372 0 0 0 89.78079,-158.81167 l -0.0472,-0.17184 a 129.00372,129.00372 0 0 0 -92.03045,-90.39019 z"
     id="path14-5" /><path
     style="color:#000000;fill-opacity:1;stroke-width:7.99996;stroke-linecap:round;stroke-linejoin:round;-inkscape-stroke:none"
     d="M 129.17129,384.75834 A 129.00372,129.00372 0 0 0 9.5262193e-5,513.58579 v 0.54688 A 129.00372,129.00372 0 0 0 128.82755,643.30387 129.00372,129.00372 0 0 0 258.01437,514.47641 v -0.54687 A 129.00372,129.00372 0 0 0 129.17129,384.75834 Z"
     id="path14-5-6" /><path
     style="color:#000000;stroke-width:7.99996;stroke-linecap:round;stroke-linejoin:round;-inkscape-stroke:none"
     d="M 925.1359,754.02203 96.780837,754.50641 A 96.824294,96.824294 0 0 0 0.01572022,851.38091 96.824294,96.824294 0 0 0 96.905836,948.16168 l 828.339424,-0.4848 a 96.824294,96.824294 0 0 0 96.76514,-96.89013 96.824294,96.824294 0 0 0 -96.8745,-96.76512 z"
     id="path10" /><path
     style="color:#000000;stroke-width:7.99996;stroke-linecap:round;stroke-linejoin:round;-inkscape-stroke:none"
     d="M 639.05925,81.9943 A 96.824294,96.824294 0 0 0 582.38767,206.6499 L 836.51132,884.53697 A 96.824294,96.824294 0 0 0 961.15131,941.2086 96.824294,96.824294 0 0 0 1017.8385,816.55293 L 763.69923,138.68151 A 96.824294,96.824294 0 0 0 639.05925,81.9943 Z"
     id="path12" /><path
     style="color:#000000;stroke-width:7.99996;stroke-linecap:round;stroke-linejoin:round;-inkscape-stroke:none"
     d="M 96.827717,76.02559 A 96.824294,96.824294 0 0 0 9.5262193e-5,172.8532 96.824294,96.824294 0 0 0 96.827717,269.6652 H 672.80907 a 96.824294,96.824294 0 0 0 96.82762,-96.812 96.824294,96.824294 0 0 0 -96.82762,-96.82761 z"
     id="path14" /></svg>
