<?xml version="1.0" encoding="UTF-8" standalone="no"?>
<svg
   height="1024"
   viewBox="0 0 1024 1024"
   width="1024"
   version="1.1"
   id="svg18"
   sodipodi:docname="de.schmidhuberj.DieBahn.svg"
   xml:space="preserve"
   inkscape:export-filename="de.schmidhuberj.DieBahn.png"
   inkscape:export-xdpi="771"
   inkscape:export-ydpi="771"
   inkscape:version="1.2.2 (b0a8486541, 2022-12-01)"
   xmlns:inkscape="http://www.inkscape.org/namespaces/inkscape"
   xmlns:sodipodi="http://sodipodi.sourceforge.net/DTD/sodipodi-0.dtd"
   xmlns="http://www.w3.org/2000/svg"
   xmlns:svg="http://www.w3.org/2000/svg"><defs
     id="defs22" /><sodipodi:namedview
     id="namedview20"
     pagecolor="#ffffff"
     bordercolor="#666666"
     borderopacity="1.0"
     inkscape:showpageshadow="2"
     inkscape:pageopacity="0.0"
     inkscape:pagecheckerboard="0"
     inkscape:deskcolor="#d1d1d1"
     showgrid="false"
     inkscape:zoom="0.42052721"
     inkscape:cx="262.7654"
     inkscape:cy="573.09015"
     inkscape:window-width="1920"
     inkscape:window-height="1011"
     inkscape:window-x="0"
     inkscape:window-y="0"
     inkscape:window-maximized="1"
     inkscape:current-layer="svg18" /><path
     style="color:#000000;fill:#ed333b;fill-opacity:0.75;stroke-width:9.1378;stroke-linecap:round;stroke-linejoin:round;-inkscape-stroke:none"
     d="m 443.68803,406.31901 a 109.89574,109.89577 0 0 0 -76.29705,135.38938 l 0.0356,0.14282 a 109.89574,109.89577 0 0 0 135.38934,76.29708 109.89574,109.89577 0 0 0 76.29706,-135.38938 l -0.0356,-0.14283 A 109.89574,109.89577 0 0 0 443.68803,406.31901 Z"
     id="path398" /><path
     style="color:#000000;fill:#ed333b;fill-opacity:0.75;stroke-width:9.1378;stroke-linecap:round;stroke-linejoin:round;-inkscape-stroke:none"
     d="M 185.88431,403.60623 A 109.89574,109.89577 0 0 0 75.83808,513.34908 v 0.48184 A 109.89574,109.89577 0 0 0 185.58091,623.85938 109.89574,109.89577 0 0 0 295.62713,514.11651 v -0.46402 A 109.89574,109.89577 0 0 0 185.88431,403.60623 Z"
     id="path401" /><path
     style="color:#000000;fill:#e01b24;stroke-width:9.1378;stroke-linecap:round;stroke-linejoin:round;-inkscape-stroke:none"
     d="m 863.93751,718.18219 -705.64508,0.41047 a 82.482802,82.482828 0 0 0 -82.436504,82.52576 82.482802,82.482828 0 0 0 82.525744,82.43657 l 705.64512,-0.41028 a 82.482802,82.482828 0 0 0 82.43647,-82.52583 82.482802,82.482828 0 0 0 -82.52575,-82.43652 z"
     id="path404" /><path
     style="color:#000000;fill:#e01b24;stroke-width:9.1378;stroke-linecap:round;stroke-linejoin:round;-inkscape-stroke:none"
     d="m 620.23316,145.69535 a 82.482802,82.482828 0 0 0 -48.27684,106.19124 l 216.4873,577.48409 A 82.482802,82.482828 0 0 0 894.63485,877.6475 82.482802,82.482828 0 0 0 942.91167,771.45629 L 726.42438,193.9722 A 82.482802,82.482828 0 0 0 620.23316,145.69535 Z"
     id="path407" /><path
     style="color:#000000;fill:#e01b24;stroke-width:9.1378;stroke-linecap:round;stroke-linejoin:round;-inkscape-stroke:none"
     d="m 158.31029,140.60887 a 82.482802,82.482828 0 0 0 -82.47221,82.47223 82.482802,82.482828 0 0 0 82.47221,82.49008 h 490.6748 a 82.482802,82.482828 0 0 0 82.49007,-82.49008 82.482802,82.482828 0 0 0 -82.49007,-82.47223 z"
     id="path410" /></svg>
